<svg width="294" height="96" viewBox="0 0 294 96" fill="none" xmlns="http://www.w3.org/2000/svg">
<path d="M162.14 34.2826C160.751 34.2826 159.623 33.1544 159.623 31.7658C159.623 30.3772 160.751 29.249 162.14 29.249C163.528 29.249 164.656 30.3772 164.656 31.7658C164.656 33.1544 163.528 34.2826 162.14 34.2826Z" fill="#E83E36" fill-opacity="0.2"/>
<path d="M31.2179 34.2826C29.8294 34.2826 28.7013 33.1544 28.7013 31.7658C28.7013 30.3772 29.8294 29.249 31.2179 29.249C32.6063 29.249 33.7344 30.3772 33.7344 31.7658C33.7344 33.1544 32.6063 34.2826 31.2179 34.2826Z" fill="#E83E36" fill-opacity="0.2"/>
<path d="M151.968 34.2826C150.579 34.2826 149.451 33.1544 149.451 31.7658C149.451 30.3772 150.579 29.249 151.968 29.249C153.356 29.249 154.484 30.3772 154.484 31.7658C154.484 33.1544 153.356 34.2826 151.968 34.2826Z" fill="#E83E36" fill-opacity="0.2"/>
<path d="M91.9679 34.2826C90.5794 34.2826 89.4513 33.1544 89.4513 31.7658C89.4513 30.3772 90.5794 29.249 91.9679 29.249C93.3563 29.249 94.4844 30.3772 94.4844 31.7658C94.4844 33.1544 93.3563 34.2826 91.9679 34.2826Z" fill="#E83E36" fill-opacity="0.2"/>
<path d="M212.718 34.2826C211.329 34.2826 210.201 33.1544 210.201 31.7658C210.201 30.3772 211.329 29.249 212.718 29.249C214.106 29.249 215.234 30.3772 215.234 31.7658C215.234 33.1544 214.106 34.2826 212.718 34.2826Z" fill="#E83E36" fill-opacity="0.2"/>
<path d="M21.046 34.2826C19.6575 34.2826 18.5294 33.1544 18.5294 31.7658C18.5294 30.3772 19.6575 29.249 21.046 29.249C22.4344 29.249 23.5625 30.3772 23.5625 31.7658C23.5625 33.1544 22.4344 34.2826 21.046 34.2826Z" fill="#E83E36" fill-opacity="0.2"/>
<path d="M81.796 34.2826C80.4075 34.2826 79.2794 33.1544 79.2794 31.7658C79.2794 30.3772 80.4075 29.249 81.796 29.249C83.1844 29.249 84.3125 30.3772 84.3125 31.7658C84.3125 33.1544 83.1844 34.2826 81.796 34.2826Z" fill="#E83E36" fill-opacity="0.2"/>
<path d="M202.546 34.2826C201.158 34.2826 200.029 33.1544 200.029 31.7658C200.029 30.3772 201.158 29.249 202.546 29.249C203.934 29.249 205.062 30.3772 205.062 31.7658C205.062 33.1544 203.934 34.2826 202.546 34.2826Z" fill="#E83E36" fill-opacity="0.2"/>
<path d="M10.8585 34.2826C9.47002 34.2826 8.34194 33.1544 8.34194 31.7658C8.34194 30.3772 9.47002 29.249 10.8585 29.249C12.2469 29.249 13.375 30.3772 13.375 31.7658C13.375 33.1544 12.2469 34.2826 10.8585 34.2826Z" fill="#E83E36" fill-opacity="0.2"/>
<path d="M131.608 34.2826C130.22 34.2826 129.092 33.1544 129.092 31.7658C129.092 30.3772 130.22 29.249 131.608 29.249C132.997 29.249 134.125 30.3772 134.125 31.7658C134.125 33.1544 132.997 34.2826 131.608 34.2826Z" fill="#E83E36" fill-opacity="0.2"/>
<path d="M192.358 34.2826C190.97 34.2826 189.842 33.1544 189.842 31.7658C189.842 30.3772 190.97 29.249 192.358 29.249C193.747 29.249 194.875 30.3772 194.875 31.7658C194.875 33.1544 193.747 34.2826 192.358 34.2826Z" fill="#E83E36" fill-opacity="0.2"/>
<path d="M0.686609 34.2826C-0.701822 34.2826 -1.82994 33.1544 -1.82994 31.7658C-1.82994 30.3772 -0.701822 29.249 0.686609 29.249C2.07504 29.249 3.20312 30.3772 3.20312 31.7658C3.20312 33.1544 2.07504 34.2826 0.686609 34.2826Z" fill="#E83E36" fill-opacity="0.2"/>
<path d="M61.4366 34.2826C60.0482 34.2826 58.9201 33.1544 58.9201 31.7658C58.9201 30.3772 60.0482 29.249 61.4366 29.249C62.825 29.249 63.9531 30.3772 63.9531 31.7658C63.9531 33.1544 62.825 34.2826 61.4366 34.2826Z" fill="#E83E36" fill-opacity="0.2"/>
<path d="M111.265 34.2826C109.876 34.2826 108.748 33.1544 108.748 31.7658C108.748 30.3772 109.876 29.249 111.265 29.249C112.653 29.249 113.781 30.3772 113.781 31.7658C113.781 33.1544 112.653 34.2826 111.265 34.2826Z" fill="#E83E36" fill-opacity="0.2"/>
<path d="M51.2647 34.2826C49.8763 34.2826 48.7482 33.1544 48.7482 31.7658C48.7482 30.3772 49.8763 29.249 51.2647 29.249C52.6531 29.249 53.7812 30.3772 53.7812 31.7658C53.7812 33.1544 52.6531 34.2826 51.2647 34.2826Z" fill="#E83E36" fill-opacity="0.2"/>
<path d="M172.015 34.2826C170.626 34.2826 169.498 33.1544 169.498 31.7658C169.498 30.3772 170.626 29.249 172.015 29.249C173.403 29.249 174.531 30.3772 174.531 31.7658C174.531 33.1544 173.403 34.2826 172.015 34.2826Z" fill="#E83E36" fill-opacity="0.2"/>
<path d="M41.3897 44.4574C40.0013 44.4574 38.8732 43.3292 38.8732 41.9406C38.8732 40.5521 40.0013 39.4238 41.3897 39.4238C42.7781 39.4238 43.9062 40.5521 43.9062 41.9406C43.9062 43.3292 42.7781 44.4574 41.3897 44.4574Z" fill="#E83E36" fill-opacity="0.2"/>
<path d="M102.14 44.4574C100.751 44.4574 99.6232 43.3292 99.6232 41.9406C99.6232 40.5521 100.751 39.4238 102.14 39.4238C103.528 39.4238 104.656 40.5521 104.656 41.9406C104.656 43.3292 103.528 44.4574 102.14 44.4574Z" fill="#E83E36" fill-opacity="0.2"/>
<path d="M222.89 44.7826C221.501 44.7826 220.373 43.6544 220.373 42.2658C220.373 40.8772 221.501 39.749 222.89 39.749C224.278 39.749 225.406 40.8772 225.406 42.2658C225.406 43.6544 224.278 44.7826 222.89 44.7826Z" fill="#E83E36" fill-opacity="0.2"/>
<path d="M251.39 44.4574C250.001 44.4574 248.873 43.3292 248.873 41.9406C248.873 40.5521 250.001 39.4238 251.39 39.4238C252.778 39.4238 253.906 40.5521 253.906 41.9406C253.906 43.3292 252.778 44.4574 251.39 44.4574Z" fill="#E83E36" fill-opacity="0.2"/>
<path d="M31.2179 44.4574C29.8294 44.4574 28.7013 43.3292 28.7013 41.9406C28.7013 40.5521 29.8294 39.4238 31.2179 39.4238C32.6063 39.4238 33.7344 40.5521 33.7344 41.9406C33.7344 43.3292 32.6063 44.4574 31.2179 44.4574Z" fill="#E83E36" fill-opacity="0.2"/>
<path d="M151.968 44.4574C150.579 44.4574 149.451 43.3292 149.451 41.9406C149.451 40.5521 150.579 39.4238 151.968 39.4238C153.356 39.4238 154.484 40.5521 154.484 41.9406C154.484 43.3292 153.356 44.4574 151.968 44.4574Z" fill="#E83E36" fill-opacity="0.2"/>
<path d="M260.718 44.7826C259.329 44.7826 258.201 43.6544 258.201 42.2658C258.201 40.8772 259.329 39.749 260.718 39.749C262.106 39.749 263.234 40.8772 263.234 42.2658C263.234 43.6544 262.106 44.7826 260.718 44.7826Z" fill="#E83E36" fill-opacity="0.2"/>
<path d="M280.968 44.7826C279.579 44.7826 278.451 43.6544 278.451 42.2658C278.451 40.8772 279.579 39.749 280.968 39.749C282.356 39.749 283.484 40.8772 283.484 42.2658C283.484 43.6544 282.356 44.7826 280.968 44.7826Z" fill="#E83E36" fill-opacity="0.2"/>
<path d="M21.046 44.4574C19.6575 44.4574 18.5294 43.3292 18.5294 41.9406C18.5294 40.5521 19.6575 39.4238 21.046 39.4238C22.4344 39.4238 23.5625 40.5521 23.5625 41.9406C23.5625 43.3292 22.4344 44.4574 21.046 44.4574Z" fill="#E83E36" fill-opacity="0.2"/>
<path d="M141.796 44.4574C140.408 44.4574 139.279 43.3292 139.279 41.9406C139.279 40.5521 140.408 39.4238 141.796 39.4238C143.184 39.4238 144.312 40.5521 144.312 41.9406C144.312 43.3292 143.184 44.4574 141.796 44.4574Z" fill="#E83E36" fill-opacity="0.2"/>
<path d="M81.796 44.4574C80.4075 44.4574 79.2794 43.3292 79.2794 41.9406C79.2794 40.5521 80.4075 39.4238 81.796 39.4238C83.1844 39.4238 84.3125 40.5521 84.3125 41.9406C84.3125 43.3292 83.1844 44.4574 81.796 44.4574Z" fill="#E83E36" fill-opacity="0.2"/>
<path d="M202.546 44.4574C201.158 44.4574 200.029 43.3292 200.029 41.9406C200.029 40.5521 201.158 39.4238 202.546 39.4238C203.934 39.4238 205.062 40.5521 205.062 41.9406C205.062 43.3292 203.934 44.4574 202.546 44.4574Z" fill="#E83E36" fill-opacity="0.2"/>
<path d="M231.046 44.4574C229.658 44.4574 228.529 43.3292 228.529 41.9406C228.529 40.5521 229.658 39.4238 231.046 39.4238C232.434 39.4238 233.562 40.5521 233.562 41.9406C233.562 43.3292 232.434 44.4574 231.046 44.4574Z" fill="#E83E36" fill-opacity="0.2"/>
<path d="M10.8585 44.4574C9.47002 44.4574 8.34194 43.3292 8.34194 41.9406C8.34194 40.5521 9.47002 39.4238 10.8585 39.4238C12.2469 39.4238 13.375 40.5521 13.375 41.9406C13.375 43.3292 12.2469 44.4574 10.8585 44.4574Z" fill="#E83E36" fill-opacity="0.2"/>
<path d="M131.608 44.4574C130.22 44.4574 129.092 43.3292 129.092 41.9406C129.092 40.5521 130.22 39.4238 131.608 39.4238C132.997 39.4238 134.125 40.5521 134.125 41.9406C134.125 43.3292 132.997 44.4574 131.608 44.4574Z" fill="#E83E36" fill-opacity="0.2"/>
<path d="M71.6085 44.4574C70.22 44.4574 69.0919 43.3292 69.0919 41.9406C69.0919 40.5521 70.22 39.4238 71.6085 39.4238C72.9969 39.4238 74.125 40.5521 74.125 41.9406C74.125 43.3292 72.9969 44.4574 71.6085 44.4574Z" fill="#E83E36" fill-opacity="0.2"/>
<path d="M0.686609 44.4574C-0.701822 44.4574 -1.82994 43.3292 -1.82994 41.9406C-1.82994 40.5521 -0.701822 39.4238 0.686609 39.4238C2.07504 39.4238 3.20312 40.5521 3.20312 41.9406C3.20312 43.3292 2.07504 44.4574 0.686609 44.4574Z" fill="#E83E36" fill-opacity="0.2"/>
<path d="M61.4366 44.4574C60.0482 44.4574 58.9201 43.3292 58.9201 41.9406C58.9201 40.5521 60.0482 39.4238 61.4366 39.4238C62.825 39.4238 63.9531 40.5521 63.9531 41.9406C63.9531 43.3292 62.825 44.4574 61.4366 44.4574Z" fill="#E83E36" fill-opacity="0.2"/>
<path d="M182.187 44.4574C180.798 44.4574 179.67 43.3292 179.67 41.9406C179.67 40.5521 180.798 39.4238 182.187 39.4238C183.575 39.4238 184.703 40.5521 184.703 41.9406C184.703 43.3292 183.575 44.4574 182.187 44.4574Z" fill="#E83E36" fill-opacity="0.2"/>
<path d="M111.265 44.4574C109.876 44.4574 108.748 43.3292 108.748 41.9406C108.748 40.5521 109.876 39.4238 111.265 39.4238C112.653 39.4238 113.781 40.5521 113.781 41.9406C113.781 43.3292 112.653 44.4574 111.265 44.4574Z" fill="#E83E36" fill-opacity="0.2"/>
<path d="M172.015 44.4574C170.626 44.4574 169.498 43.3292 169.498 41.9406C169.498 40.5521 170.626 39.4238 172.015 39.4238C173.403 39.4238 174.531 40.5521 174.531 41.9406C174.531 43.3292 173.403 44.4574 172.015 44.4574Z" fill="#E83E36" fill-opacity="0.2"/>
<path d="M41.3897 54.6298C40.0013 54.6298 38.8732 53.5016 38.8732 52.113C38.8732 50.7244 40.0013 49.5962 41.3897 49.5962C42.7781 49.5962 43.9062 50.7244 43.9062 52.113C43.9062 53.5016 42.7781 54.6298 41.3897 54.6298Z" fill="#E83E36" fill-opacity="0.2"/>
<path d="M102.14 54.6298C100.751 54.6298 99.6232 53.5016 99.6232 52.113C99.6232 50.7244 100.751 49.5962 102.14 49.5962C103.528 49.5962 104.656 50.7244 104.656 52.113C104.656 53.5016 103.528 54.6298 102.14 54.6298Z" fill="#E83E36" fill-opacity="0.2"/>
<path d="M222.89 54.9555C221.501 54.9555 220.373 53.8273 220.373 52.4387C220.373 51.0501 221.501 49.9219 222.89 49.9219C224.278 49.9219 225.406 51.0501 225.406 52.4387C225.406 53.8273 224.278 54.9555 222.89 54.9555Z" fill="#E83E36" fill-opacity="0.2"/>
<path d="M270.89 54.9555C269.501 54.9555 268.373 53.8273 268.373 52.4387C268.373 51.0501 269.501 49.9219 270.89 49.9219C272.278 49.9219 273.406 51.0501 273.406 52.4387C273.406 53.8273 272.278 54.9555 270.89 54.9555Z" fill="#E83E36" fill-opacity="0.2"/>
<path d="M291.14 54.9555C289.751 54.9555 288.623 53.8273 288.623 52.4387C288.623 51.0501 289.751 49.9219 291.14 49.9219C292.528 49.9219 293.656 51.0501 293.656 52.4387C293.656 53.8273 292.528 54.9555 291.14 54.9555Z" fill="#E83E36" fill-opacity="0.2"/>
<path d="M31.2179 54.6298C29.8294 54.6298 28.7013 53.5016 28.7013 52.113C28.7013 50.7244 29.8294 49.5962 31.2179 49.5962C32.6063 49.5962 33.7344 50.7244 33.7344 52.113C33.7344 53.5016 32.6063 54.6298 31.2179 54.6298Z" fill="#E83E36" fill-opacity="0.2"/>
<path d="M151.968 54.6298C150.579 54.6298 149.451 53.5016 149.451 52.113C149.451 50.7244 150.579 49.5962 151.968 49.5962C153.356 49.5962 154.484 50.7244 154.484 52.113C154.484 53.5016 153.356 54.6298 151.968 54.6298Z" fill="#E83E36" fill-opacity="0.2"/>
<path d="M91.9679 54.6298C90.5794 54.6298 89.4513 53.5016 89.4513 52.113C89.4513 50.7244 90.5794 49.5962 91.9679 49.5962C93.3563 49.5962 94.4844 50.7244 94.4844 52.113C94.4844 53.5016 93.3563 54.6298 91.9679 54.6298Z" fill="#E83E36" fill-opacity="0.2"/>
<path d="M241.218 54.6298C239.829 54.6298 238.701 53.5016 238.701 52.113C238.701 50.7244 239.829 49.5962 241.218 49.5962C242.606 49.5962 243.734 50.7244 243.734 52.113C243.734 53.5016 242.606 54.6298 241.218 54.6298Z" fill="#E83E36" fill-opacity="0.2"/>
<path d="M21.046 54.6298C19.6575 54.6298 18.5294 53.5016 18.5294 52.113C18.5294 50.7244 19.6575 49.5962 21.046 49.5962C22.4344 49.5962 23.5625 50.7244 23.5625 52.113C23.5625 53.5016 22.4344 54.6298 21.046 54.6298Z" fill="#E83E36" fill-opacity="0.2"/>
<path d="M81.796 54.6298C80.4075 54.6298 79.2794 53.5016 79.2794 52.113C79.2794 50.7244 80.4075 49.5962 81.796 49.5962C83.1844 49.5962 84.3125 50.7244 84.3125 52.113C84.3125 53.5016 83.1844 54.6298 81.796 54.6298Z" fill="#E83E36" fill-opacity="0.2"/>
<path d="M202.546 54.6298C201.158 54.6298 200.029 53.5016 200.029 52.113C200.029 50.7244 201.158 49.5962 202.546 49.5962C203.934 49.5962 205.062 50.7244 205.062 52.113C205.062 53.5016 203.934 54.6298 202.546 54.6298Z" fill="#E83E36" fill-opacity="0.2"/>
<path d="M131.608 54.6298C130.22 54.6298 129.092 53.5016 129.092 52.113C129.092 50.7244 130.22 49.5962 131.608 49.5962C132.997 49.5962 134.125 50.7244 134.125 52.113C134.125 53.5016 132.997 54.6298 131.608 54.6298Z" fill="#E83E36" fill-opacity="0.2"/>
<path d="M71.6085 54.6298C70.22 54.6298 69.0919 53.5016 69.0919 52.113C69.0919 50.7244 70.22 49.5962 71.6085 49.5962C72.9969 49.5962 74.125 50.7244 74.125 52.113C74.125 53.5016 72.9969 54.6298 71.6085 54.6298Z" fill="#E83E36" fill-opacity="0.2"/>
<path d="M192.358 54.6298C190.97 54.6298 189.842 53.5016 189.842 52.113C189.842 50.7244 190.97 49.5962 192.358 49.5962C193.747 49.5962 194.875 50.7244 194.875 52.113C194.875 53.5016 193.747 54.6298 192.358 54.6298Z" fill="#E83E36" fill-opacity="0.2"/>
<path d="M0.686609 54.6298C-0.701822 54.6298 -1.82994 53.5016 -1.82994 52.113C-1.82994 50.7244 -0.701822 49.5962 0.686609 49.5962C2.07504 49.5962 3.20312 50.7244 3.20312 52.113C3.20312 53.5016 2.07504 54.6298 0.686609 54.6298Z" fill="#E83E36" fill-opacity="0.2"/>
<path d="M121.437 54.6298C120.048 54.6298 118.92 53.5016 118.92 52.113C118.92 50.7244 120.048 49.5962 121.437 49.5962C122.825 49.5962 123.953 50.7244 123.953 52.113C123.953 53.5016 122.825 54.6298 121.437 54.6298Z" fill="#E83E36" fill-opacity="0.2"/>
<path d="M111.265 54.6298C109.876 54.6298 108.748 53.5016 108.748 52.113C108.748 50.7244 109.876 49.5962 111.265 49.5962C112.653 49.5962 113.781 50.7244 113.781 52.113C113.781 53.5016 112.653 54.6298 111.265 54.6298Z" fill="#E83E36" fill-opacity="0.2"/>
<path d="M51.2647 54.6298C49.8763 54.6298 48.7482 53.5016 48.7482 52.113C48.7482 50.7244 49.8763 49.5962 51.2647 49.5962C52.6531 49.5962 53.7812 50.7244 53.7812 52.113C53.7812 53.5016 52.6531 54.6298 51.2647 54.6298Z" fill="#E83E36" fill-opacity="0.2"/>
<path d="M172.015 54.6298C170.626 54.6298 169.498 53.5016 169.498 52.113C169.498 50.7244 170.626 49.5962 172.015 49.5962C173.403 49.5962 174.531 50.7244 174.531 52.113C174.531 53.5016 173.403 54.6298 172.015 54.6298Z" fill="#E83E36" fill-opacity="0.2"/>
<path d="M41.3897 64.8027C40.0013 64.8027 38.8732 63.6744 38.8732 62.2859C38.8732 60.8973 40.0013 59.769 41.3897 59.769C42.7781 59.769 43.9062 60.8973 43.9062 62.2859C43.9062 63.6744 42.7781 64.8027 41.3897 64.8027Z" fill="#E83E36" fill-opacity="0.2"/>
<path d="M162.14 64.8027C160.751 64.8027 159.623 63.6744 159.623 62.2859C159.623 60.8973 160.751 59.769 162.14 59.769C163.528 59.769 164.656 60.8973 164.656 62.2859C164.656 63.6744 163.528 64.8027 162.14 64.8027Z" fill="#E83E36" fill-opacity="0.2"/>
<path d="M102.14 64.8027C100.751 64.8027 99.6232 63.6744 99.6232 62.2859C99.6232 60.8973 100.751 59.769 102.14 59.769C103.528 59.769 104.656 60.8973 104.656 62.2859C104.656 63.6744 103.528 64.8027 102.14 64.8027Z" fill="#E83E36" fill-opacity="0.2"/>
<path d="M222.89 64.8027C221.501 64.8027 220.373 63.6744 220.373 62.2859C220.373 60.8973 221.501 59.769 222.89 59.769C224.278 59.769 225.406 60.8973 225.406 62.2859C225.406 63.6744 224.278 64.8027 222.89 64.8027Z" fill="#E83E36" fill-opacity="0.2"/>
<path d="M31.2179 64.8027C29.8294 64.8027 28.7013 63.6744 28.7013 62.2859C28.7013 60.8973 29.8294 59.769 31.2179 59.769C32.6063 59.769 33.7344 60.8973 33.7344 62.2859C33.7344 63.6744 32.6063 64.8027 31.2179 64.8027Z" fill="#E83E36" fill-opacity="0.2"/>
<path d="M151.968 64.8027C150.579 64.8027 149.451 63.6744 149.451 62.2859C149.451 60.8973 150.579 59.769 151.968 59.769C153.356 59.769 154.484 60.8973 154.484 62.2859C154.484 63.6744 153.356 64.8027 151.968 64.8027Z" fill="#E83E36" fill-opacity="0.2"/>
<path d="M91.9679 64.8027C90.5794 64.8027 89.4513 63.6744 89.4513 62.2859C89.4513 60.8973 90.5794 59.769 91.9679 59.769C93.3563 59.769 94.4844 60.8973 94.4844 62.2859C94.4844 63.6744 93.3563 64.8027 91.9679 64.8027Z" fill="#E83E36" fill-opacity="0.2"/>
<path d="M212.718 64.8027C211.329 64.8027 210.201 63.6744 210.201 62.2859C210.201 60.8973 211.329 59.769 212.718 59.769C214.106 59.769 215.234 60.8973 215.234 62.2859C215.234 63.6744 214.106 64.8027 212.718 64.8027Z" fill="#E83E36" fill-opacity="0.2"/>
<path d="M241.218 64.8027C239.829 64.8027 238.701 63.6744 238.701 62.2859C238.701 60.8973 239.829 59.769 241.218 59.769C242.606 59.769 243.734 60.8973 243.734 62.2859C243.734 63.6744 242.606 64.8027 241.218 64.8027Z" fill="#E83E36" fill-opacity="0.2"/>
<path d="M141.796 64.8027C140.408 64.8027 139.279 63.6744 139.279 62.2859C139.279 60.8973 140.408 59.769 141.796 59.769C143.184 59.769 144.312 60.8973 144.312 62.2859C144.312 63.6744 143.184 64.8027 141.796 64.8027Z" fill="#E83E36" fill-opacity="0.2"/>
<path d="M81.796 64.8027C80.4075 64.8027 79.2794 63.6744 79.2794 62.2859C79.2794 60.8973 80.4075 59.769 81.796 59.769C83.1844 59.769 84.3125 60.8973 84.3125 62.2859C84.3125 63.6744 83.1844 64.8027 81.796 64.8027Z" fill="#E83E36" fill-opacity="0.2"/>
<path d="M10.8585 64.8027C9.47002 64.8027 8.34194 63.6744 8.34194 62.2859C8.34194 60.8973 9.47002 59.769 10.8585 59.769C12.2469 59.769 13.375 60.8973 13.375 62.2859C13.375 63.6744 12.2469 64.8027 10.8585 64.8027Z" fill="#E83E36" fill-opacity="0.2"/>
<path d="M71.6085 64.8027C70.22 64.8027 69.0919 63.6744 69.0919 62.2859C69.0919 60.8973 70.22 59.769 71.6085 59.769C72.9969 59.769 74.125 60.8973 74.125 62.2859C74.125 63.6744 72.9969 64.8027 71.6085 64.8027Z" fill="#E83E36" fill-opacity="0.2"/>
<path d="M0.686609 64.8027C-0.701822 64.8027 -1.82994 63.6744 -1.82994 62.2859C-1.82994 60.8973 -0.701822 59.769 0.686609 59.769C2.07504 59.769 3.20312 60.8973 3.20312 62.2859C3.20312 63.6744 2.07504 64.8027 0.686609 64.8027Z" fill="#E83E36" fill-opacity="0.2"/>
<path d="M182.187 64.8027C180.798 64.8027 179.67 63.6744 179.67 62.2859C179.67 60.8973 180.798 59.769 182.187 59.769C183.575 59.769 184.703 60.8973 184.703 62.2859C184.703 63.6744 183.575 64.8027 182.187 64.8027Z" fill="#E83E36" fill-opacity="0.2"/>
<path d="M111.265 64.8027C109.876 64.8027 108.748 63.6744 108.748 62.2859C108.748 60.8973 109.876 59.769 111.265 59.769C112.653 59.769 113.781 60.8973 113.781 62.2859C113.781 63.6744 112.653 64.8027 111.265 64.8027Z" fill="#E83E36" fill-opacity="0.2"/>
<path d="M172.015 64.8027C170.626 64.8027 169.498 63.6744 169.498 62.2859C169.498 60.8973 170.626 59.769 172.015 59.769C173.403 59.769 174.531 60.8973 174.531 62.2859C174.531 63.6744 173.403 64.8027 172.015 64.8027Z" fill="#E83E36" fill-opacity="0.2"/>
<path d="M41.3897 3.73772C40.0013 3.73772 38.8732 2.6095 38.8732 1.22091C38.8732 -0.167673 40.0013 -1.2959 41.3897 -1.2959C42.7781 -1.2959 43.9062 -0.167673 43.9062 1.22091C43.9062 2.6095 42.7781 3.73772 41.3897 3.73772Z" fill="#E83E36" fill-opacity="0.2"/>
<path d="M41.3897 74.9867C40.0013 74.9867 38.8732 73.8585 38.8732 72.4699C38.8732 71.0814 40.0013 69.9531 41.3897 69.9531C42.7781 69.9531 43.9062 71.0814 43.9062 72.4699C43.9062 73.8585 42.7781 74.9867 41.3897 74.9867Z" fill="#E83E36" fill-opacity="0.2"/>
<path d="M162.14 3.73772C160.751 3.73772 159.623 2.6095 159.623 1.22091C159.623 -0.167673 160.751 -1.2959 162.14 -1.2959C163.528 -1.2959 164.656 -0.167673 164.656 1.22091C164.656 2.6095 163.528 3.73772 162.14 3.73772Z" fill="#E83E36" fill-opacity="0.2"/>
<path d="M162.14 74.9867C160.751 74.9867 159.623 73.8585 159.623 72.4699C159.623 71.0814 160.751 69.9531 162.14 69.9531C163.528 69.9531 164.656 71.0814 164.656 72.4699C164.656 73.8585 163.528 74.9867 162.14 74.9867Z" fill="#E83E36" fill-opacity="0.2"/>
<path d="M102.14 3.73772C100.751 3.73772 99.6232 2.6095 99.6232 1.22091C99.6232 -0.167673 100.751 -1.2959 102.14 -1.2959C103.528 -1.2959 104.656 -0.167673 104.656 1.22091C104.656 2.6095 103.528 3.73772 102.14 3.73772Z" fill="#E83E36" fill-opacity="0.2"/>
<path d="M102.14 74.9867C100.751 74.9867 99.6232 73.8585 99.6232 72.4699C99.6232 71.0814 100.751 69.9531 102.14 69.9531C103.528 69.9531 104.656 71.0814 104.656 72.4699C104.656 73.8585 103.528 74.9867 102.14 74.9867Z" fill="#E83E36" fill-opacity="0.2"/>
<path d="M222.89 74.9867C221.501 74.9867 220.373 73.8585 220.373 72.4699C220.373 71.0814 221.501 69.9531 222.89 69.9531C224.278 69.9531 225.406 71.0814 225.406 72.4699C225.406 73.8585 224.278 74.9867 222.89 74.9867Z" fill="#E83E36" fill-opacity="0.2"/>
<path d="M31.2179 3.72698C29.828 3.72698 28.7013 2.60017 28.7013 1.21017C28.7013 -0.179826 29.828 -1.30664 31.2179 -1.30664C32.6077 -1.30664 33.7344 -0.179826 33.7344 1.21017C33.7344 2.60017 32.6077 3.72698 31.2179 3.72698Z" fill="#E83E36" fill-opacity="0.2"/>
<path d="M151.968 3.72698C150.578 3.72698 149.451 2.60017 149.451 1.21017C149.451 -0.179826 150.578 -1.30664 151.968 -1.30664C153.358 -1.30664 154.484 -0.179826 154.484 1.21017C154.484 2.60017 153.358 3.72698 151.968 3.72698Z" fill="#E83E36" fill-opacity="0.2"/>
<path d="M91.9679 3.72698C90.578 3.72698 89.4513 2.60017 89.4513 1.21017C89.4513 -0.179826 90.578 -1.30664 91.9679 -1.30664C93.3577 -1.30664 94.4844 -0.179826 94.4844 1.21017C94.4844 2.60017 93.3577 3.72698 91.9679 3.72698Z" fill="#E83E36" fill-opacity="0.2"/>
<path d="M91.9679 74.9762C90.578 74.9762 89.4513 73.8494 89.4513 72.4594C89.4513 71.0694 90.578 69.9426 91.9679 69.9426C93.3577 69.9426 94.4844 71.0694 94.4844 72.4594C94.4844 73.8494 93.3577 74.9762 91.9679 74.9762Z" fill="#E83E36" fill-opacity="0.2"/>
<path d="M212.718 3.72698C211.328 3.72698 210.201 2.60017 210.201 1.21017C210.201 -0.179826 211.328 -1.30664 212.718 -1.30664C214.108 -1.30664 215.234 -0.179826 215.234 1.21017C215.234 2.60017 214.108 3.72698 212.718 3.72698Z" fill="#E83E36" fill-opacity="0.2"/>
<path d="M18.5302 72.467C18.5264 71.077 19.6499 69.947 21.0397 69.9432C22.4296 69.9393 23.5594 71.0629 23.5633 72.4529C23.5672 73.8429 22.4436 74.9729 21.0538 74.9768C19.664 74.9806 18.5341 73.857 18.5302 72.467Z" fill="#E83E36" fill-opacity="0.2"/>
<path d="M139.28 1.21794C139.276 -0.172046 140.4 -1.30199 141.79 -1.30587C143.18 -1.30975 144.309 -0.186103 144.313 1.20389C144.317 2.59388 143.194 3.72385 141.804 3.72773C140.414 3.73161 139.284 2.60793 139.28 1.21794Z" fill="#E83E36" fill-opacity="0.2"/>
<path d="M139.28 72.467C139.276 71.077 140.4 69.947 141.79 69.9432C143.18 69.9393 144.309 71.0629 144.313 72.4529C144.317 73.8429 143.194 74.9729 141.804 74.9768C140.414 74.9806 139.284 73.857 139.28 72.467Z" fill="#E83E36" fill-opacity="0.2"/>
<path d="M79.2802 1.21794C79.2764 -0.172046 80.3999 -1.30199 81.7897 -1.30587C83.1796 -1.30975 84.3094 -0.186103 84.3133 1.20389C84.3172 2.59388 83.1936 3.72385 81.8038 3.72773C80.414 3.73161 79.2841 2.60793 79.2802 1.21794Z" fill="#E83E36" fill-opacity="0.2"/>
<path d="M79.2802 72.467C79.2764 71.077 80.3999 69.947 81.7897 69.9432C83.1796 69.9393 84.3094 71.0629 84.3133 72.4529C84.3172 73.8429 83.1936 74.9729 81.8038 74.9768C80.414 74.9806 79.2841 73.857 79.2802 72.467Z" fill="#E83E36" fill-opacity="0.2"/>
<path d="M200.03 72.467C200.026 71.077 201.15 69.947 202.54 69.9432C203.93 69.9393 205.059 71.0629 205.063 72.4529C205.067 73.8429 203.944 74.9729 202.554 74.9768C201.164 74.9806 200.034 73.857 200.03 72.467Z" fill="#E83E36" fill-opacity="0.2"/>
<path d="M10.8585 3.73772C9.47002 3.73772 8.34194 2.6095 8.34194 1.22091C8.34194 -0.167673 9.47002 -1.2959 10.8585 -1.2959C12.2469 -1.2959 13.375 -0.167673 13.375 1.22091C13.375 2.6095 12.2469 3.73772 10.8585 3.73772Z" fill="#E83E36" fill-opacity="0.2"/>
<path d="M10.8585 74.9867C9.47002 74.9867 8.34194 73.8585 8.34194 72.4699C8.34194 71.0814 9.47002 69.9531 10.8585 69.9531C12.2469 69.9531 13.375 71.0814 13.375 72.4699C13.375 73.8585 12.2469 74.9867 10.8585 74.9867Z" fill="#E83E36" fill-opacity="0.2"/>
<path d="M131.608 3.73772C130.22 3.73772 129.092 2.6095 129.092 1.22091C129.092 -0.167673 130.22 -1.2959 131.608 -1.2959C132.997 -1.2959 134.125 -0.167673 134.125 1.22091C134.125 2.6095 132.997 3.73772 131.608 3.73772Z" fill="#E83E36" fill-opacity="0.2"/>
<path d="M131.608 74.9867C130.22 74.9867 129.092 73.8585 129.092 72.4699C129.092 71.0814 130.22 69.9531 131.608 69.9531C132.997 69.9531 134.125 71.0814 134.125 72.4699C134.125 73.8585 132.997 74.9867 131.608 74.9867Z" fill="#E83E36" fill-opacity="0.2"/>
<path d="M71.6085 3.73772C70.22 3.73772 69.0919 2.6095 69.0919 1.22091C69.0919 -0.167673 70.22 -1.2959 71.6085 -1.2959C72.9969 -1.2959 74.125 -0.167673 74.125 1.22091C74.125 2.6095 72.9969 3.73772 71.6085 3.73772Z" fill="#E83E36" fill-opacity="0.2"/>
<path d="M0.686609 3.72698C-0.703232 3.72698 -1.82994 2.60017 -1.82994 1.21017C-1.82994 -0.179826 -0.703232 -1.30664 0.686609 -1.30664C2.07645 -1.30664 3.20312 -0.179826 3.20312 1.21017C3.20312 2.60017 2.07645 3.72698 0.686609 3.72698Z" fill="#E83E36" fill-opacity="0.2"/>
<path d="M121.437 3.72698C120.047 3.72698 118.92 2.60017 118.92 1.21017C118.92 -0.179826 120.047 -1.30664 121.437 -1.30664C122.826 -1.30664 123.953 -0.179826 123.953 1.21017C123.953 2.60017 122.826 3.72698 121.437 3.72698Z" fill="#E83E36" fill-opacity="0.2"/>
<path d="M61.4366 3.72698C60.0468 3.72698 58.9201 2.60017 58.9201 1.21017C58.9201 -0.179826 60.0468 -1.30664 61.4366 -1.30664C62.8265 -1.30664 63.9531 -0.179826 63.9531 1.21017C63.9531 2.60017 62.8265 3.72698 61.4366 3.72698Z" fill="#E83E36" fill-opacity="0.2"/>
<path d="M182.187 3.72698C180.797 3.72698 179.67 2.60017 179.67 1.21017C179.67 -0.179826 180.797 -1.30664 182.187 -1.30664C183.576 -1.30664 184.703 -0.179826 184.703 1.21017C184.703 2.60017 183.576 3.72698 182.187 3.72698Z" fill="#E83E36" fill-opacity="0.2"/>
<path d="M111.265 3.73772C109.876 3.73772 108.748 2.6095 108.748 1.22091C108.748 -0.167673 109.876 -1.2959 111.265 -1.2959C112.653 -1.2959 113.781 -0.167673 113.781 1.22091C113.781 2.6095 112.653 3.73772 111.265 3.73772Z" fill="#E83E36" fill-opacity="0.2"/>
<path d="M51.2647 3.73772C49.8763 3.73772 48.7482 2.6095 48.7482 1.22091C48.7482 -0.167673 49.8763 -1.2959 51.2647 -1.2959C52.6531 -1.2959 53.7812 -0.167673 53.7812 1.22091C53.7812 2.6095 52.6531 3.73772 51.2647 3.73772Z" fill="#E83E36" fill-opacity="0.2"/>
<path d="M41.3897 13.9106C40.0013 13.9106 38.8732 12.7823 38.8732 11.3938C38.8732 10.0052 40.0013 8.87695 41.3897 8.87695C42.7781 8.87695 43.9062 10.0052 43.9062 11.3938C43.9062 12.7823 42.7781 13.9106 41.3897 13.9106Z" fill="#E83E36" fill-opacity="0.2"/>
<path d="M162.14 13.9106C160.751 13.9106 159.623 12.7823 159.623 11.3938C159.623 10.0052 160.751 8.87695 162.14 8.87695C163.528 8.87695 164.656 10.0052 164.656 11.3938C164.656 12.7823 163.528 13.9106 162.14 13.9106Z" fill="#E83E36" fill-opacity="0.2"/>
<path d="M102.14 13.9106C100.751 13.9106 99.6232 12.7823 99.6232 11.3938C99.6232 10.0052 100.751 8.87695 102.14 8.87695C103.528 8.87695 104.656 10.0052 104.656 11.3938C104.656 12.7823 103.528 13.9106 102.14 13.9106Z" fill="#E83E36" fill-opacity="0.2"/>
<path d="M222.89 13.9106C221.501 13.9106 220.373 12.7823 220.373 11.3938C220.373 10.0052 221.501 8.87695 222.89 8.87695C224.278 8.87695 225.406 10.0052 225.406 11.3938C225.406 12.7823 224.278 13.9106 222.89 13.9106Z" fill="#E83E36" fill-opacity="0.2"/>
<path d="M222.89 85.1596C221.501 85.1596 220.373 84.0314 220.373 82.6428C220.373 81.2542 221.501 80.126 222.89 80.126C224.278 80.126 225.406 81.2542 225.406 82.6428C225.406 84.0314 224.278 85.1596 222.89 85.1596Z" fill="#E83E36" fill-opacity="0.2"/>
<path d="M31.2179 13.9106C29.8294 13.9106 28.7013 12.7823 28.7013 11.3938C28.7013 10.0052 29.8294 8.87695 31.2179 8.87695C32.6063 8.87695 33.7344 10.0052 33.7344 11.3938C33.7344 12.7823 32.6063 13.9106 31.2179 13.9106Z" fill="#E83E36" fill-opacity="0.2"/>
<path d="M31.2179 85.1596C29.8294 85.1596 28.7013 84.0314 28.7013 82.6428C28.7013 81.2542 29.8294 80.126 31.2179 80.126C32.6063 80.126 33.7344 81.2542 33.7344 82.6428C33.7344 84.0314 32.6063 85.1596 31.2179 85.1596Z" fill="#E83E36" fill-opacity="0.2"/>
<path d="M151.968 13.9106C150.579 13.9106 149.451 12.7823 149.451 11.3938C149.451 10.0052 150.579 8.87695 151.968 8.87695C153.356 8.87695 154.484 10.0052 154.484 11.3938C154.484 12.7823 153.356 13.9106 151.968 13.9106Z" fill="#E83E36" fill-opacity="0.2"/>
<path d="M91.9679 13.9106C90.5794 13.9106 89.4513 12.7823 89.4513 11.3938C89.4513 10.0052 90.5794 8.87695 91.9679 8.87695C93.3563 8.87695 94.4844 10.0052 94.4844 11.3938C94.4844 12.7823 93.3563 13.9106 91.9679 13.9106Z" fill="#E83E36" fill-opacity="0.2"/>
<path d="M21.046 13.9106C19.6575 13.9106 18.5294 12.7823 18.5294 11.3938C18.5294 10.0052 19.6575 8.87695 21.046 8.87695C22.4344 8.87695 23.5625 10.0052 23.5625 11.3938C23.5625 12.7823 22.4344 13.9106 21.046 13.9106Z" fill="#E83E36" fill-opacity="0.2"/>
<path d="M141.796 85.1596C140.408 85.1596 139.279 84.0314 139.279 82.6428C139.279 81.2542 140.408 80.126 141.796 80.126C143.184 80.126 144.312 81.2542 144.312 82.6428C144.312 84.0314 143.184 85.1596 141.796 85.1596Z" fill="#E83E36" fill-opacity="0.2"/>
<path d="M81.796 13.9106C80.4075 13.9106 79.2794 12.7823 79.2794 11.3938C79.2794 10.0052 80.4075 8.87695 81.796 8.87695C83.1844 8.87695 84.3125 10.0052 84.3125 11.3938C84.3125 12.7823 83.1844 13.9106 81.796 13.9106Z" fill="#E83E36" fill-opacity="0.2"/>
<path d="M202.546 13.9106C201.158 13.9106 200.029 12.7823 200.029 11.3938C200.029 10.0052 201.158 8.87695 202.546 8.87695C203.934 8.87695 205.062 10.0052 205.062 11.3938C205.062 12.7823 203.934 13.9106 202.546 13.9106Z" fill="#E83E36" fill-opacity="0.2"/>
<path d="M202.546 85.1596C201.158 85.1596 200.029 84.0314 200.029 82.6428C200.029 81.2542 201.158 80.126 202.546 80.126C203.934 80.126 205.062 81.2542 205.062 82.6428C205.062 84.0314 203.934 85.1596 202.546 85.1596Z" fill="#E83E36" fill-opacity="0.2"/>
<path d="M10.8585 13.9106C9.47002 13.9106 8.34194 12.7823 8.34194 11.3938C8.34194 10.0052 9.47002 8.87695 10.8585 8.87695C12.2469 8.87695 13.375 10.0052 13.375 11.3938C13.375 12.7823 12.2469 13.9106 10.8585 13.9106Z" fill="#E83E36" fill-opacity="0.2"/>
<path d="M131.608 13.9106C130.22 13.9106 129.092 12.7823 129.092 11.3938C129.092 10.0052 130.22 8.87695 131.608 8.87695C132.997 8.87695 134.125 10.0052 134.125 11.3938C134.125 12.7823 132.997 13.9106 131.608 13.9106Z" fill="#E83E36" fill-opacity="0.2"/>
<path d="M71.6085 13.9106C70.22 13.9106 69.0919 12.7823 69.0919 11.3938C69.0919 10.0052 70.22 8.87695 71.6085 8.87695C72.9969 8.87695 74.125 10.0052 74.125 11.3938C74.125 12.7823 72.9969 13.9106 71.6085 13.9106Z" fill="#E83E36" fill-opacity="0.2"/>
<path d="M192.358 13.9106C190.97 13.9106 189.842 12.7823 189.842 11.3938C189.842 10.0052 190.97 8.87695 192.358 8.87695C193.747 8.87695 194.875 10.0052 194.875 11.3938C194.875 12.7823 193.747 13.9106 192.358 13.9106Z" fill="#E83E36" fill-opacity="0.2"/>
<path d="M192.358 85.1596C190.97 85.1596 189.842 84.0314 189.842 82.6428C189.842 81.2542 190.97 80.126 192.358 80.126C193.747 80.126 194.875 81.2542 194.875 82.6428C194.875 84.0314 193.747 85.1596 192.358 85.1596Z" fill="#E83E36" fill-opacity="0.2"/>
<path d="M0.686609 13.9106C-0.701822 13.9106 -1.82994 12.7823 -1.82994 11.3938C-1.82994 10.0052 -0.701822 8.87695 0.686609 8.87695C2.07504 8.87695 3.20312 10.0052 3.20312 11.3938C3.20312 12.7823 2.07504 13.9106 0.686609 13.9106Z" fill="#E83E36" fill-opacity="0.2"/>
<path d="M61.4366 13.9106C60.0482 13.9106 58.9201 12.7823 58.9201 11.3938C58.9201 10.0052 60.0482 8.87695 61.4366 8.87695C62.825 8.87695 63.9531 10.0052 63.9531 11.3938C63.9531 12.7823 62.825 13.9106 61.4366 13.9106Z" fill="#E83E36" fill-opacity="0.2"/>
<path d="M182.187 13.9106C180.798 13.9106 179.67 12.7823 179.67 11.3938C179.67 10.0052 180.798 8.87695 182.187 8.87695C183.575 8.87695 184.703 10.0052 184.703 11.3938C184.703 12.7823 183.575 13.9106 182.187 13.9106Z" fill="#E83E36" fill-opacity="0.2"/>
<path d="M111.265 13.9106C109.876 13.9106 108.748 12.7823 108.748 11.3938C108.748 10.0052 109.876 8.87695 111.265 8.87695C112.653 8.87695 113.781 10.0052 113.781 11.3938C113.781 12.7823 112.653 13.9106 111.265 13.9106Z" fill="#E83E36" fill-opacity="0.2"/>
<path d="M111.265 85.1596C109.876 85.1596 108.748 84.0314 108.748 82.6428C108.748 81.2542 109.876 80.126 111.265 80.126C112.653 80.126 113.781 81.2542 113.781 82.6428C113.781 84.0314 112.653 85.1596 111.265 85.1596Z" fill="#E83E36" fill-opacity="0.2"/>
<path d="M51.2647 13.9106C49.8763 13.9106 48.7482 12.7823 48.7482 11.3938C48.7482 10.0052 49.8763 8.87695 51.2647 8.87695C52.6531 8.87695 53.7812 10.0052 53.7812 11.3938C53.7812 12.7823 52.6531 13.9106 51.2647 13.9106Z" fill="#E83E36" fill-opacity="0.2"/>
<path d="M172.015 13.9106C170.626 13.9106 169.498 12.7823 169.498 11.3938C169.498 10.0052 170.626 8.87695 172.015 8.87695C173.403 8.87695 174.531 10.0052 174.531 11.3938C174.531 12.7823 173.403 13.9106 172.015 13.9106Z" fill="#E83E36" fill-opacity="0.2"/>
<path d="M172.015 85.1596C170.626 85.1596 169.498 84.0314 169.498 82.6428C169.498 81.2542 170.626 80.126 172.015 80.126C173.403 80.126 174.531 81.2542 174.531 82.6428C174.531 84.0314 173.403 85.1596 172.015 85.1596Z" fill="#E83E36" fill-opacity="0.2"/>
<path d="M41.3897 24.0834C40.0013 24.0834 38.8732 22.9552 38.8732 21.5666C38.8732 20.178 40.0013 19.0498 41.3897 19.0498C42.7781 19.0498 43.9062 20.178 43.9062 21.5666C43.9062 22.9552 42.7781 24.0834 41.3897 24.0834Z" fill="#E83E36" fill-opacity="0.2"/>
<path d="M162.14 95.3324C160.751 95.3324 159.623 94.2042 159.623 92.8156C159.623 91.4271 160.751 90.2988 162.14 90.2988C163.528 90.2988 164.656 91.4271 164.656 92.8156C164.656 94.2042 163.528 95.3324 162.14 95.3324Z" fill="#E83E36" fill-opacity="0.2"/>
<path d="M102.14 24.0834C100.751 24.0834 99.6232 22.9552 99.6232 21.5666C99.6232 20.178 100.751 19.0498 102.14 19.0498C103.528 19.0498 104.656 20.178 104.656 21.5666C104.656 22.9552 103.528 24.0834 102.14 24.0834Z" fill="#E83E36" fill-opacity="0.2"/>
<path d="M31.2179 24.0834C29.8294 24.0834 28.7013 22.9552 28.7013 21.5666C28.7013 20.178 29.8294 19.0498 31.2179 19.0498C32.6063 19.0498 33.7344 20.178 33.7344 21.5666C33.7344 22.9552 32.6063 24.0834 31.2179 24.0834Z" fill="#E83E36" fill-opacity="0.2"/>
<path d="M151.968 24.0834C150.579 24.0834 149.451 22.9552 149.451 21.5666C149.451 20.178 150.579 19.0498 151.968 19.0498C153.356 19.0498 154.484 20.178 154.484 21.5666C154.484 22.9552 153.356 24.0834 151.968 24.0834Z" fill="#E83E36" fill-opacity="0.2"/>
<path d="M212.718 24.0834C211.329 24.0834 210.201 22.9552 210.201 21.5666C210.201 20.178 211.329 19.0498 212.718 19.0498C214.106 19.0498 215.234 20.178 215.234 21.5666C215.234 22.9552 214.106 24.0834 212.718 24.0834Z" fill="#E83E36" fill-opacity="0.2"/>
<path d="M21.046 24.0834C19.6575 24.0834 18.5294 22.9552 18.5294 21.5666C18.5294 20.178 19.6575 19.0498 21.046 19.0498C22.4344 19.0498 23.5625 20.178 23.5625 21.5666C23.5625 22.9552 22.4344 24.0834 21.046 24.0834Z" fill="#E83E36" fill-opacity="0.2"/>
<path d="M141.796 24.0834C140.408 24.0834 139.279 22.9552 139.279 21.5666C139.279 20.178 140.408 19.0498 141.796 19.0498C143.184 19.0498 144.312 20.178 144.312 21.5666C144.312 22.9552 143.184 24.0834 141.796 24.0834Z" fill="#E83E36" fill-opacity="0.2"/>
<path d="M81.796 24.0834C80.4075 24.0834 79.2794 22.9552 79.2794 21.5666C79.2794 20.178 80.4075 19.0498 81.796 19.0498C83.1844 19.0498 84.3125 20.178 84.3125 21.5666C84.3125 22.9552 83.1844 24.0834 81.796 24.0834Z" fill="#E83E36" fill-opacity="0.2"/>
<path d="M202.546 24.0834C201.158 24.0834 200.029 22.9552 200.029 21.5666C200.029 20.178 201.158 19.0498 202.546 19.0498C203.934 19.0498 205.062 20.178 205.062 21.5666C205.062 22.9552 203.934 24.0834 202.546 24.0834Z" fill="#E83E36" fill-opacity="0.2"/>
<path d="M10.8585 24.0834C9.47002 24.0834 8.34194 22.9552 8.34194 21.5666C8.34194 20.178 9.47002 19.0498 10.8585 19.0498C12.2469 19.0498 13.375 20.178 13.375 21.5666C13.375 22.9552 12.2469 24.0834 10.8585 24.0834Z" fill="#E83E36" fill-opacity="0.2"/>
<path d="M10.8585 95.3324C9.47002 95.3324 8.34194 94.2042 8.34194 92.8156C8.34194 91.4271 9.47002 90.2988 10.8585 90.2988C12.2469 90.2988 13.375 91.4271 13.375 92.8156C13.375 94.2042 12.2469 95.3324 10.8585 95.3324Z" fill="#E83E36" fill-opacity="0.2"/>
<path d="M131.608 95.3324C130.22 95.3324 129.092 94.2042 129.092 92.8156C129.092 91.4271 130.22 90.2988 131.608 90.2988C132.997 90.2988 134.125 91.4271 134.125 92.8156C134.125 94.2042 132.997 95.3324 131.608 95.3324Z" fill="#E83E36" fill-opacity="0.2"/>
<path d="M71.6085 24.0834C70.22 24.0834 69.0919 22.9552 69.0919 21.5666C69.0919 20.178 70.22 19.0498 71.6085 19.0498C72.9969 19.0498 74.125 20.178 74.125 21.5666C74.125 22.9552 72.9969 24.0834 71.6085 24.0834Z" fill="#E83E36" fill-opacity="0.2"/>
<path d="M192.358 24.0834C190.97 24.0834 189.842 22.9552 189.842 21.5666C189.842 20.178 190.97 19.0498 192.358 19.0498C193.747 19.0498 194.875 20.178 194.875 21.5666C194.875 22.9552 193.747 24.0834 192.358 24.0834Z" fill="#E83E36" fill-opacity="0.2"/>
<path d="M111.265 24.0834C109.876 24.0834 108.748 22.9552 108.748 21.5666C108.748 20.178 109.876 19.0498 111.265 19.0498C112.653 19.0498 113.781 20.178 113.781 21.5666C113.781 22.9552 112.653 24.0834 111.265 24.0834Z" fill="#E83E36" fill-opacity="0.2"/>
<path d="M111.265 95.3324C109.876 95.3324 108.748 94.2042 108.748 92.8156C108.748 91.4271 109.876 90.2988 111.265 90.2988C112.653 90.2988 113.781 91.4271 113.781 92.8156C113.781 94.2042 112.653 95.3324 111.265 95.3324Z" fill="#E83E36" fill-opacity="0.2"/>
<path d="M51.2647 24.0834C49.8763 24.0834 48.7482 22.9552 48.7482 21.5666C48.7482 20.178 49.8763 19.0498 51.2647 19.0498C52.6531 19.0498 53.7812 20.178 53.7812 21.5666C53.7812 22.9552 52.6531 24.0834 51.2647 24.0834Z" fill="#E83E36" fill-opacity="0.2"/>
<path d="M172.015 24.0834C170.626 24.0834 169.498 22.9552 169.498 21.5666C169.498 20.178 170.626 19.0498 172.015 19.0498C173.403 19.0498 174.531 20.178 174.531 21.5666C174.531 22.9552 173.403 24.0834 172.015 24.0834Z" fill="#E83E36" fill-opacity="0.2"/>
<path d="M172.015 95.3324C170.626 95.3324 169.498 94.2042 169.498 92.8156C169.498 91.4271 170.626 90.2988 172.015 90.2988C173.403 90.2988 174.531 91.4271 174.531 92.8156C174.531 94.2042 173.403 95.3324 172.015 95.3324Z" fill="#E83E36" fill-opacity="0.2"/>
</svg>
