<svg width="306" height="138" viewBox="0 0 306 138" fill="none" xmlns="http://www.w3.org/2000/svg">
<path d="M252.267 132.299C253.655 132.299 254.783 133.427 254.783 134.816C254.783 136.204 253.655 137.333 252.267 137.333C250.878 137.333 249.75 136.204 249.75 134.816C249.75 133.427 250.878 132.299 252.267 132.299Z" fill="#E83E36" fill-opacity="0.2"/>
<path d="M131.517 132.299C132.905 132.299 134.033 133.427 134.033 134.816C134.033 136.204 132.905 137.333 131.517 137.333C130.128 137.333 129 136.204 129 134.816C129 133.427 130.128 132.299 131.517 132.299Z" fill="#E83E36" fill-opacity="0.2"/>
<path d="M131.517 61.0496C132.905 61.0496 134.033 62.1779 134.033 63.5664C134.033 64.955 132.905 66.0833 131.517 66.0833C130.128 66.0833 129 64.955 129 63.5664C129 62.1779 130.128 61.0496 131.517 61.0496Z" fill="#E83E36" fill-opacity="0.2"/>
<path d="M191.517 132.299C192.905 132.299 194.033 133.427 194.033 134.816C194.033 136.204 192.905 137.333 191.517 137.333C190.128 137.333 189 136.204 189 134.816C189 133.427 190.128 132.299 191.517 132.299Z" fill="#E83E36" fill-opacity="0.2"/>
<path d="M262.438 132.299C263.827 132.299 264.955 133.427 264.955 134.816C264.955 136.204 263.827 137.333 262.438 137.333C261.05 137.333 259.922 136.204 259.922 134.816C259.922 133.427 261.05 132.299 262.438 132.299Z" fill="#E83E36" fill-opacity="0.2"/>
<path d="M262.438 61.0496C263.827 61.0496 264.955 62.1779 264.955 63.5664C264.955 64.955 263.827 66.0833 262.438 66.0833C261.05 66.0833 259.922 64.955 259.922 63.5664C259.922 62.1779 261.05 61.0496 262.438 61.0496Z" fill="#E83E36" fill-opacity="0.2"/>
<path d="M141.688 132.299C143.077 132.299 144.205 133.427 144.205 134.816C144.205 136.204 143.077 137.333 141.688 137.333C140.3 137.333 139.172 136.204 139.172 134.816C139.172 133.427 140.3 132.299 141.688 132.299Z" fill="#E83E36" fill-opacity="0.2"/>
<path d="M141.688 61.0496C143.077 61.0496 144.205 62.1779 144.205 63.5664C144.205 64.955 143.077 66.0833 141.688 66.0833C140.3 66.0833 139.172 64.955 139.172 63.5664C139.172 62.1779 140.3 61.0496 141.688 61.0496Z" fill="#E83E36" fill-opacity="0.2"/>
<path d="M201.688 132.299C203.077 132.299 204.205 133.427 204.205 134.816C204.205 136.204 203.077 137.333 201.688 137.333C200.3 137.333 199.172 136.204 199.172 134.816C199.172 133.427 200.3 132.299 201.688 132.299Z" fill="#E83E36" fill-opacity="0.2"/>
<path d="M201.688 61.0496C203.077 61.0496 204.205 62.1779 204.205 63.5664C204.205 64.955 203.077 66.0833 201.688 66.0833C200.3 66.0833 199.172 64.955 199.172 63.5664C199.172 62.1779 200.3 61.0496 201.688 61.0496Z" fill="#E83E36" fill-opacity="0.2"/>
<path d="M80.9384 132.299C82.3268 132.299 83.4549 133.427 83.4549 134.816C83.4549 136.204 82.3268 137.333 80.9384 137.333C79.55 137.333 78.4219 136.204 78.4219 134.816C78.4219 133.427 79.55 132.299 80.9384 132.299Z" fill="#E83E36" fill-opacity="0.2"/>
<path d="M80.9384 61.0496C82.3268 61.0496 83.4549 62.1779 83.4549 63.5664C83.4549 64.955 82.3268 66.0833 80.9384 66.0833C79.55 66.0833 78.4219 64.955 78.4219 63.5664C78.4219 62.1779 79.55 61.0496 80.9384 61.0496Z" fill="#E83E36" fill-opacity="0.2"/>
<path d="M272.61 132.299C273.999 132.299 275.127 133.427 275.127 134.816C275.127 136.204 273.999 137.333 272.61 137.333C271.222 137.333 270.094 136.204 270.094 134.816C270.094 133.427 271.222 132.299 272.61 132.299Z" fill="#E83E36" fill-opacity="0.2"/>
<path d="M272.61 61.0496C273.999 61.0496 275.127 62.1779 275.127 63.5664C275.127 64.955 273.999 66.0833 272.61 66.0833C271.222 66.0833 270.094 64.955 270.094 63.5664C270.094 62.1779 271.222 61.0496 272.61 61.0496Z" fill="#E83E36" fill-opacity="0.2"/>
<path d="M151.86 132.299C153.249 132.299 154.377 133.427 154.377 134.816C154.377 136.204 153.249 137.333 151.86 137.333C150.472 137.333 149.344 136.204 149.344 134.816C149.344 133.427 150.472 132.299 151.86 132.299Z" fill="#E83E36" fill-opacity="0.2"/>
<path d="M211.86 132.299C213.249 132.299 214.377 133.427 214.377 134.816C214.377 136.204 213.249 137.333 211.86 137.333C210.472 137.333 209.344 136.204 209.344 134.816C209.344 133.427 210.472 132.299 211.86 132.299Z" fill="#E83E36" fill-opacity="0.2"/>
<path d="M211.86 61.0496C213.249 61.0496 214.377 62.1779 214.377 63.5664C214.377 64.955 213.249 66.0833 211.86 66.0833C210.472 66.0833 209.344 64.955 209.344 63.5664C209.344 62.1779 210.472 61.0496 211.86 61.0496Z" fill="#E83E36" fill-opacity="0.2"/>
<path d="M91.1103 61.0496C92.4987 61.0496 93.6268 62.1779 93.6268 63.5664C93.6268 64.955 92.4987 66.0833 91.1103 66.0833C89.7219 66.0833 88.5938 64.955 88.5938 63.5664C88.5938 62.1779 89.7219 61.0496 91.1103 61.0496Z" fill="#E83E36" fill-opacity="0.2"/>
<path d="M282.798 132.299C284.186 132.299 285.314 133.427 285.314 134.816C285.314 136.204 284.186 137.333 282.798 137.333C281.409 137.333 280.281 136.204 280.281 134.816C280.281 133.427 281.409 132.299 282.798 132.299Z" fill="#E83E36" fill-opacity="0.2"/>
<path d="M282.798 61.0496C284.186 61.0496 285.314 62.1779 285.314 63.5664C285.314 64.955 284.186 66.0833 282.798 66.0833C281.409 66.0833 280.281 64.955 280.281 63.5664C280.281 62.1779 281.409 61.0496 282.798 61.0496Z" fill="#E83E36" fill-opacity="0.2"/>
<path d="M162.048 132.299C163.436 132.299 164.564 133.427 164.564 134.816C164.564 136.204 163.436 137.333 162.048 137.333C160.659 137.333 159.531 136.204 159.531 134.816C159.531 133.427 160.659 132.299 162.048 132.299Z" fill="#E83E36" fill-opacity="0.2"/>
<path d="M162.048 61.0496C163.436 61.0496 164.564 62.1779 164.564 63.5664C164.564 64.955 163.436 66.0833 162.048 66.0833C160.659 66.0833 159.531 64.955 159.531 63.5664C159.531 62.1779 160.659 61.0496 162.048 61.0496Z" fill="#E83E36" fill-opacity="0.2"/>
<path d="M222.048 132.299C223.436 132.299 224.564 133.427 224.564 134.816C224.564 136.204 223.436 137.333 222.048 137.333C220.659 137.333 219.531 136.204 219.531 134.816C219.531 133.427 220.659 132.299 222.048 132.299Z" fill="#E83E36" fill-opacity="0.2"/>
<path d="M101.298 132.299C102.686 132.299 103.814 133.427 103.814 134.816C103.814 136.204 102.686 137.333 101.298 137.333C99.9094 137.333 98.7812 136.204 98.7812 134.816C98.7812 133.427 99.9094 132.299 101.298 132.299Z" fill="#E83E36" fill-opacity="0.2"/>
<path d="M101.298 61.0496C102.686 61.0496 103.814 62.1779 103.814 63.5664C103.814 64.955 102.686 66.0833 101.298 66.0833C99.9094 66.0833 98.7812 64.955 98.7812 63.5664C98.7812 62.1779 99.9094 61.0496 101.298 61.0496Z" fill="#E83E36" fill-opacity="0.2"/>
<path d="M292.97 132.299C294.358 132.299 295.486 133.427 295.486 134.816C295.486 136.204 294.358 137.333 292.97 137.333C291.581 137.333 290.453 136.204 290.453 134.816C290.453 133.427 291.581 132.299 292.97 132.299Z" fill="#E83E36" fill-opacity="0.2"/>
<path d="M292.97 61.0496C294.358 61.0496 295.486 62.1779 295.486 63.5664C295.486 64.955 294.358 66.0833 292.97 66.0833C291.581 66.0833 290.453 64.955 290.453 63.5664C290.453 62.1779 291.581 61.0496 292.97 61.0496Z" fill="#E83E36" fill-opacity="0.2"/>
<path d="M172.22 132.299C173.608 132.299 174.736 133.427 174.736 134.816C174.736 136.204 173.608 137.333 172.22 137.333C170.831 137.333 169.703 136.204 169.703 134.816C169.703 133.427 170.831 132.299 172.22 132.299Z" fill="#E83E36" fill-opacity="0.2"/>
<path d="M232.22 132.299C233.608 132.299 234.736 133.427 234.736 134.816C234.736 136.204 233.608 137.333 232.22 137.333C230.831 137.333 229.703 136.204 229.703 134.816C229.703 133.427 230.831 132.299 232.22 132.299Z" fill="#E83E36" fill-opacity="0.2"/>
<path d="M232.22 61.0496C233.608 61.0496 234.736 62.1779 234.736 63.5664C234.736 64.955 233.608 66.0833 232.22 66.0833C230.831 66.0833 229.703 64.955 229.703 63.5664C229.703 62.1779 230.831 61.0496 232.22 61.0496Z" fill="#E83E36" fill-opacity="0.2"/>
<path d="M111.47 132.299C112.858 132.299 113.986 133.427 113.986 134.816C113.986 136.204 112.858 137.333 111.47 137.333C110.081 137.333 108.953 136.204 108.953 134.816C108.953 133.427 110.081 132.299 111.47 132.299Z" fill="#E83E36" fill-opacity="0.2"/>
<path d="M303.142 132.299C304.53 132.299 305.658 133.427 305.658 134.816C305.658 136.204 304.53 137.333 303.142 137.333C301.753 137.333 300.625 136.204 300.625 134.816C300.625 133.427 301.753 132.299 303.142 132.299Z" fill="#E83E36" fill-opacity="0.2"/>
<path d="M303.142 61.0496C304.53 61.0496 305.658 62.1779 305.658 63.5664C305.658 64.955 304.53 66.0833 303.142 66.0833C301.753 66.0833 300.625 64.955 300.625 63.5664C300.625 62.1779 301.753 61.0496 303.142 61.0496Z" fill="#E83E36" fill-opacity="0.2"/>
<path d="M182.392 132.299C183.78 132.299 184.908 133.427 184.908 134.816C184.908 136.204 183.78 137.333 182.392 137.333C181.003 137.333 179.875 136.204 179.875 134.816C179.875 133.427 181.003 132.299 182.392 132.299Z" fill="#E83E36" fill-opacity="0.2"/>
<path d="M182.392 61.0496C183.78 61.0496 184.908 62.1779 184.908 63.5664C184.908 64.955 183.78 66.0833 182.392 66.0833C181.003 66.0833 179.875 64.955 179.875 63.5664C179.875 62.1779 181.003 61.0496 182.392 61.0496Z" fill="#E83E36" fill-opacity="0.2"/>
<path d="M242.392 132.299C243.78 132.299 244.908 133.427 244.908 134.816C244.908 136.204 243.78 137.333 242.392 137.333C241.003 137.333 239.875 136.204 239.875 134.816C239.875 133.427 241.003 132.299 242.392 132.299Z" fill="#E83E36" fill-opacity="0.2"/>
<path d="M242.392 61.0496C243.78 61.0496 244.908 62.1779 244.908 63.5664C244.908 64.955 243.78 66.0833 242.392 66.0833C241.003 66.0833 239.875 64.955 239.875 63.5664C239.875 62.1779 241.003 61.0496 242.392 61.0496Z" fill="#E83E36" fill-opacity="0.2"/>
<path d="M121.642 132.299C123.03 132.299 124.158 133.427 124.158 134.816C124.158 136.204 123.03 137.333 121.642 137.333C120.253 137.333 119.125 136.204 119.125 134.816C119.125 133.427 120.253 132.299 121.642 132.299Z" fill="#E83E36" fill-opacity="0.2"/>
<path d="M121.642 61.0496C123.03 61.0496 124.158 62.1779 124.158 63.5664C124.158 64.955 123.03 66.0833 121.642 66.0833C120.253 66.0833 119.125 64.955 119.125 63.5664C119.125 62.1779 120.253 61.0496 121.642 61.0496Z" fill="#E83E36" fill-opacity="0.2"/>
<path d="M252.267 122.125C253.655 122.125 254.783 123.253 254.783 124.642C254.783 126.03 253.655 127.158 252.267 127.158C250.878 127.158 249.75 126.03 249.75 124.642C249.75 123.253 250.878 122.125 252.267 122.125Z" fill="#E83E36" fill-opacity="0.2"/>
<path d="M252.267 50.8751C253.655 50.8751 254.783 52.0033 254.783 53.3919C254.783 54.7805 253.655 55.9087 252.267 55.9087C250.878 55.9087 249.75 54.7805 249.75 53.3919C249.75 52.0033 250.878 50.8751 252.267 50.8751Z" fill="#E83E36" fill-opacity="0.2"/>
<path d="M131.517 122.125C132.905 122.125 134.033 123.253 134.033 124.642C134.033 126.03 132.905 127.158 131.517 127.158C130.128 127.158 129 126.03 129 124.642C129 123.253 130.128 122.125 131.517 122.125Z" fill="#E83E36" fill-opacity="0.2"/>
<path d="M191.517 122.125C192.905 122.125 194.033 123.253 194.033 124.642C194.033 126.03 192.905 127.158 191.517 127.158C190.128 127.158 189 126.03 189 124.642C189 123.253 190.128 122.125 191.517 122.125Z" fill="#E83E36" fill-opacity="0.2"/>
<path d="M191.517 50.8751C192.905 50.8751 194.033 52.0033 194.033 53.3919C194.033 54.7805 192.905 55.9087 191.517 55.9087C190.128 55.9087 189 54.7805 189 53.3919C189 52.0033 190.128 50.8751 191.517 50.8751Z" fill="#E83E36" fill-opacity="0.2"/>
<path d="M70.7665 50.5496C72.155 50.5496 73.2831 51.6779 73.2831 53.0664C73.2831 54.455 72.155 55.5833 70.7665 55.5833C69.3781 55.5833 68.25 54.455 68.25 53.0664C68.25 51.6779 69.3781 50.5496 70.7665 50.5496Z" fill="#E83E36" fill-opacity="0.2"/>
<path d="M42.2665 50.8751C43.655 50.8751 44.7831 52.0033 44.7831 53.3919C44.7831 54.7805 43.655 55.9087 42.2665 55.9087C40.8781 55.9087 39.75 54.7805 39.75 53.3919C39.75 52.0033 40.8781 50.8751 42.2665 50.8751Z" fill="#E83E36" fill-opacity="0.2"/>
<path d="M262.438 122.125C263.827 122.125 264.955 123.253 264.955 124.642C264.955 126.03 263.827 127.158 262.438 127.158C261.05 127.158 259.922 126.03 259.922 124.642C259.922 123.253 261.05 122.125 262.438 122.125Z" fill="#E83E36" fill-opacity="0.2"/>
<path d="M262.438 50.8751C263.827 50.8751 264.955 52.0033 264.955 53.3919C264.955 54.7805 263.827 55.9087 262.438 55.9087C261.05 55.9087 259.922 54.7805 259.922 53.3919C259.922 52.0033 261.05 50.8751 262.438 50.8751Z" fill="#E83E36" fill-opacity="0.2"/>
<path d="M141.688 122.125C143.077 122.125 144.205 123.253 144.205 124.642C144.205 126.03 143.077 127.158 141.688 127.158C140.3 127.158 139.172 126.03 139.172 124.642C139.172 123.253 140.3 122.125 141.688 122.125Z" fill="#E83E36" fill-opacity="0.2"/>
<path d="M141.688 50.8751C143.077 50.8751 144.205 52.0033 144.205 53.3919C144.205 54.7805 143.077 55.9087 141.688 55.9087C140.3 55.9087 139.172 54.7805 139.172 53.3919C139.172 52.0033 140.3 50.8751 141.688 50.8751Z" fill="#E83E36" fill-opacity="0.2"/>
<path d="M201.688 122.125C203.077 122.125 204.205 123.253 204.205 124.642C204.205 126.03 203.077 127.158 201.688 127.158C200.3 127.158 199.172 126.03 199.172 124.642C199.172 123.253 200.3 122.125 201.688 122.125Z" fill="#E83E36" fill-opacity="0.2"/>
<path d="M32.9384 50.5496C34.3268 50.5496 35.4549 51.6779 35.4549 53.0664C35.4549 54.455 34.3268 55.5833 32.9384 55.5833C31.55 55.5833 30.4219 54.455 30.4219 53.0664C30.4219 51.6779 31.55 50.5496 32.9384 50.5496Z" fill="#E83E36" fill-opacity="0.2"/>
<path d="M12.6884 50.5496C14.0768 50.5496 15.2049 51.6779 15.2049 53.0664C15.2049 54.455 14.0768 55.5833 12.6884 55.5833C11.3 55.5833 10.1719 54.455 10.1719 53.0664C10.1719 51.6779 11.3 50.5496 12.6884 50.5496Z" fill="#E83E36" fill-opacity="0.2"/>
<path d="M272.61 122.125C273.999 122.125 275.127 123.253 275.127 124.642C275.127 126.03 273.999 127.158 272.61 127.158C271.222 127.158 270.094 126.03 270.094 124.642C270.094 123.253 271.222 122.125 272.61 122.125Z" fill="#E83E36" fill-opacity="0.2"/>
<path d="M272.61 50.8751C273.999 50.8751 275.127 52.0033 275.127 53.3919C275.127 54.7805 273.999 55.9087 272.61 55.9087C271.222 55.9087 270.094 54.7805 270.094 53.3919C270.094 52.0033 271.222 50.8751 272.61 50.8751Z" fill="#E83E36" fill-opacity="0.2"/>
<path d="M151.86 122.125C153.249 122.125 154.377 123.253 154.377 124.642C154.377 126.03 153.249 127.158 151.86 127.158C150.472 127.158 149.344 126.03 149.344 124.642C149.344 123.253 150.472 122.125 151.86 122.125Z" fill="#E83E36" fill-opacity="0.2"/>
<path d="M151.86 50.8751C153.249 50.8751 154.377 52.0033 154.377 53.3919C154.377 54.7805 153.249 55.9087 151.86 55.9087C150.472 55.9087 149.344 54.7805 149.344 53.3919C149.344 52.0033 150.472 50.8751 151.86 50.8751Z" fill="#E83E36" fill-opacity="0.2"/>
<path d="M211.86 122.125C213.249 122.125 214.377 123.253 214.377 124.642C214.377 126.03 213.249 127.158 211.86 127.158C210.472 127.158 209.344 126.03 209.344 124.642C209.344 123.253 210.472 122.125 211.86 122.125Z" fill="#E83E36" fill-opacity="0.2"/>
<path d="M211.86 50.8751C213.249 50.8751 214.377 52.0033 214.377 53.3919C214.377 54.7805 213.249 55.9087 211.86 55.9087C210.472 55.9087 209.344 54.7805 209.344 53.3919C209.344 52.0033 210.472 50.8751 211.86 50.8751Z" fill="#E83E36" fill-opacity="0.2"/>
<path d="M91.1103 50.8751C92.4987 50.8751 93.6268 52.0033 93.6268 53.3919C93.6268 54.7805 92.4987 55.9087 91.1103 55.9087C89.7219 55.9087 88.5938 54.7805 88.5938 53.3919C88.5938 52.0033 89.7219 50.8751 91.1103 50.8751Z" fill="#E83E36" fill-opacity="0.2"/>
<path d="M62.6103 50.8751C63.9987 50.8751 65.1268 52.0033 65.1268 53.3919C65.1268 54.7805 63.9987 55.9087 62.6103 55.9087C61.2219 55.9087 60.0938 54.7805 60.0938 53.3919C60.0938 52.0033 61.2219 50.8751 62.6103 50.8751Z" fill="#E83E36" fill-opacity="0.2"/>
<path d="M282.798 122.125C284.186 122.125 285.314 123.253 285.314 124.642C285.314 126.03 284.186 127.158 282.798 127.158C281.409 127.158 280.281 126.03 280.281 124.642C280.281 123.253 281.409 122.125 282.798 122.125Z" fill="#E83E36" fill-opacity="0.2"/>
<path d="M282.798 50.8751C284.186 50.8751 285.314 52.0033 285.314 53.3919C285.314 54.7805 284.186 55.9087 282.798 55.9087C281.409 55.9087 280.281 54.7805 280.281 53.3919C280.281 52.0033 281.409 50.8751 282.798 50.8751Z" fill="#E83E36" fill-opacity="0.2"/>
<path d="M162.048 122.125C163.436 122.125 164.564 123.253 164.564 124.642C164.564 126.03 163.436 127.158 162.048 127.158C160.659 127.158 159.531 126.03 159.531 124.642C159.531 123.253 160.659 122.125 162.048 122.125Z" fill="#E83E36" fill-opacity="0.2"/>
<path d="M162.048 50.8751C163.436 50.8751 164.564 52.0033 164.564 53.3919C164.564 54.7805 163.436 55.9087 162.048 55.9087C160.659 55.9087 159.531 54.7805 159.531 53.3919C159.531 52.0033 160.659 50.8751 162.048 50.8751Z" fill="#E83E36" fill-opacity="0.2"/>
<path d="M222.048 122.125C223.436 122.125 224.564 123.253 224.564 124.642C224.564 126.03 223.436 127.158 222.048 127.158C220.659 127.158 219.531 126.03 219.531 124.642C219.531 123.253 220.659 122.125 222.048 122.125Z" fill="#E83E36" fill-opacity="0.2"/>
<path d="M222.048 50.8751C223.436 50.8751 224.564 52.0033 224.564 53.3919C224.564 54.7805 223.436 55.9087 222.048 55.9087C220.659 55.9087 219.531 54.7805 219.531 53.3919C219.531 52.0033 220.659 50.8751 222.048 50.8751Z" fill="#E83E36" fill-opacity="0.2"/>
<path d="M292.97 122.125C294.358 122.125 295.486 123.253 295.486 124.642C295.486 126.03 294.358 127.158 292.97 127.158C291.581 127.158 290.453 126.03 290.453 124.642C290.453 123.253 291.581 122.125 292.97 122.125Z" fill="#E83E36" fill-opacity="0.2"/>
<path d="M292.97 50.8751C294.358 50.8751 295.486 52.0033 295.486 53.3919C295.486 54.7805 294.358 55.9087 292.97 55.9087C291.581 55.9087 290.453 54.7805 290.453 53.3919C290.453 52.0033 291.581 50.8751 292.97 50.8751Z" fill="#E83E36" fill-opacity="0.2"/>
<path d="M172.22 122.125C173.608 122.125 174.736 123.253 174.736 124.642C174.736 126.03 173.608 127.158 172.22 127.158C170.831 127.158 169.703 126.03 169.703 124.642C169.703 123.253 170.831 122.125 172.22 122.125Z" fill="#E83E36" fill-opacity="0.2"/>
<path d="M232.22 122.125C233.608 122.125 234.736 123.253 234.736 124.642C234.736 126.03 233.608 127.158 232.22 127.158C230.831 127.158 229.703 126.03 229.703 124.642C229.703 123.253 230.831 122.125 232.22 122.125Z" fill="#E83E36" fill-opacity="0.2"/>
<path d="M232.22 50.8751C233.608 50.8751 234.736 52.0033 234.736 53.3919C234.736 54.7805 233.608 55.9087 232.22 55.9087C230.831 55.9087 229.703 54.7805 229.703 53.3919C229.703 52.0033 230.831 50.8751 232.22 50.8751Z" fill="#E83E36" fill-opacity="0.2"/>
<path d="M111.47 122.125C112.858 122.125 113.986 123.253 113.986 124.642C113.986 126.03 112.858 127.158 111.47 127.158C110.081 127.158 108.953 126.03 108.953 124.642C108.953 123.253 110.081 122.125 111.47 122.125Z" fill="#E83E36" fill-opacity="0.2"/>
<path d="M111.47 50.8751C112.858 50.8751 113.986 52.0033 113.986 53.3919C113.986 54.7805 112.858 55.9087 111.47 55.9087C110.081 55.9087 108.953 54.7805 108.953 53.3919C108.953 52.0033 110.081 50.8751 111.47 50.8751Z" fill="#E83E36" fill-opacity="0.2"/>
<path d="M303.142 122.125C304.53 122.125 305.658 123.253 305.658 124.642C305.658 126.03 304.53 127.158 303.142 127.158C301.753 127.158 300.625 126.03 300.625 124.642C300.625 123.253 301.753 122.125 303.142 122.125Z" fill="#E83E36" fill-opacity="0.2"/>
<path d="M303.142 50.8751C304.53 50.8751 305.658 52.0033 305.658 53.3919C305.658 54.7805 304.53 55.9087 303.142 55.9087C301.753 55.9087 300.625 54.7805 300.625 53.3919C300.625 52.0033 301.753 50.8751 303.142 50.8751Z" fill="#E83E36" fill-opacity="0.2"/>
<path d="M182.392 122.125C183.78 122.125 184.908 123.253 184.908 124.642C184.908 126.03 183.78 127.158 182.392 127.158C181.003 127.158 179.875 126.03 179.875 124.642C179.875 123.253 181.003 122.125 182.392 122.125Z" fill="#E83E36" fill-opacity="0.2"/>
<path d="M182.392 50.8751C183.78 50.8751 184.908 52.0033 184.908 53.3919C184.908 54.7805 183.78 55.9087 182.392 55.9087C181.003 55.9087 179.875 54.7805 179.875 53.3919C179.875 52.0033 181.003 50.8751 182.392 50.8751Z" fill="#E83E36" fill-opacity="0.2"/>
<path d="M242.392 122.125C243.78 122.125 244.908 123.253 244.908 124.642C244.908 126.03 243.78 127.158 242.392 127.158C241.003 127.158 239.875 126.03 239.875 124.642C239.875 123.253 241.003 122.125 242.392 122.125Z" fill="#E83E36" fill-opacity="0.2"/>
<path d="M121.642 122.125C123.03 122.125 124.158 123.253 124.158 124.642C124.158 126.03 123.03 127.158 121.642 127.158C120.253 127.158 119.125 126.03 119.125 124.642C119.125 123.253 120.253 122.125 121.642 122.125Z" fill="#E83E36" fill-opacity="0.2"/>
<path d="M121.642 50.8751C123.03 50.8751 124.158 52.0033 124.158 53.3919C124.158 54.7805 123.03 55.9087 121.642 55.9087C120.253 55.9087 119.125 54.7805 119.125 53.3919C119.125 52.0033 120.253 50.8751 121.642 50.8751Z" fill="#E83E36" fill-opacity="0.2"/>
<path d="M252.267 111.952C253.655 111.952 254.783 113.08 254.783 114.469C254.783 115.857 253.655 116.985 252.267 116.985C250.878 116.985 249.75 115.857 249.75 114.469C249.75 113.08 250.878 111.952 252.267 111.952Z" fill="#E83E36" fill-opacity="0.2"/>
<path d="M252.267 40.7027C253.655 40.7027 254.783 41.8309 254.783 43.2195C254.783 44.6081 253.655 45.7363 252.267 45.7363C250.878 45.7363 249.75 44.6081 249.75 43.2195C249.75 41.8309 250.878 40.7027 252.267 40.7027Z" fill="#E83E36" fill-opacity="0.2"/>
<path d="M131.517 111.952C132.905 111.952 134.033 113.08 134.033 114.469C134.033 115.857 132.905 116.985 131.517 116.985C130.128 116.985 129 115.857 129 114.469C129 113.08 130.128 111.952 131.517 111.952Z" fill="#E83E36" fill-opacity="0.2"/>
<path d="M191.517 111.952C192.905 111.952 194.033 113.08 194.033 114.469C194.033 115.857 192.905 116.985 191.517 116.985C190.128 116.985 189 115.857 189 114.469C189 113.08 190.128 111.952 191.517 111.952Z" fill="#E83E36" fill-opacity="0.2"/>
<path d="M191.517 40.7027C192.905 40.7027 194.033 41.8309 194.033 43.2195C194.033 44.6081 192.905 45.7363 191.517 45.7363C190.128 45.7363 189 44.6081 189 43.2195C189 41.8309 190.128 40.7027 191.517 40.7027Z" fill="#E83E36" fill-opacity="0.2"/>
<path d="M70.7665 40.377C72.155 40.377 73.2831 41.5052 73.2831 42.8938C73.2831 44.2824 72.155 45.4106 70.7665 45.4106C69.3781 45.4106 68.25 44.2824 68.25 42.8938C68.25 41.5052 69.3781 40.377 70.7665 40.377Z" fill="#E83E36" fill-opacity="0.2"/>
<path d="M22.7665 40.377C24.155 40.377 25.2831 41.5052 25.2831 42.8938C25.2831 44.2824 24.155 45.4106 22.7665 45.4106C21.3781 45.4106 20.25 44.2824 20.25 42.8938C20.25 41.5052 21.3781 40.377 22.7665 40.377Z" fill="#E83E36" fill-opacity="0.2"/>
<path d="M2.51655 40.377C3.90498 40.377 5.03306 41.5052 5.03306 42.8938C5.03306 44.2824 3.90498 45.4106 2.51655 45.4106C1.12811 45.4106 0 44.2824 0 42.8938C0 41.5052 1.12811 40.377 2.51655 40.377Z" fill="#E83E36" fill-opacity="0.2"/>
<path d="M262.438 111.952C263.827 111.952 264.955 113.08 264.955 114.469C264.955 115.857 263.827 116.985 262.438 116.985C261.05 116.985 259.922 115.857 259.922 114.469C259.922 113.08 261.05 111.952 262.438 111.952Z" fill="#E83E36" fill-opacity="0.2"/>
<path d="M262.438 40.7027C263.827 40.7027 264.955 41.8309 264.955 43.2195C264.955 44.6081 263.827 45.7363 262.438 45.7363C261.05 45.7363 259.922 44.6081 259.922 43.2195C259.922 41.8309 261.05 40.7027 262.438 40.7027Z" fill="#E83E36" fill-opacity="0.2"/>
<path d="M141.688 111.952C143.077 111.952 144.205 113.08 144.205 114.469C144.205 115.857 143.077 116.985 141.688 116.985C140.3 116.985 139.172 115.857 139.172 114.469C139.172 113.08 140.3 111.952 141.688 111.952Z" fill="#E83E36" fill-opacity="0.2"/>
<path d="M141.688 40.7027C143.077 40.7027 144.205 41.8309 144.205 43.2195C144.205 44.6081 143.077 45.7363 141.688 45.7363C140.3 45.7363 139.172 44.6081 139.172 43.2195C139.172 41.8309 140.3 40.7027 141.688 40.7027Z" fill="#E83E36" fill-opacity="0.2"/>
<path d="M201.688 111.952C203.077 111.952 204.205 113.08 204.205 114.469C204.205 115.857 203.077 116.985 201.688 116.985C200.3 116.985 199.172 115.857 199.172 114.469C199.172 113.08 200.3 111.952 201.688 111.952Z" fill="#E83E36" fill-opacity="0.2"/>
<path d="M201.688 40.7027C203.077 40.7027 204.205 41.8309 204.205 43.2195C204.205 44.6081 203.077 45.7363 201.688 45.7363C200.3 45.7363 199.172 44.6081 199.172 43.2195C199.172 41.8309 200.3 40.7027 201.688 40.7027Z" fill="#E83E36" fill-opacity="0.2"/>
<path d="M52.4384 40.7027C53.8268 40.7027 54.9549 41.8309 54.9549 43.2195C54.9549 44.6081 53.8268 45.7363 52.4384 45.7363C51.05 45.7363 49.9219 44.6081 49.9219 43.2195C49.9219 41.8309 51.05 40.7027 52.4384 40.7027Z" fill="#E83E36" fill-opacity="0.2"/>
<path d="M272.61 111.952C273.999 111.952 275.127 113.08 275.127 114.469C275.127 115.857 273.999 116.985 272.61 116.985C271.222 116.985 270.094 115.857 270.094 114.469C270.094 113.08 271.222 111.952 272.61 111.952Z" fill="#E83E36" fill-opacity="0.2"/>
<path d="M272.61 40.7027C273.999 40.7027 275.127 41.8309 275.127 43.2195C275.127 44.6081 273.999 45.7363 272.61 45.7363C271.222 45.7363 270.094 44.6081 270.094 43.2195C270.094 41.8309 271.222 40.7027 272.61 40.7027Z" fill="#E83E36" fill-opacity="0.2"/>
<path d="M151.86 111.952C153.249 111.952 154.377 113.08 154.377 114.469C154.377 115.857 153.249 116.985 151.86 116.985C150.472 116.985 149.344 115.857 149.344 114.469C149.344 113.08 150.472 111.952 151.86 111.952Z" fill="#E83E36" fill-opacity="0.2"/>
<path d="M211.86 111.952C213.249 111.952 214.377 113.08 214.377 114.469C214.377 115.857 213.249 116.985 211.86 116.985C210.472 116.985 209.344 115.857 209.344 114.469C209.344 113.08 210.472 111.952 211.86 111.952Z" fill="#E83E36" fill-opacity="0.2"/>
<path d="M211.86 40.7027C213.249 40.7027 214.377 41.8309 214.377 43.2195C214.377 44.6081 213.249 45.7363 211.86 45.7363C210.472 45.7363 209.344 44.6081 209.344 43.2195C209.344 41.8309 210.472 40.7027 211.86 40.7027Z" fill="#E83E36" fill-opacity="0.2"/>
<path d="M91.1103 111.952C92.4987 111.952 93.6268 113.08 93.6268 114.469C93.6268 115.857 92.4987 116.985 91.1103 116.985C89.7219 116.985 88.5938 115.857 88.5938 114.469C88.5938 113.08 89.7219 111.952 91.1103 111.952Z" fill="#E83E36" fill-opacity="0.2"/>
<path d="M91.1103 40.7027C92.4987 40.7027 93.6268 41.8309 93.6268 43.2195C93.6268 44.6081 92.4987 45.7363 91.1103 45.7363C89.7219 45.7363 88.5938 44.6081 88.5938 43.2195C88.5938 41.8309 89.7219 40.7027 91.1103 40.7027Z" fill="#E83E36" fill-opacity="0.2"/>
<path d="M282.798 111.952C284.186 111.952 285.314 113.08 285.314 114.469C285.314 115.857 284.186 116.985 282.798 116.985C281.409 116.985 280.281 115.857 280.281 114.469C280.281 113.08 281.409 111.952 282.798 111.952Z" fill="#E83E36" fill-opacity="0.2"/>
<path d="M162.048 111.952C163.436 111.952 164.564 113.08 164.564 114.469C164.564 115.857 163.436 116.985 162.048 116.985C160.659 116.985 159.531 115.857 159.531 114.469C159.531 113.08 160.659 111.952 162.048 111.952Z" fill="#E83E36" fill-opacity="0.2"/>
<path d="M162.048 40.7027C163.436 40.7027 164.564 41.8309 164.564 43.2195C164.564 44.6081 163.436 45.7363 162.048 45.7363C160.659 45.7363 159.531 44.6081 159.531 43.2195C159.531 41.8309 160.659 40.7027 162.048 40.7027Z" fill="#E83E36" fill-opacity="0.2"/>
<path d="M222.048 111.952C223.436 111.952 224.564 113.08 224.564 114.469C224.564 115.857 223.436 116.985 222.048 116.985C220.659 116.985 219.531 115.857 219.531 114.469C219.531 113.08 220.659 111.952 222.048 111.952Z" fill="#E83E36" fill-opacity="0.2"/>
<path d="M222.048 40.7027C223.436 40.7027 224.564 41.8309 224.564 43.2195C224.564 44.6081 223.436 45.7363 222.048 45.7363C220.659 45.7363 219.531 44.6081 219.531 43.2195C219.531 41.8309 220.659 40.7027 222.048 40.7027Z" fill="#E83E36" fill-opacity="0.2"/>
<path d="M101.298 111.952C102.686 111.952 103.814 113.08 103.814 114.469C103.814 115.857 102.686 116.985 101.298 116.985C99.9094 116.985 98.7812 115.857 98.7812 114.469C98.7812 113.08 99.9094 111.952 101.298 111.952Z" fill="#E83E36" fill-opacity="0.2"/>
<path d="M101.298 40.7027C102.686 40.7027 103.814 41.8309 103.814 43.2195C103.814 44.6081 102.686 45.7363 101.298 45.7363C99.9094 45.7363 98.7812 44.6081 98.7812 43.2195C98.7812 41.8309 99.9094 40.7027 101.298 40.7027Z" fill="#E83E36" fill-opacity="0.2"/>
<path d="M292.97 111.952C294.358 111.952 295.486 113.08 295.486 114.469C295.486 115.857 294.358 116.985 292.97 116.985C291.581 116.985 290.453 115.857 290.453 114.469C290.453 113.08 291.581 111.952 292.97 111.952Z" fill="#E83E36" fill-opacity="0.2"/>
<path d="M292.97 40.7027C294.358 40.7027 295.486 41.8309 295.486 43.2195C295.486 44.6081 294.358 45.7363 292.97 45.7363C291.581 45.7363 290.453 44.6081 290.453 43.2195C290.453 41.8309 291.581 40.7027 292.97 40.7027Z" fill="#E83E36" fill-opacity="0.2"/>
<path d="M172.22 111.952C173.608 111.952 174.736 113.08 174.736 114.469C174.736 115.857 173.608 116.985 172.22 116.985C170.831 116.985 169.703 115.857 169.703 114.469C169.703 113.08 170.831 111.952 172.22 111.952Z" fill="#E83E36" fill-opacity="0.2"/>
<path d="M172.22 40.7027C173.608 40.7027 174.736 41.8309 174.736 43.2195C174.736 44.6081 173.608 45.7363 172.22 45.7363C170.831 45.7363 169.703 44.6081 169.703 43.2195C169.703 41.8309 170.831 40.7027 172.22 40.7027Z" fill="#E83E36" fill-opacity="0.2"/>
<path d="M232.22 111.952C233.608 111.952 234.736 113.08 234.736 114.469C234.736 115.857 233.608 116.985 232.22 116.985C230.831 116.985 229.703 115.857 229.703 114.469C229.703 113.08 230.831 111.952 232.22 111.952Z" fill="#E83E36" fill-opacity="0.2"/>
<path d="M303.142 111.952C304.53 111.952 305.658 113.08 305.658 114.469C305.658 115.857 304.53 116.985 303.142 116.985C301.753 116.985 300.625 115.857 300.625 114.469C300.625 113.08 301.753 111.952 303.142 111.952Z" fill="#E83E36" fill-opacity="0.2"/>
<path d="M303.142 40.7027C304.53 40.7027 305.658 41.8309 305.658 43.2195C305.658 44.6081 304.53 45.7363 303.142 45.7363C301.753 45.7363 300.625 44.6081 300.625 43.2195C300.625 41.8309 301.753 40.7027 303.142 40.7027Z" fill="#E83E36" fill-opacity="0.2"/>
<path d="M182.392 111.952C183.78 111.952 184.908 113.08 184.908 114.469C184.908 115.857 183.78 116.985 182.392 116.985C181.003 116.985 179.875 115.857 179.875 114.469C179.875 113.08 181.003 111.952 182.392 111.952Z" fill="#E83E36" fill-opacity="0.2"/>
<path d="M182.392 40.7027C183.78 40.7027 184.908 41.8309 184.908 43.2195C184.908 44.6081 183.78 45.7363 182.392 45.7363C181.003 45.7363 179.875 44.6081 179.875 43.2195C179.875 41.8309 181.003 40.7027 182.392 40.7027Z" fill="#E83E36" fill-opacity="0.2"/>
<path d="M242.392 111.952C243.78 111.952 244.908 113.08 244.908 114.469C244.908 115.857 243.78 116.985 242.392 116.985C241.003 116.985 239.875 115.857 239.875 114.469C239.875 113.08 241.003 111.952 242.392 111.952Z" fill="#E83E36" fill-opacity="0.2"/>
<path d="M242.392 40.7027C243.78 40.7027 244.908 41.8309 244.908 43.2195C244.908 44.6081 243.78 45.7363 242.392 45.7363C241.003 45.7363 239.875 44.6081 239.875 43.2195C239.875 41.8309 241.003 40.7027 242.392 40.7027Z" fill="#E83E36" fill-opacity="0.2"/>
<path d="M121.642 111.952C123.03 111.952 124.158 113.08 124.158 114.469C124.158 115.857 123.03 116.985 121.642 116.985C120.253 116.985 119.125 115.857 119.125 114.469C119.125 113.08 120.253 111.952 121.642 111.952Z" fill="#E83E36" fill-opacity="0.2"/>
<path d="M121.642 40.7027C123.03 40.7027 124.158 41.8309 124.158 43.2195C124.158 44.6081 123.03 45.7363 121.642 45.7363C120.253 45.7363 119.125 44.6081 119.125 43.2195C119.125 41.8309 120.253 40.7027 121.642 40.7027Z" fill="#E83E36" fill-opacity="0.2"/>
<path d="M252.267 101.779C253.655 101.779 254.783 102.908 254.783 104.296C254.783 105.685 253.655 106.813 252.267 106.813C250.878 106.813 249.75 105.685 249.75 104.296C249.75 102.908 250.878 101.779 252.267 101.779Z" fill="#E83E36" fill-opacity="0.2"/>
<path d="M252.267 30.5299C253.655 30.5299 254.783 31.6581 254.783 33.0467C254.783 34.4353 253.655 35.5635 252.267 35.5635C250.878 35.5635 249.75 34.4353 249.75 33.0467C249.75 31.6581 250.878 30.5299 252.267 30.5299Z" fill="#E83E36" fill-opacity="0.2"/>
<path d="M131.517 101.779C132.905 101.779 134.033 102.908 134.033 104.296C134.033 105.685 132.905 106.813 131.517 106.813C130.128 106.813 129 105.685 129 104.296C129 102.908 130.128 101.779 131.517 101.779Z" fill="#E83E36" fill-opacity="0.2"/>
<path d="M131.517 30.5299C132.905 30.5299 134.033 31.6581 134.033 33.0467C134.033 34.4353 132.905 35.5635 131.517 35.5635C130.128 35.5635 129 34.4353 129 33.0467C129 31.6581 130.128 30.5299 131.517 30.5299Z" fill="#E83E36" fill-opacity="0.2"/>
<path d="M191.517 101.779C192.905 101.779 194.033 102.908 194.033 104.296C194.033 105.685 192.905 106.813 191.517 106.813C190.128 106.813 189 105.685 189 104.296C189 102.908 190.128 101.779 191.517 101.779Z" fill="#E83E36" fill-opacity="0.2"/>
<path d="M191.517 30.5299C192.905 30.5299 194.033 31.6581 194.033 33.0467C194.033 34.4353 192.905 35.5635 191.517 35.5635C190.128 35.5635 189 34.4353 189 33.0467C189 31.6581 190.128 30.5299 191.517 30.5299Z" fill="#E83E36" fill-opacity="0.2"/>
<path d="M70.7665 30.5299C72.155 30.5299 73.2831 31.6581 73.2831 33.0467C73.2831 34.4353 72.155 35.5635 70.7665 35.5635C69.3781 35.5635 68.25 34.4353 68.25 33.0467C68.25 31.6581 69.3781 30.5299 70.7665 30.5299Z" fill="#E83E36" fill-opacity="0.2"/>
<path d="M262.438 101.779C263.827 101.779 264.955 102.908 264.955 104.296C264.955 105.685 263.827 106.813 262.438 106.813C261.05 106.813 259.922 105.685 259.922 104.296C259.922 102.908 261.05 101.779 262.438 101.779Z" fill="#E83E36" fill-opacity="0.2"/>
<path d="M262.438 30.5299C263.827 30.5299 264.955 31.6581 264.955 33.0467C264.955 34.4353 263.827 35.5635 262.438 35.5635C261.05 35.5635 259.922 34.4353 259.922 33.0467C259.922 31.6581 261.05 30.5299 262.438 30.5299Z" fill="#E83E36" fill-opacity="0.2"/>
<path d="M141.688 101.779C143.077 101.779 144.205 102.908 144.205 104.296C144.205 105.685 143.077 106.813 141.688 106.813C140.3 106.813 139.172 105.685 139.172 104.296C139.172 102.908 140.3 101.779 141.688 101.779Z" fill="#E83E36" fill-opacity="0.2"/>
<path d="M141.688 30.5299C143.077 30.5299 144.205 31.6581 144.205 33.0467C144.205 34.4353 143.077 35.5635 141.688 35.5635C140.3 35.5635 139.172 34.4353 139.172 33.0467C139.172 31.6581 140.3 30.5299 141.688 30.5299Z" fill="#E83E36" fill-opacity="0.2"/>
<path d="M201.688 30.5299C203.077 30.5299 204.205 31.6581 204.205 33.0467C204.205 34.4353 203.077 35.5635 201.688 35.5635C200.3 35.5635 199.172 34.4353 199.172 33.0467C199.172 31.6581 200.3 30.5299 201.688 30.5299Z" fill="#E83E36" fill-opacity="0.2"/>
<path d="M80.9384 101.779C82.3268 101.779 83.4549 102.908 83.4549 104.296C83.4549 105.685 82.3268 106.813 80.9384 106.813C79.55 106.813 78.4219 105.685 78.4219 104.296C78.4219 102.908 79.55 101.779 80.9384 101.779Z" fill="#E83E36" fill-opacity="0.2"/>
<path d="M80.9384 30.5299C82.3268 30.5299 83.4549 31.6581 83.4549 33.0467C83.4549 34.4353 82.3268 35.5635 80.9384 35.5635C79.55 35.5635 78.4219 34.4353 78.4219 33.0467C78.4219 31.6581 79.55 30.5299 80.9384 30.5299Z" fill="#E83E36" fill-opacity="0.2"/>
<path d="M52.4384 30.5299C53.8268 30.5299 54.9549 31.6581 54.9549 33.0467C54.9549 34.4353 53.8268 35.5635 52.4384 35.5635C51.05 35.5635 49.9219 34.4353 49.9219 33.0467C49.9219 31.6581 51.05 30.5299 52.4384 30.5299Z" fill="#E83E36" fill-opacity="0.2"/>
<path d="M272.61 101.779C273.999 101.779 275.127 102.908 275.127 104.296C275.127 105.685 273.999 106.813 272.61 106.813C271.222 106.813 270.094 105.685 270.094 104.296C270.094 102.908 271.222 101.779 272.61 101.779Z" fill="#E83E36" fill-opacity="0.2"/>
<path d="M151.86 101.779C153.249 101.779 154.377 102.908 154.377 104.296C154.377 105.685 153.249 106.813 151.86 106.813C150.472 106.813 149.344 105.685 149.344 104.296C149.344 102.908 150.472 101.779 151.86 101.779Z" fill="#E83E36" fill-opacity="0.2"/>
<path d="M151.86 30.5299C153.249 30.5299 154.377 31.6581 154.377 33.0467C154.377 34.4353 153.249 35.5635 151.86 35.5635C150.472 35.5635 149.344 34.4353 149.344 33.0467C149.344 31.6581 150.472 30.5299 151.86 30.5299Z" fill="#E83E36" fill-opacity="0.2"/>
<path d="M211.86 101.779C213.249 101.779 214.377 102.908 214.377 104.296C214.377 105.685 213.249 106.813 211.86 106.813C210.472 106.813 209.344 105.685 209.344 104.296C209.344 102.908 210.472 101.779 211.86 101.779Z" fill="#E83E36" fill-opacity="0.2"/>
<path d="M211.86 30.5299C213.249 30.5299 214.377 31.6581 214.377 33.0467C214.377 34.4353 213.249 35.5635 211.86 35.5635C210.472 35.5635 209.344 34.4353 209.344 33.0467C209.344 31.6581 210.472 30.5299 211.86 30.5299Z" fill="#E83E36" fill-opacity="0.2"/>
<path d="M282.798 101.779C284.186 101.779 285.314 102.908 285.314 104.296C285.314 105.685 284.186 106.813 282.798 106.813C281.409 106.813 280.281 105.685 280.281 104.296C280.281 102.908 281.409 101.779 282.798 101.779Z" fill="#E83E36" fill-opacity="0.2"/>
<path d="M282.798 30.5299C284.186 30.5299 285.314 31.6581 285.314 33.0467C285.314 34.4353 284.186 35.5635 282.798 35.5635C281.409 35.5635 280.281 34.4353 280.281 33.0467C280.281 31.6581 281.409 30.5299 282.798 30.5299Z" fill="#E83E36" fill-opacity="0.2"/>
<path d="M162.048 101.779C163.436 101.779 164.564 102.908 164.564 104.296C164.564 105.685 163.436 106.813 162.048 106.813C160.659 106.813 159.531 105.685 159.531 104.296C159.531 102.908 160.659 101.779 162.048 101.779Z" fill="#E83E36" fill-opacity="0.2"/>
<path d="M222.048 101.779C223.436 101.779 224.564 102.908 224.564 104.296C224.564 105.685 223.436 106.813 222.048 106.813C220.659 106.813 219.531 105.685 219.531 104.296C219.531 102.908 220.659 101.779 222.048 101.779Z" fill="#E83E36" fill-opacity="0.2"/>
<path d="M222.048 30.5299C223.436 30.5299 224.564 31.6581 224.564 33.0467C224.564 34.4353 223.436 35.5635 222.048 35.5635C220.659 35.5635 219.531 34.4353 219.531 33.0467C219.531 31.6581 220.659 30.5299 222.048 30.5299Z" fill="#E83E36" fill-opacity="0.2"/>
<path d="M292.97 101.779C294.358 101.779 295.486 102.908 295.486 104.296C295.486 105.685 294.358 106.813 292.97 106.813C291.581 106.813 290.453 105.685 290.453 104.296C290.453 102.908 291.581 101.779 292.97 101.779Z" fill="#E83E36" fill-opacity="0.2"/>
<path d="M292.97 30.5299C294.358 30.5299 295.486 31.6581 295.486 33.0467C295.486 34.4353 294.358 35.5635 292.97 35.5635C291.581 35.5635 290.453 34.4353 290.453 33.0467C290.453 31.6581 291.581 30.5299 292.97 30.5299Z" fill="#E83E36" fill-opacity="0.2"/>
<path d="M232.22 101.779C233.608 101.779 234.736 102.908 234.736 104.296C234.736 105.685 233.608 106.813 232.22 106.813C230.831 106.813 229.703 105.685 229.703 104.296C229.703 102.908 230.831 101.779 232.22 101.779Z" fill="#E83E36" fill-opacity="0.2"/>
<path d="M111.47 101.779C112.858 101.779 113.986 102.908 113.986 104.296C113.986 105.685 112.858 106.813 111.47 106.813C110.081 106.813 108.953 105.685 108.953 104.296C108.953 102.908 110.081 101.779 111.47 101.779Z" fill="#E83E36" fill-opacity="0.2"/>
<path d="M111.47 30.5299C112.858 30.5299 113.986 31.6581 113.986 33.0467C113.986 34.4353 112.858 35.5635 111.47 35.5635C110.081 35.5635 108.953 34.4353 108.953 33.0467C108.953 31.6581 110.081 30.5299 111.47 30.5299Z" fill="#E83E36" fill-opacity="0.2"/>
<path d="M303.142 101.779C304.53 101.779 305.658 102.908 305.658 104.296C305.658 105.685 304.53 106.813 303.142 106.813C301.753 106.813 300.625 105.685 300.625 104.296C300.625 102.908 301.753 101.779 303.142 101.779Z" fill="#E83E36" fill-opacity="0.2"/>
<path d="M303.142 30.5299C304.53 30.5299 305.658 31.6581 305.658 33.0467C305.658 34.4353 304.53 35.5635 303.142 35.5635C301.753 35.5635 300.625 34.4353 300.625 33.0467C300.625 31.6581 301.753 30.5299 303.142 30.5299Z" fill="#E83E36" fill-opacity="0.2"/>
<path d="M182.392 101.779C183.78 101.779 184.908 102.908 184.908 104.296C184.908 105.685 183.78 106.813 182.392 106.813C181.003 106.813 179.875 105.685 179.875 104.296C179.875 102.908 181.003 101.779 182.392 101.779Z" fill="#E83E36" fill-opacity="0.2"/>
<path d="M182.392 30.5299C183.78 30.5299 184.908 31.6581 184.908 33.0467C184.908 34.4353 183.78 35.5635 182.392 35.5635C181.003 35.5635 179.875 34.4353 179.875 33.0467C179.875 31.6581 181.003 30.5299 182.392 30.5299Z" fill="#E83E36" fill-opacity="0.2"/>
<path d="M242.392 101.779C243.78 101.779 244.908 102.908 244.908 104.296C244.908 105.685 243.78 106.813 242.392 106.813C241.003 106.813 239.875 105.685 239.875 104.296C239.875 102.908 241.003 101.779 242.392 101.779Z" fill="#E83E36" fill-opacity="0.2"/>
<path d="M121.642 101.779C123.03 101.779 124.158 102.908 124.158 104.296C124.158 105.685 123.03 106.813 121.642 106.813C120.253 106.813 119.125 105.685 119.125 104.296C119.125 102.908 120.253 101.779 121.642 101.779Z" fill="#E83E36" fill-opacity="0.2"/>
<path d="M121.642 30.5299C123.03 30.5299 124.158 31.6581 124.158 33.0467C124.158 34.4353 123.03 35.5635 121.642 35.5635C120.253 35.5635 119.125 34.4353 119.125 33.0467C119.125 31.6581 120.253 30.5299 121.642 30.5299Z" fill="#E83E36" fill-opacity="0.2"/>
<path d="M252.267 91.5948C253.655 91.5948 254.783 92.723 254.783 94.1116C254.783 95.5002 253.655 96.6284 252.267 96.6284C250.878 96.6284 249.75 95.5002 249.75 94.1116C249.75 92.723 250.878 91.5948 252.267 91.5948Z" fill="#E83E36" fill-opacity="0.2"/>
<path d="M252.267 20.3458C253.655 20.3458 254.783 21.474 254.783 22.8626C254.783 24.2512 253.655 25.3794 252.267 25.3794C250.878 25.3794 249.75 24.2512 249.75 22.8626C249.75 21.474 250.878 20.3458 252.267 20.3458Z" fill="#E83E36" fill-opacity="0.2"/>
<path d="M131.517 91.5948C132.905 91.5948 134.033 92.723 134.033 94.1116C134.033 95.5002 132.905 96.6284 131.517 96.6284C130.128 96.6284 129 95.5002 129 94.1116C129 92.723 130.128 91.5948 131.517 91.5948Z" fill="#E83E36" fill-opacity="0.2"/>
<path d="M131.517 20.3458C132.905 20.3458 134.033 21.474 134.033 22.8626C134.033 24.2512 132.905 25.3794 131.517 25.3794C130.128 25.3794 129 24.2512 129 22.8626C129 21.474 130.128 20.3458 131.517 20.3458Z" fill="#E83E36" fill-opacity="0.2"/>
<path d="M191.517 91.5948C192.905 91.5948 194.033 92.723 194.033 94.1116C194.033 95.5002 192.905 96.6284 191.517 96.6284C190.128 96.6284 189 95.5002 189 94.1116C189 92.723 190.128 91.5948 191.517 91.5948Z" fill="#E83E36" fill-opacity="0.2"/>
<path d="M191.517 20.3458C192.905 20.3458 194.033 21.474 194.033 22.8626C194.033 24.2512 192.905 25.3794 191.517 25.3794C190.128 25.3794 189 24.2512 189 22.8626C189 21.474 190.128 20.3458 191.517 20.3458Z" fill="#E83E36" fill-opacity="0.2"/>
<path d="M70.7665 20.3458C72.155 20.3458 73.2831 21.474 73.2831 22.8626C73.2831 24.2512 72.155 25.3794 70.7665 25.3794C69.3781 25.3794 68.25 24.2512 68.25 22.8626C68.25 21.474 69.3781 20.3458 70.7665 20.3458Z" fill="#E83E36" fill-opacity="0.2"/>
<path d="M262.438 91.6055C263.828 91.6055 264.955 92.7324 264.955 94.1223C264.955 95.5123 263.828 96.6392 262.438 96.6392C261.049 96.6392 259.922 95.5123 259.922 94.1223C259.922 92.7324 261.049 91.6055 262.438 91.6055Z" fill="#E83E36" fill-opacity="0.2"/>
<path d="M141.688 91.6055C143.078 91.6055 144.205 92.7324 144.205 94.1223C144.205 95.5123 143.078 96.6392 141.688 96.6392C140.299 96.6392 139.172 95.5123 139.172 94.1223C139.172 92.7324 140.299 91.6055 141.688 91.6055Z" fill="#E83E36" fill-opacity="0.2"/>
<path d="M201.688 91.6055C203.078 91.6055 204.205 92.7324 204.205 94.1223C204.205 95.5123 203.078 96.6392 201.688 96.6392C200.299 96.6392 199.172 95.5123 199.172 94.1223C199.172 92.7324 200.299 91.6055 201.688 91.6055Z" fill="#E83E36" fill-opacity="0.2"/>
<path d="M201.688 20.3563C203.078 20.3563 204.205 21.4831 204.205 22.8731C204.205 24.2631 203.078 25.3899 201.688 25.3899C200.299 25.3899 199.172 24.2631 199.172 22.8731C199.172 21.4831 200.299 20.3563 201.688 20.3563Z" fill="#E83E36" fill-opacity="0.2"/>
<path d="M80.9384 91.6055C82.3282 91.6055 83.4549 92.7324 83.4549 94.1223C83.4549 95.5123 82.3282 96.6392 80.9384 96.6392C79.5485 96.6392 78.4219 95.5123 78.4219 94.1223C78.4219 92.7324 79.5485 91.6055 80.9384 91.6055Z" fill="#E83E36" fill-opacity="0.2"/>
<path d="M275.126 22.8656C275.13 24.2555 274.006 25.3855 272.617 25.3894C271.227 25.3932 270.097 24.2696 270.093 22.8796C270.089 21.4896 271.213 20.3596 272.602 20.3558C273.992 20.3519 275.122 21.4756 275.126 22.8656Z" fill="#E83E36" fill-opacity="0.2"/>
<path d="M154.376 94.1146C154.38 95.5046 153.256 96.6345 151.867 96.6384C150.477 96.6423 149.347 95.5186 149.343 94.1286C149.339 92.7386 150.463 91.6087 151.852 91.6048C153.242 91.6009 154.372 92.7246 154.376 94.1146Z" fill="#E83E36" fill-opacity="0.2"/>
<path d="M154.376 22.8656C154.38 24.2555 153.256 25.3855 151.867 25.3894C150.477 25.3932 149.347 24.2696 149.343 22.8796C149.339 21.4896 150.463 20.3596 151.852 20.3558C153.242 20.3519 154.372 21.4756 154.376 22.8656Z" fill="#E83E36" fill-opacity="0.2"/>
<path d="M214.376 94.1146C214.38 95.5046 213.256 96.6345 211.867 96.6384C210.477 96.6423 209.347 95.5186 209.343 94.1286C209.339 92.7386 210.463 91.6087 211.852 91.6048C213.242 91.6009 214.372 92.7246 214.376 94.1146Z" fill="#E83E36" fill-opacity="0.2"/>
<path d="M214.376 22.8656C214.38 24.2555 213.256 25.3855 211.867 25.3894C210.477 25.3932 209.347 24.2696 209.343 22.8796C209.339 21.4896 210.463 20.3596 211.852 20.3558C213.242 20.3519 214.372 21.4756 214.376 22.8656Z" fill="#E83E36" fill-opacity="0.2"/>
<path d="M93.626 22.8656C93.6299 24.2555 92.5063 25.3855 91.1165 25.3894C89.7267 25.3932 88.5968 24.2696 88.593 22.8796C88.5891 21.4896 89.7126 20.3596 91.1025 20.3558C92.4923 20.3519 93.6221 21.4756 93.626 22.8656Z" fill="#E83E36" fill-opacity="0.2"/>
<path d="M282.798 91.5948C284.186 91.5948 285.314 92.723 285.314 94.1116C285.314 95.5002 284.186 96.6284 282.798 96.6284C281.409 96.6284 280.281 95.5002 280.281 94.1116C280.281 92.723 281.409 91.5948 282.798 91.5948Z" fill="#E83E36" fill-opacity="0.2"/>
<path d="M282.798 20.3458C284.186 20.3458 285.314 21.474 285.314 22.8626C285.314 24.2512 284.186 25.3794 282.798 25.3794C281.409 25.3794 280.281 24.2512 280.281 22.8626C280.281 21.474 281.409 20.3458 282.798 20.3458Z" fill="#E83E36" fill-opacity="0.2"/>
<path d="M162.048 91.5948C163.436 91.5948 164.564 92.723 164.564 94.1116C164.564 95.5002 163.436 96.6284 162.048 96.6284C160.659 96.6284 159.531 95.5002 159.531 94.1116C159.531 92.723 160.659 91.5948 162.048 91.5948Z" fill="#E83E36" fill-opacity="0.2"/>
<path d="M162.048 20.3458C163.436 20.3458 164.564 21.474 164.564 22.8626C164.564 24.2512 163.436 25.3794 162.048 25.3794C160.659 25.3794 159.531 24.2512 159.531 22.8626C159.531 21.474 160.659 20.3458 162.048 20.3458Z" fill="#E83E36" fill-opacity="0.2"/>
<path d="M222.048 91.5948C223.436 91.5948 224.564 92.723 224.564 94.1116C224.564 95.5002 223.436 96.6284 222.048 96.6284C220.659 96.6284 219.531 95.5002 219.531 94.1116C219.531 92.723 220.659 91.5948 222.048 91.5948Z" fill="#E83E36" fill-opacity="0.2"/>
<path d="M292.97 91.6055C294.359 91.6055 295.486 92.7324 295.486 94.1223C295.486 95.5123 294.359 96.6392 292.97 96.6392C291.58 96.6392 290.453 95.5123 290.453 94.1223C290.453 92.7324 291.58 91.6055 292.97 91.6055Z" fill="#E83E36" fill-opacity="0.2"/>
<path d="M172.22 91.6055C173.609 91.6055 174.736 92.7324 174.736 94.1223C174.736 95.5123 173.609 96.6392 172.22 96.6392C170.83 96.6392 169.703 95.5123 169.703 94.1223C169.703 92.7324 170.83 91.6055 172.22 91.6055Z" fill="#E83E36" fill-opacity="0.2"/>
<path d="M232.22 91.6055C233.609 91.6055 234.736 92.7324 234.736 94.1223C234.736 95.5123 233.609 96.6392 232.22 96.6392C230.83 96.6392 229.703 95.5123 229.703 94.1223C229.703 92.7324 230.83 91.6055 232.22 91.6055Z" fill="#E83E36" fill-opacity="0.2"/>
<path d="M111.47 91.6055C112.859 91.6055 113.986 92.7324 113.986 94.1223C113.986 95.5123 112.859 96.6392 111.47 96.6392C110.08 96.6392 108.953 95.5123 108.953 94.1223C108.953 92.7324 110.08 91.6055 111.47 91.6055Z" fill="#E83E36" fill-opacity="0.2"/>
<path d="M303.142 91.5948C304.53 91.5948 305.658 92.723 305.658 94.1116C305.658 95.5002 304.53 96.6284 303.142 96.6284C301.753 96.6284 300.625 95.5002 300.625 94.1116C300.625 92.723 301.753 91.5948 303.142 91.5948Z" fill="#E83E36" fill-opacity="0.2"/>
<path d="M303.142 20.3458C304.53 20.3458 305.658 21.474 305.658 22.8626C305.658 24.2512 304.53 25.3794 303.142 25.3794C301.753 25.3794 300.625 24.2512 300.625 22.8626C300.625 21.474 301.753 20.3458 303.142 20.3458Z" fill="#E83E36" fill-opacity="0.2"/>
<path d="M182.392 91.5948C183.78 91.5948 184.908 92.723 184.908 94.1116C184.908 95.5002 183.78 96.6284 182.392 96.6284C181.003 96.6284 179.875 95.5002 179.875 94.1116C179.875 92.723 181.003 91.5948 182.392 91.5948Z" fill="#E83E36" fill-opacity="0.2"/>
<path d="M242.392 91.5948C243.78 91.5948 244.908 92.723 244.908 94.1116C244.908 95.5002 243.78 96.6284 242.392 96.6284C241.003 96.6284 239.875 95.5002 239.875 94.1116C239.875 92.723 241.003 91.5948 242.392 91.5948Z" fill="#E83E36" fill-opacity="0.2"/>
<path d="M252.267 81.4219C253.655 81.4219 254.783 82.5502 254.783 83.9388C254.783 85.3273 253.655 86.4556 252.267 86.4556C250.878 86.4556 249.75 85.3273 249.75 83.9388C249.75 82.5502 250.878 81.4219 252.267 81.4219Z" fill="#E83E36" fill-opacity="0.2"/>
<path d="M131.517 81.4219C132.905 81.4219 134.033 82.5502 134.033 83.9388C134.033 85.3273 132.905 86.4556 131.517 86.4556C130.128 86.4556 129 85.3273 129 83.9388C129 82.5502 130.128 81.4219 131.517 81.4219Z" fill="#E83E36" fill-opacity="0.2"/>
<path d="M191.517 81.4219C192.905 81.4219 194.033 82.5502 194.033 83.9388C194.033 85.3273 192.905 86.4556 191.517 86.4556C190.128 86.4556 189 85.3273 189 83.9388C189 82.5502 190.128 81.4219 191.517 81.4219Z" fill="#E83E36" fill-opacity="0.2"/>
<path d="M70.7665 81.4219C72.155 81.4219 73.2831 82.5502 73.2831 83.9388C73.2831 85.3273 72.155 86.4556 70.7665 86.4556C69.3781 86.4556 68.25 85.3273 68.25 83.9388C68.25 82.5502 69.3781 81.4219 70.7665 81.4219Z" fill="#E83E36" fill-opacity="0.2"/>
<path d="M70.7665 10.1729C72.155 10.1729 73.2831 11.3011 73.2831 12.6897C73.2831 14.0783 72.155 15.2065 70.7665 15.2065C69.3781 15.2065 68.25 14.0783 68.25 12.6897C68.25 11.3011 69.3781 10.1729 70.7665 10.1729Z" fill="#E83E36" fill-opacity="0.2"/>
<path d="M262.438 81.4219C263.827 81.4219 264.955 82.5502 264.955 83.9388C264.955 85.3273 263.827 86.4556 262.438 86.4556C261.05 86.4556 259.922 85.3273 259.922 83.9388C259.922 82.5502 261.05 81.4219 262.438 81.4219Z" fill="#E83E36" fill-opacity="0.2"/>
<path d="M262.438 10.1729C263.827 10.1729 264.955 11.3011 264.955 12.6897C264.955 14.0783 263.827 15.2065 262.438 15.2065C261.05 15.2065 259.922 14.0783 259.922 12.6897C259.922 11.3011 261.05 10.1729 262.438 10.1729Z" fill="#E83E36" fill-opacity="0.2"/>
<path d="M141.688 81.4219C143.077 81.4219 144.205 82.5502 144.205 83.9388C144.205 85.3273 143.077 86.4556 141.688 86.4556C140.3 86.4556 139.172 85.3273 139.172 83.9388C139.172 82.5502 140.3 81.4219 141.688 81.4219Z" fill="#E83E36" fill-opacity="0.2"/>
<path d="M201.688 81.4219C203.077 81.4219 204.205 82.5502 204.205 83.9388C204.205 85.3273 203.077 86.4556 201.688 86.4556C200.3 86.4556 199.172 85.3273 199.172 83.9388C199.172 82.5502 200.3 81.4219 201.688 81.4219Z" fill="#E83E36" fill-opacity="0.2"/>
<path d="M272.61 81.4219C273.999 81.4219 275.127 82.5502 275.127 83.9388C275.127 85.3273 273.999 86.4556 272.61 86.4556C271.222 86.4556 270.094 85.3273 270.094 83.9388C270.094 82.5502 271.222 81.4219 272.61 81.4219Z" fill="#E83E36" fill-opacity="0.2"/>
<path d="M151.86 10.1729C153.249 10.1729 154.377 11.3011 154.377 12.6897C154.377 14.0783 153.249 15.2065 151.86 15.2065C150.472 15.2065 149.344 14.0783 149.344 12.6897C149.344 11.3011 150.472 10.1729 151.86 10.1729Z" fill="#E83E36" fill-opacity="0.2"/>
<path d="M211.86 81.4219C213.249 81.4219 214.377 82.5502 214.377 83.9388C214.377 85.3273 213.249 86.4556 211.86 86.4556C210.472 86.4556 209.344 85.3273 209.344 83.9388C209.344 82.5502 210.472 81.4219 211.86 81.4219Z" fill="#E83E36" fill-opacity="0.2"/>
<path d="M91.1103 81.4219C92.4987 81.4219 93.6268 82.5502 93.6268 83.9388C93.6268 85.3273 92.4987 86.4556 91.1103 86.4556C89.7219 86.4556 88.5938 85.3273 88.5938 83.9388C88.5938 82.5502 89.7219 81.4219 91.1103 81.4219Z" fill="#E83E36" fill-opacity="0.2"/>
<path d="M91.1103 10.1729C92.4987 10.1729 93.6268 11.3011 93.6268 12.6897C93.6268 14.0783 92.4987 15.2065 91.1103 15.2065C89.7219 15.2065 88.5938 14.0783 88.5938 12.6897C88.5938 11.3011 89.7219 10.1729 91.1103 10.1729Z" fill="#E83E36" fill-opacity="0.2"/>
<path d="M282.798 81.4219C284.186 81.4219 285.314 82.5502 285.314 83.9388C285.314 85.3273 284.186 86.4556 282.798 86.4556C281.409 86.4556 280.281 85.3273 280.281 83.9388C280.281 82.5502 281.409 81.4219 282.798 81.4219Z" fill="#E83E36" fill-opacity="0.2"/>
<path d="M162.048 81.4219C163.436 81.4219 164.564 82.5502 164.564 83.9388C164.564 85.3273 163.436 86.4556 162.048 86.4556C160.659 86.4556 159.531 85.3273 159.531 83.9388C159.531 82.5502 160.659 81.4219 162.048 81.4219Z" fill="#E83E36" fill-opacity="0.2"/>
<path d="M222.048 81.4219C223.436 81.4219 224.564 82.5502 224.564 83.9388C224.564 85.3273 223.436 86.4556 222.048 86.4556C220.659 86.4556 219.531 85.3273 219.531 83.9388C219.531 82.5502 220.659 81.4219 222.048 81.4219Z" fill="#E83E36" fill-opacity="0.2"/>
<path d="M101.298 81.4219C102.686 81.4219 103.814 82.5502 103.814 83.9388C103.814 85.3273 102.686 86.4556 101.298 86.4556C99.9094 86.4556 98.7812 85.3273 98.7812 83.9388C98.7812 82.5502 99.9094 81.4219 101.298 81.4219Z" fill="#E83E36" fill-opacity="0.2"/>
<path d="M101.298 10.1729C102.686 10.1729 103.814 11.3011 103.814 12.6897C103.814 14.0783 102.686 15.2065 101.298 15.2065C99.9094 15.2065 98.7812 14.0783 98.7812 12.6897C98.7812 11.3011 99.9094 10.1729 101.298 10.1729Z" fill="#E83E36" fill-opacity="0.2"/>
<path d="M292.97 81.4219C294.358 81.4219 295.486 82.5502 295.486 83.9388C295.486 85.3273 294.358 86.4556 292.97 86.4556C291.581 86.4556 290.453 85.3273 290.453 83.9388C290.453 82.5502 291.581 81.4219 292.97 81.4219Z" fill="#E83E36" fill-opacity="0.2"/>
<path d="M232.22 81.4219C233.608 81.4219 234.736 82.5502 234.736 83.9388C234.736 85.3273 233.608 86.4556 232.22 86.4556C230.831 86.4556 229.703 85.3273 229.703 83.9388C229.703 82.5502 230.831 81.4219 232.22 81.4219Z" fill="#E83E36" fill-opacity="0.2"/>
<path d="M111.47 81.4219C112.858 81.4219 113.986 82.5502 113.986 83.9388C113.986 85.3273 112.858 86.4556 111.47 86.4556C110.081 86.4556 108.953 85.3273 108.953 83.9388C108.953 82.5502 110.081 81.4219 111.47 81.4219Z" fill="#E83E36" fill-opacity="0.2"/>
<path d="M303.142 81.4219C304.53 81.4219 305.658 82.5502 305.658 83.9388C305.658 85.3273 304.53 86.4556 303.142 86.4556C301.753 86.4556 300.625 85.3273 300.625 83.9388C300.625 82.5502 301.753 81.4219 303.142 81.4219Z" fill="#E83E36" fill-opacity="0.2"/>
<path d="M303.142 10.1729C304.53 10.1729 305.658 11.3011 305.658 12.6897C305.658 14.0783 304.53 15.2065 303.142 15.2065C301.753 15.2065 300.625 14.0783 300.625 12.6897C300.625 11.3011 301.753 10.1729 303.142 10.1729Z" fill="#E83E36" fill-opacity="0.2"/>
<path d="M182.392 81.4219C183.78 81.4219 184.908 82.5502 184.908 83.9388C184.908 85.3273 183.78 86.4556 182.392 86.4556C181.003 86.4556 179.875 85.3273 179.875 83.9388C179.875 82.5502 181.003 81.4219 182.392 81.4219Z" fill="#E83E36" fill-opacity="0.2"/>
<path d="M182.392 10.1729C183.78 10.1729 184.908 11.3011 184.908 12.6897C184.908 14.0783 183.78 15.2065 182.392 15.2065C181.003 15.2065 179.875 14.0783 179.875 12.6897C179.875 11.3011 181.003 10.1729 182.392 10.1729Z" fill="#E83E36" fill-opacity="0.2"/>
<path d="M242.392 81.4219C243.78 81.4219 244.908 82.5502 244.908 83.9388C244.908 85.3273 243.78 86.4556 242.392 86.4556C241.003 86.4556 239.875 85.3273 239.875 83.9388C239.875 82.5502 241.003 81.4219 242.392 81.4219Z" fill="#E83E36" fill-opacity="0.2"/>
<path d="M121.642 81.4219C123.03 81.4219 124.158 82.5502 124.158 83.9388C124.158 85.3273 123.03 86.4556 121.642 86.4556C120.253 86.4556 119.125 85.3273 119.125 83.9388C119.125 82.5502 120.253 81.4219 121.642 81.4219Z" fill="#E83E36" fill-opacity="0.2"/>
<path d="M121.642 10.1729C123.03 10.1729 124.158 11.3011 124.158 12.6897C124.158 14.0783 123.03 15.2065 121.642 15.2065C120.253 15.2065 119.125 14.0783 119.125 12.6897C119.125 11.3011 120.253 10.1729 121.642 10.1729Z" fill="#E83E36" fill-opacity="0.2"/>
<path d="M252.267 71.2493C253.655 71.2493 254.783 72.3776 254.783 73.7661C254.783 75.1547 253.655 76.283 252.267 76.283C250.878 76.283 249.75 75.1547 249.75 73.7661C249.75 72.3776 250.878 71.2493 252.267 71.2493Z" fill="#E83E36" fill-opacity="0.2"/>
<path d="M131.517 7.00951e-05C132.905 7.00951e-05 134.033 1.1283 134.033 2.51688C134.033 3.90547 132.905 5.03369 131.517 5.03369C130.128 5.03369 129 3.90547 129 2.51688C129 1.1283 130.128 7.00951e-05 131.517 7.00951e-05Z" fill="#E83E36" fill-opacity="0.2"/>
<path d="M191.517 71.2493C192.905 71.2493 194.033 72.3776 194.033 73.7661C194.033 75.1547 192.905 76.283 191.517 76.283C190.128 76.283 189 75.1547 189 73.7661C189 72.3776 190.128 71.2493 191.517 71.2493Z" fill="#E83E36" fill-opacity="0.2"/>
<path d="M262.438 71.2493C263.827 71.2493 264.955 72.3776 264.955 73.7661C264.955 75.1547 263.827 76.283 262.438 76.283C261.05 76.283 259.922 75.1547 259.922 73.7661C259.922 72.3776 261.05 71.2493 262.438 71.2493Z" fill="#E83E36" fill-opacity="0.2"/>
<path d="M141.688 71.2493C143.077 71.2493 144.205 72.3776 144.205 73.7661C144.205 75.1547 143.077 76.283 141.688 76.283C140.3 76.283 139.172 75.1547 139.172 73.7661C139.172 72.3776 140.3 71.2493 141.688 71.2493Z" fill="#E83E36" fill-opacity="0.2"/>
<path d="M80.9384 71.2493C82.3268 71.2493 83.4549 72.3776 83.4549 73.7661C83.4549 75.1547 82.3268 76.283 80.9384 76.283C79.55 76.283 78.4219 75.1547 78.4219 73.7661C78.4219 72.3776 79.55 71.2493 80.9384 71.2493Z" fill="#E83E36" fill-opacity="0.2"/>
<path d="M272.61 71.2493C273.999 71.2493 275.127 72.3776 275.127 73.7661C275.127 75.1547 273.999 76.283 272.61 76.283C271.222 76.283 270.094 75.1547 270.094 73.7661C270.094 72.3776 271.222 71.2493 272.61 71.2493Z" fill="#E83E36" fill-opacity="0.2"/>
<path d="M151.86 71.2493C153.249 71.2493 154.377 72.3776 154.377 73.7661C154.377 75.1547 153.249 76.283 151.86 76.283C150.472 76.283 149.344 75.1547 149.344 73.7661C149.344 72.3776 150.472 71.2493 151.86 71.2493Z" fill="#E83E36" fill-opacity="0.2"/>
<path d="M211.86 71.2493C213.249 71.2493 214.377 72.3776 214.377 73.7661C214.377 75.1547 213.249 76.283 211.86 76.283C210.472 76.283 209.344 75.1547 209.344 73.7661C209.344 72.3776 210.472 71.2493 211.86 71.2493Z" fill="#E83E36" fill-opacity="0.2"/>
<path d="M91.1103 71.2493C92.4987 71.2493 93.6268 72.3776 93.6268 73.7661C93.6268 75.1547 92.4987 76.283 91.1103 76.283C89.7219 76.283 88.5938 75.1547 88.5938 73.7661C88.5938 72.3776 89.7219 71.2493 91.1103 71.2493Z" fill="#E83E36" fill-opacity="0.2"/>
<path d="M282.798 71.2493C284.186 71.2493 285.314 72.3776 285.314 73.7661C285.314 75.1547 284.186 76.283 282.798 76.283C281.409 76.283 280.281 75.1547 280.281 73.7661C280.281 72.3776 281.409 71.2493 282.798 71.2493Z" fill="#E83E36" fill-opacity="0.2"/>
<path d="M282.798 7.00951e-05C284.186 7.00951e-05 285.314 1.1283 285.314 2.51688C285.314 3.90547 284.186 5.03369 282.798 5.03369C281.409 5.03369 280.281 3.90547 280.281 2.51688C280.281 1.1283 281.409 7.00951e-05 282.798 7.00951e-05Z" fill="#E83E36" fill-opacity="0.2"/>
<path d="M162.048 7.00951e-05C163.436 7.00951e-05 164.564 1.1283 164.564 2.51688C164.564 3.90547 163.436 5.03369 162.048 5.03369C160.659 5.03369 159.531 3.90547 159.531 2.51688C159.531 1.1283 160.659 7.00951e-05 162.048 7.00951e-05Z" fill="#E83E36" fill-opacity="0.2"/>
<path d="M222.048 71.2493C223.436 71.2493 224.564 72.3776 224.564 73.7661C224.564 75.1547 223.436 76.283 222.048 76.283C220.659 76.283 219.531 75.1547 219.531 73.7661C219.531 72.3776 220.659 71.2493 222.048 71.2493Z" fill="#E83E36" fill-opacity="0.2"/>
<path d="M101.298 71.2493C102.686 71.2493 103.814 72.3776 103.814 73.7661C103.814 75.1547 102.686 76.283 101.298 76.283C99.9094 76.283 98.7812 75.1547 98.7812 73.7661C98.7812 72.3776 99.9094 71.2493 101.298 71.2493Z" fill="#E83E36" fill-opacity="0.2"/>
<path d="M303.142 71.2493C304.53 71.2493 305.658 72.3776 305.658 73.7661C305.658 75.1547 304.53 76.283 303.142 76.283C301.753 76.283 300.625 75.1547 300.625 73.7661C300.625 72.3776 301.753 71.2493 303.142 71.2493Z" fill="#E83E36" fill-opacity="0.2"/>
<path d="M303.142 7.00951e-05C304.53 7.00951e-05 305.658 1.1283 305.658 2.51688C305.658 3.90547 304.53 5.03369 303.142 5.03369C301.753 5.03369 300.625 3.90547 300.625 2.51688C300.625 1.1283 301.753 7.00951e-05 303.142 7.00951e-05Z" fill="#E83E36" fill-opacity="0.2"/>
<path d="M182.392 71.2493C183.78 71.2493 184.908 72.3776 184.908 73.7661C184.908 75.1547 183.78 76.283 182.392 76.283C181.003 76.283 179.875 75.1547 179.875 73.7661C179.875 72.3776 181.003 71.2493 182.392 71.2493Z" fill="#E83E36" fill-opacity="0.2"/>
<path d="M182.392 7.00951e-05C183.78 7.00951e-05 184.908 1.1283 184.908 2.51688C184.908 3.90547 183.78 5.03369 182.392 5.03369C181.003 5.03369 179.875 3.90547 179.875 2.51688C179.875 1.1283 181.003 7.00951e-05 182.392 7.00951e-05Z" fill="#E83E36" fill-opacity="0.2"/>
<path d="M242.392 71.2493C243.78 71.2493 244.908 72.3776 244.908 73.7661C244.908 75.1547 243.78 76.283 242.392 76.283C241.003 76.283 239.875 75.1547 239.875 73.7661C239.875 72.3776 241.003 71.2493 242.392 71.2493Z" fill="#E83E36" fill-opacity="0.2"/>
<path d="M121.642 71.2493C123.03 71.2493 124.158 72.3776 124.158 73.7661C124.158 75.1547 123.03 76.283 121.642 76.283C120.253 76.283 119.125 75.1547 119.125 73.7661C119.125 72.3776 120.253 71.2493 121.642 71.2493Z" fill="#E83E36" fill-opacity="0.2"/>
<path d="M121.642 7.00951e-05C123.03 7.00951e-05 124.158 1.1283 124.158 2.51688C124.158 3.90547 123.03 5.03369 121.642 5.03369C120.253 5.03369 119.125 3.90547 119.125 2.51688C119.125 1.1283 120.253 7.00951e-05 121.642 7.00951e-05Z" fill="#E83E36" fill-opacity="0.2"/>
</svg>
