<svg width="408" height="185" viewBox="0 0 408 185" fill="none" xmlns="http://www.w3.org/2000/svg">
<path d="M71.1798 7.67683C69.3285 7.67683 67.8244 6.17253 67.8244 4.32108C67.8244 2.46963 69.3285 0.965332 71.1798 0.965332C73.031 0.965332 74.5352 2.46963 74.5352 4.32108C74.5352 6.17253 73.031 7.67683 71.1798 7.67683Z" fill="#E83E36"/>
<path d="M232.18 7.67683C230.329 7.67683 228.824 6.17253 228.824 4.32108C228.824 2.46963 230.329 0.965332 232.18 0.965332C234.031 0.965332 235.535 2.46963 235.535 4.32108C235.535 6.17253 234.031 7.67683 232.18 7.67683Z" fill="#E83E36"/>
<path d="M232.18 102.676C230.329 102.676 228.824 101.172 228.824 99.3201C228.824 97.4687 230.329 95.9644 232.18 95.9644C234.031 95.9644 235.535 97.4687 235.535 99.3201C235.535 101.172 234.031 102.676 232.18 102.676Z" fill="#E83E36"/>
<path d="M152.18 7.67683C150.329 7.67683 148.824 6.17253 148.824 4.32108C148.824 2.46963 150.329 0.965332 152.18 0.965332C154.031 0.965332 155.535 2.46963 155.535 4.32108C155.535 6.17253 154.031 7.67683 152.18 7.67683Z" fill="#E83E36"/>
<path d="M57.6212 7.67683C55.77 7.67683 54.2658 6.17253 54.2658 4.32108C54.2658 2.46963 55.77 0.965332 57.6212 0.965332C59.4724 0.965332 60.9766 2.46963 60.9766 4.32108C60.9766 6.17253 59.4724 7.67683 57.6212 7.67683Z" fill="#E83E36"/>
<path d="M57.6212 102.676C55.77 102.676 54.2658 101.172 54.2658 99.3201C54.2658 97.4687 55.77 95.9644 57.6212 95.9644C59.4724 95.9644 60.9766 97.4687 60.9766 99.3201C60.9766 101.172 59.4724 102.676 57.6212 102.676Z" fill="#E83E36"/>
<path d="M218.621 7.67683C216.77 7.67683 215.266 6.17253 215.266 4.32108C215.266 2.46963 216.77 0.965332 218.621 0.965332C220.472 0.965332 221.977 2.46963 221.977 4.32108C221.977 6.17253 220.472 7.67683 218.621 7.67683Z" fill="#E83E36"/>
<path d="M218.621 102.676C216.77 102.676 215.266 101.172 215.266 99.3201C215.266 97.4687 216.77 95.9644 218.621 95.9644C220.472 95.9644 221.977 97.4687 221.977 99.3201C221.977 101.172 220.472 102.676 218.621 102.676Z" fill="#E83E36"/>
<path d="M138.621 7.67683C136.77 7.67683 135.266 6.17253 135.266 4.32108C135.266 2.46963 136.77 0.965332 138.621 0.965332C140.472 0.965332 141.977 2.46963 141.977 4.32108C141.977 6.17253 140.472 7.67683 138.621 7.67683Z" fill="#E83E36"/>
<path d="M138.621 102.676C136.77 102.676 135.266 101.172 135.266 99.3201C135.266 97.4687 136.77 95.9644 138.621 95.9644C140.472 95.9644 141.977 97.4687 141.977 99.3201C141.977 101.172 140.472 102.676 138.621 102.676Z" fill="#E83E36"/>
<path d="M299.621 7.67683C297.77 7.67683 296.266 6.17253 296.266 4.32108C296.266 2.46963 297.77 0.965332 299.621 0.965332C301.472 0.965332 302.977 2.46963 302.977 4.32108C302.977 6.17253 301.472 7.67683 299.621 7.67683Z" fill="#E83E36"/>
<path d="M299.621 102.676C297.77 102.676 296.266 101.172 296.266 99.3201C296.266 97.4687 297.77 95.9644 299.621 95.9644C301.472 95.9644 302.977 97.4687 302.977 99.3201C302.977 101.172 301.472 102.676 299.621 102.676Z" fill="#E83E36"/>
<path d="M44.0587 7.67683C42.2074 7.67683 40.7033 6.17253 40.7033 4.32108C40.7033 2.46963 42.2074 0.965332 44.0587 0.965332C45.9099 0.965332 47.4141 2.46963 47.4141 4.32108C47.4141 6.17253 45.9099 7.67683 44.0587 7.67683Z" fill="#E83E36"/>
<path d="M44.0587 102.676C42.2074 102.676 40.7033 101.172 40.7033 99.3201C40.7033 97.4687 42.2074 95.9644 44.0587 95.9644C45.9099 95.9644 47.4141 97.4687 47.4141 99.3201C47.4141 101.172 45.9099 102.676 44.0587 102.676Z" fill="#E83E36"/>
<path d="M205.059 7.67683C203.207 7.67683 201.703 6.17253 201.703 4.32108C201.703 2.46963 203.207 0.965332 205.059 0.965332C206.91 0.965332 208.414 2.46963 208.414 4.32108C208.414 6.17253 206.91 7.67683 205.059 7.67683Z" fill="#E83E36"/>
<path d="M125.059 7.67683C123.207 7.67683 121.703 6.17253 121.703 4.32108C121.703 2.46963 123.207 0.965332 125.059 0.965332C126.91 0.965332 128.414 2.46963 128.414 4.32108C128.414 6.17253 126.91 7.67683 125.059 7.67683Z" fill="#E83E36"/>
<path d="M125.059 102.676C123.207 102.676 121.703 101.172 121.703 99.3201C121.703 97.4687 123.207 95.9644 125.059 95.9644C126.91 95.9644 128.414 97.4687 128.414 99.3201C128.414 101.172 126.91 102.676 125.059 102.676Z" fill="#E83E36"/>
<path d="M286.059 102.676C284.207 102.676 282.703 101.172 282.703 99.3201C282.703 97.4687 284.207 95.9644 286.059 95.9644C287.91 95.9644 289.414 97.4687 289.414 99.3201C289.414 101.172 287.91 102.676 286.059 102.676Z" fill="#E83E36"/>
<path d="M30.4805 7.67683C28.6293 7.67683 27.1252 6.17253 27.1252 4.32108C27.1252 2.46963 28.6293 0.965332 30.4805 0.965332C32.3318 0.965332 33.8359 2.46963 33.8359 4.32108C33.8359 6.17253 32.3318 7.67683 30.4805 7.67683Z" fill="#E83E36"/>
<path d="M30.4805 102.676C28.6293 102.676 27.1252 101.172 27.1252 99.3201C27.1252 97.4687 28.6293 95.9644 30.4805 95.9644C32.3318 95.9644 33.8359 97.4687 33.8359 99.3201C33.8359 101.172 32.3318 102.676 30.4805 102.676Z" fill="#E83E36"/>
<path d="M191.481 7.67683C189.629 7.67683 188.125 6.17253 188.125 4.32108C188.125 2.46963 189.629 0.965332 191.481 0.965332C193.332 0.965332 194.836 2.46963 194.836 4.32108C194.836 6.17253 193.332 7.67683 191.481 7.67683Z" fill="#E83E36"/>
<path d="M191.481 102.676C189.629 102.676 188.125 101.172 188.125 99.3201C188.125 97.4687 189.629 95.9644 191.481 95.9644C193.332 95.9644 194.836 97.4687 194.836 99.3201C194.836 101.172 193.332 102.676 191.481 102.676Z" fill="#E83E36"/>
<path d="M111.477 7.67683C109.625 7.67683 108.121 6.17253 108.121 4.32108C108.121 2.46963 109.625 0.965332 111.477 0.965332C113.328 0.965332 114.832 2.46963 114.832 4.32108C114.832 6.17253 113.328 7.67683 111.477 7.67683Z" fill="#E83E36"/>
<path d="M272.481 7.67683C270.629 7.67683 269.125 6.17253 269.125 4.32108C269.125 2.46963 270.629 0.965332 272.481 0.965332C274.332 0.965332 275.836 2.46963 275.836 4.32108C275.836 6.17253 274.332 7.67683 272.481 7.67683Z" fill="#E83E36"/>
<path d="M272.481 102.676C270.629 102.676 269.125 101.172 269.125 99.3201C269.125 97.4687 270.629 95.9644 272.481 95.9644C274.332 95.9644 275.836 97.4687 275.836 99.3201C275.836 101.172 274.332 102.676 272.481 102.676Z" fill="#E83E36"/>
<path d="M16.9181 7.67683C15.0668 7.67683 13.5627 6.17253 13.5627 4.32108C13.5627 2.46963 15.0668 0.965332 16.9181 0.965332C18.7693 0.965332 20.2734 2.46963 20.2734 4.32108C20.2734 6.17253 18.7693 7.67683 16.9181 7.67683Z" fill="#E83E36"/>
<path d="M16.9181 102.676C15.0668 102.676 13.5627 101.172 13.5627 99.3201C13.5627 97.4687 15.0668 95.9644 16.9181 95.9644C18.7693 95.9644 20.2734 97.4687 20.2734 99.3201C20.2734 101.172 18.7693 102.676 16.9181 102.676Z" fill="#E83E36"/>
<path d="M177.918 7.67683C176.067 7.67683 174.563 6.17253 174.563 4.32108C174.563 2.46963 176.067 0.965332 177.918 0.965332C179.769 0.965332 181.273 2.46963 181.273 4.32108C181.273 6.17253 179.769 7.67683 177.918 7.67683Z" fill="#E83E36"/>
<path d="M97.9181 7.67683C96.0668 7.67683 94.5627 6.17253 94.5627 4.32108C94.5627 2.46963 96.0668 0.965332 97.9181 0.965332C99.7693 0.965332 101.273 2.46963 101.273 4.32108C101.273 6.17253 99.7693 7.67683 97.9181 7.67683Z" fill="#E83E36"/>
<path d="M97.9181 102.676C96.0668 102.676 94.5627 101.172 94.5627 99.3201C94.5627 97.4687 96.0668 95.9644 97.9181 95.9644C99.7693 95.9644 101.273 97.4687 101.273 99.3201C101.273 101.172 99.7693 102.676 97.9181 102.676Z" fill="#E83E36"/>
<path d="M258.918 7.67683C257.067 7.67683 255.563 6.17253 255.563 4.32108C255.563 2.46963 257.067 0.965332 258.918 0.965332C260.769 0.965332 262.273 2.46963 262.273 4.32108C262.273 6.17253 260.769 7.67683 258.918 7.67683Z" fill="#E83E36"/>
<path d="M3.35554 7.67683C1.5043 7.67683 0.000188828 6.17253 0.000188828 4.32108C0.000188828 2.46963 1.5043 0.965332 3.35554 0.965332C5.20678 0.965332 6.71094 2.46963 6.71094 4.32108C6.71094 6.17253 5.20678 7.67683 3.35554 7.67683Z" fill="#E83E36"/>
<path d="M3.35554 102.676C1.5043 102.676 0.000188828 101.172 0.000188828 99.3201C0.000188828 97.4687 1.5043 95.9644 3.35554 95.9644C5.20678 95.9644 6.71094 97.4687 6.71094 99.3201C6.71094 101.172 5.20678 102.676 3.35554 102.676Z" fill="#E83E36"/>
<path d="M164.356 7.67683C162.504 7.67683 161 6.17253 161 4.32108C161 2.46963 162.504 0.965332 164.356 0.965332C166.207 0.965332 167.711 2.46963 167.711 4.32108C167.711 6.17253 166.207 7.67683 164.356 7.67683Z" fill="#E83E36"/>
<path d="M164.356 102.676C162.504 102.676 161 101.172 161 99.3201C161 97.4687 162.504 95.9644 164.356 95.9644C166.207 95.9644 167.711 97.4687 167.711 99.3201C167.711 101.172 166.207 102.676 164.356 102.676Z" fill="#E83E36"/>
<path d="M84.3555 7.67683C82.5043 7.67683 81.0002 6.17253 81.0002 4.32108C81.0002 2.46963 82.5043 0.965332 84.3555 0.965332C86.2068 0.965332 87.7109 2.46963 87.7109 4.32108C87.7109 6.17253 86.2068 7.67683 84.3555 7.67683Z" fill="#E83E36"/>
<path d="M84.3555 102.676C82.5043 102.676 81.0002 101.172 81.0002 99.3201C81.0002 97.4687 82.5043 95.9644 84.3555 95.9644C86.2068 95.9644 87.7109 97.4687 87.7109 99.3201C87.7109 101.172 86.2068 102.676 84.3555 102.676Z" fill="#E83E36"/>
<path d="M245.356 7.67683C243.504 7.67683 242 6.17253 242 4.32108C242 2.46963 243.504 0.965332 245.356 0.965332C247.207 0.965332 248.711 2.46963 248.711 4.32108C248.711 6.17253 247.207 7.67683 245.356 7.67683Z" fill="#E83E36"/>
<path d="M245.356 102.676C243.504 102.676 242 101.172 242 99.3201C242 97.4687 243.504 95.9644 245.356 95.9644C247.207 95.9644 248.711 97.4687 248.711 99.3201C248.711 101.172 247.207 102.676 245.356 102.676Z" fill="#E83E36"/>
<path d="M71.1798 21.2423C69.3285 21.2423 67.8244 19.738 67.8244 17.8865C67.8244 16.0351 69.3285 14.5308 71.1798 14.5308C73.031 14.5308 74.5352 16.0351 74.5352 17.8865C74.5352 19.738 73.031 21.2423 71.1798 21.2423Z" fill="#E83E36"/>
<path d="M71.1798 116.242C69.3285 116.242 67.8244 114.737 67.8244 112.886C67.8244 111.035 69.3285 109.53 71.1798 109.53C73.031 109.53 74.5352 111.035 74.5352 112.886C74.5352 114.737 73.031 116.242 71.1798 116.242Z" fill="#E83E36"/>
<path d="M232.18 21.2423C230.329 21.2423 228.824 19.738 228.824 17.8865C228.824 16.0351 230.329 14.5308 232.18 14.5308C234.031 14.5308 235.535 16.0351 235.535 17.8865C235.535 19.738 234.031 21.2423 232.18 21.2423Z" fill="#E83E36"/>
<path d="M152.18 21.2423C150.329 21.2423 148.824 19.738 148.824 17.8865C148.824 16.0351 150.329 14.5308 152.18 14.5308C154.031 14.5308 155.535 16.0351 155.535 17.8865C155.535 19.738 154.031 21.2423 152.18 21.2423Z" fill="#E83E36"/>
<path d="M152.18 116.242C150.329 116.242 148.824 114.737 148.824 112.886C148.824 111.035 150.329 109.53 152.18 109.53C154.031 109.53 155.535 111.035 155.535 112.886C155.535 114.737 154.031 116.242 152.18 116.242Z" fill="#E83E36"/>
<path d="M313.184 116.676C311.332 116.676 309.828 115.172 309.828 113.32C309.828 111.469 311.332 109.964 313.184 109.964C315.035 109.964 316.539 111.469 316.539 113.32C316.539 115.172 315.035 116.676 313.184 116.676Z" fill="#E83E36"/>
<path d="M351.184 116.242C349.332 116.242 347.828 114.737 347.828 112.886C347.828 111.035 349.332 109.53 351.184 109.53C353.035 109.53 354.539 111.035 354.539 112.886C354.539 114.737 353.035 116.242 351.184 116.242Z" fill="#E83E36"/>
<path d="M57.6212 21.2423C55.77 21.2423 54.2658 19.738 54.2658 17.8865C54.2658 16.0351 55.77 14.5308 57.6212 14.5308C59.4724 14.5308 60.9766 16.0351 60.9766 17.8865C60.9766 19.738 59.4724 21.2423 57.6212 21.2423Z" fill="#E83E36"/>
<path d="M57.6212 116.242C55.77 116.242 54.2658 114.737 54.2658 112.886C54.2658 111.035 55.77 109.53 57.6212 109.53C59.4724 109.53 60.9766 111.035 60.9766 112.886C60.9766 114.737 59.4724 116.242 57.6212 116.242Z" fill="#E83E36"/>
<path d="M218.621 21.2423C216.77 21.2423 215.266 19.738 215.266 17.8865C215.266 16.0351 216.77 14.5308 218.621 14.5308C220.472 14.5308 221.977 16.0351 221.977 17.8865C221.977 19.738 220.472 21.2423 218.621 21.2423Z" fill="#E83E36"/>
<path d="M218.621 116.242C216.77 116.242 215.266 114.737 215.266 112.886C215.266 111.035 216.77 109.53 218.621 109.53C220.472 109.53 221.977 111.035 221.977 112.886C221.977 114.737 220.472 116.242 218.621 116.242Z" fill="#E83E36"/>
<path d="M138.621 21.2423C136.77 21.2423 135.266 19.738 135.266 17.8865C135.266 16.0351 136.77 14.5308 138.621 14.5308C140.472 14.5308 141.977 16.0351 141.977 17.8865C141.977 19.738 140.472 21.2423 138.621 21.2423Z" fill="#E83E36"/>
<path d="M363.621 116.676C361.77 116.676 360.266 115.172 360.266 113.32C360.266 111.469 361.77 109.964 363.621 109.964C365.472 109.964 366.977 111.469 366.977 113.32C366.977 115.172 365.472 116.676 363.621 116.676Z" fill="#E83E36"/>
<path d="M390.621 116.676C388.77 116.676 387.266 115.172 387.266 113.32C387.266 111.469 388.77 109.964 390.621 109.964C392.472 109.964 393.977 111.469 393.977 113.32C393.977 115.172 392.472 116.676 390.621 116.676Z" fill="#E83E36"/>
<path d="M44.0587 21.2423C42.2074 21.2423 40.7033 19.738 40.7033 17.8865C40.7033 16.0351 42.2074 14.5308 44.0587 14.5308C45.9099 14.5308 47.4141 16.0351 47.4141 17.8865C47.4141 19.738 45.9099 21.2423 44.0587 21.2423Z" fill="#E83E36"/>
<path d="M44.0587 116.242C42.2074 116.242 40.7033 114.737 40.7033 112.886C40.7033 111.035 42.2074 109.53 44.0587 109.53C45.9099 109.53 47.4141 111.035 47.4141 112.886C47.4141 114.737 45.9099 116.242 44.0587 116.242Z" fill="#E83E36"/>
<path d="M205.059 21.2423C203.207 21.2423 201.703 19.738 201.703 17.8865C201.703 16.0351 203.207 14.5308 205.059 14.5308C206.91 14.5308 208.414 16.0351 208.414 17.8865C208.414 19.738 206.91 21.2423 205.059 21.2423Z" fill="#E83E36"/>
<path d="M205.059 116.242C203.207 116.242 201.703 114.737 201.703 112.886C201.703 111.035 203.207 109.53 205.059 109.53C206.91 109.53 208.414 111.035 208.414 112.886C208.414 114.737 206.91 116.242 205.059 116.242Z" fill="#E83E36"/>
<path d="M125.059 21.2423C123.207 21.2423 121.703 19.738 121.703 17.8865C121.703 16.0351 123.207 14.5308 125.059 14.5308C126.91 14.5308 128.414 16.0351 128.414 17.8865C128.414 19.738 126.91 21.2423 125.059 21.2423Z" fill="#E83E36"/>
<path d="M125.059 116.242C123.207 116.242 121.703 114.737 121.703 112.886C121.703 111.035 123.207 109.53 125.059 109.53C126.91 109.53 128.414 111.035 128.414 112.886C128.414 114.737 126.91 116.242 125.059 116.242Z" fill="#E83E36"/>
<path d="M286.059 116.242C284.207 116.242 282.703 114.737 282.703 112.886C282.703 111.035 284.207 109.53 286.059 109.53C287.91 109.53 289.414 111.035 289.414 112.886C289.414 114.737 287.91 116.242 286.059 116.242Z" fill="#E83E36"/>
<path d="M324.059 116.242C322.207 116.242 320.703 114.737 320.703 112.886C320.703 111.035 322.207 109.53 324.059 109.53C325.91 109.53 327.414 111.035 327.414 112.886C327.414 114.737 325.91 116.242 324.059 116.242Z" fill="#E83E36"/>
<path d="M30.4805 21.2423C28.6293 21.2423 27.1252 19.738 27.1252 17.8865C27.1252 16.0351 28.6293 14.5308 30.4805 14.5308C32.3318 14.5308 33.8359 16.0351 33.8359 17.8865C33.8359 19.738 32.3318 21.2423 30.4805 21.2423Z" fill="#E83E36"/>
<path d="M30.4805 116.242C28.6293 116.242 27.1252 114.737 27.1252 112.886C27.1252 111.035 28.6293 109.53 30.4805 109.53C32.3318 109.53 33.8359 111.035 33.8359 112.886C33.8359 114.737 32.3318 116.242 30.4805 116.242Z" fill="#E83E36"/>
<path d="M191.481 21.2423C189.629 21.2423 188.125 19.738 188.125 17.8865C188.125 16.0351 189.629 14.5308 191.481 14.5308C193.332 14.5308 194.836 16.0351 194.836 17.8865C194.836 19.738 193.332 21.2423 191.481 21.2423Z" fill="#E83E36"/>
<path d="M191.481 116.242C189.629 116.242 188.125 114.737 188.125 112.886C188.125 111.035 189.629 109.53 191.481 109.53C193.332 109.53 194.836 111.035 194.836 112.886C194.836 114.737 193.332 116.242 191.481 116.242Z" fill="#E83E36"/>
<path d="M111.477 21.2423C109.625 21.2423 108.121 19.738 108.121 17.8865C108.121 16.0351 109.625 14.5308 111.477 14.5308C113.328 14.5308 114.832 16.0351 114.832 17.8865C114.832 19.738 113.328 21.2423 111.477 21.2423Z" fill="#E83E36"/>
<path d="M111.477 116.242C109.625 116.242 108.121 114.737 108.121 112.886C108.121 111.035 109.625 109.53 111.477 109.53C113.328 109.53 114.832 111.035 114.832 112.886C114.832 114.737 113.328 116.242 111.477 116.242Z" fill="#E83E36"/>
<path d="M16.9181 21.2423C15.0668 21.2423 13.5627 19.738 13.5627 17.8865C13.5627 16.0351 15.0668 14.5308 16.9181 14.5308C18.7693 14.5308 20.2734 16.0351 20.2734 17.8865C20.2734 19.738 18.7693 21.2423 16.9181 21.2423Z" fill="#E83E36"/>
<path d="M16.9181 116.242C15.0668 116.242 13.5627 114.737 13.5627 112.886C13.5627 111.035 15.0668 109.53 16.9181 109.53C18.7693 109.53 20.2734 111.035 20.2734 112.886C20.2734 114.737 18.7693 116.242 16.9181 116.242Z" fill="#E83E36"/>
<path d="M177.918 21.2423C176.067 21.2423 174.563 19.738 174.563 17.8865C174.563 16.0351 176.067 14.5308 177.918 14.5308C179.769 14.5308 181.273 16.0351 181.273 17.8865C181.273 19.738 179.769 21.2423 177.918 21.2423Z" fill="#E83E36"/>
<path d="M97.9181 21.2423C96.0668 21.2423 94.5627 19.738 94.5627 17.8865C94.5627 16.0351 96.0668 14.5308 97.9181 14.5308C99.7693 14.5308 101.273 16.0351 101.273 17.8865C101.273 19.738 99.7693 21.2423 97.9181 21.2423Z" fill="#E83E36"/>
<path d="M97.9181 116.242C96.0668 116.242 94.5627 114.737 94.5627 112.886C94.5627 111.035 96.0668 109.53 97.9181 109.53C99.7693 109.53 101.273 111.035 101.273 112.886C101.273 114.737 99.7693 116.242 97.9181 116.242Z" fill="#E83E36"/>
<path d="M258.918 21.2423C257.067 21.2423 255.563 19.738 255.563 17.8865C255.563 16.0351 257.067 14.5308 258.918 14.5308C260.769 14.5308 262.273 16.0351 262.273 17.8865C262.273 19.738 260.769 21.2423 258.918 21.2423Z" fill="#E83E36"/>
<path d="M258.918 116.242C257.067 116.242 255.563 114.737 255.563 112.886C255.563 111.035 257.067 109.53 258.918 109.53C260.769 109.53 262.273 111.035 262.273 112.886C262.273 114.737 260.769 116.242 258.918 116.242Z" fill="#E83E36"/>
<path d="M3.35554 21.2423C1.5043 21.2423 0.000188828 19.738 0.000188828 17.8865C0.000188828 16.0351 1.5043 14.5308 3.35554 14.5308C5.20678 14.5308 6.71094 16.0351 6.71094 17.8865C6.71094 19.738 5.20678 21.2423 3.35554 21.2423Z" fill="#E83E36"/>
<path d="M3.35554 116.242C1.5043 116.242 0.000188828 114.737 0.000188828 112.886C0.000188828 111.035 1.5043 109.53 3.35554 109.53C5.20678 109.53 6.71094 111.035 6.71094 112.886C6.71094 114.737 5.20678 116.242 3.35554 116.242Z" fill="#E83E36"/>
<path d="M164.356 21.2423C162.504 21.2423 161 19.738 161 17.8865C161 16.0351 162.504 14.5308 164.356 14.5308C166.207 14.5308 167.711 16.0351 167.711 17.8865C167.711 19.738 166.207 21.2423 164.356 21.2423Z" fill="#E83E36"/>
<path d="M164.356 116.242C162.504 116.242 161 114.737 161 112.886C161 111.035 162.504 109.53 164.356 109.53C166.207 109.53 167.711 111.035 167.711 112.886C167.711 114.737 166.207 116.242 164.356 116.242Z" fill="#E83E36"/>
<path d="M84.3555 21.2423C82.5043 21.2423 81.0002 19.738 81.0002 17.8865C81.0002 16.0351 82.5043 14.5308 84.3555 14.5308C86.2068 14.5308 87.7109 16.0351 87.7109 17.8865C87.7109 19.738 86.2068 21.2423 84.3555 21.2423Z" fill="#E83E36"/>
<path d="M245.356 21.2423C243.504 21.2423 242 19.738 242 17.8865C242 16.0351 243.504 14.5308 245.356 14.5308C247.207 14.5308 248.711 16.0351 248.711 17.8865C248.711 19.738 247.207 21.2423 245.356 21.2423Z" fill="#E83E36"/>
<path d="M245.356 116.242C243.504 116.242 242 114.737 242 112.886C242 111.035 243.504 109.53 245.356 109.53C247.207 109.53 248.711 111.035 248.711 112.886C248.711 114.737 247.207 116.242 245.356 116.242Z" fill="#E83E36"/>
<path d="M71.1798 34.8062C69.3285 34.8062 67.8244 33.3019 67.8244 31.4505C67.8244 29.599 69.3285 28.0947 71.1798 28.0947C73.031 28.0947 74.5352 29.599 74.5352 31.4505C74.5352 33.3019 73.031 34.8062 71.1798 34.8062Z" fill="#E83E36"/>
<path d="M71.1798 129.805C69.3285 129.805 67.8244 128.301 67.8244 126.449C67.8244 124.598 69.3285 123.094 71.1798 123.094C73.031 123.094 74.5352 124.598 74.5352 126.449C74.5352 128.301 73.031 129.805 71.1798 129.805Z" fill="#E83E36"/>
<path d="M232.18 34.8062C230.329 34.8062 228.824 33.3019 228.824 31.4505C228.824 29.599 230.329 28.0947 232.18 28.0947C234.031 28.0947 235.535 29.599 235.535 31.4505C235.535 33.3019 234.031 34.8062 232.18 34.8062Z" fill="#E83E36"/>
<path d="M152.18 34.8062C150.329 34.8062 148.824 33.3019 148.824 31.4505C148.824 29.599 150.329 28.0947 152.18 28.0947C154.031 28.0947 155.535 29.599 155.535 31.4505C155.535 33.3019 154.031 34.8062 152.18 34.8062Z" fill="#E83E36"/>
<path d="M152.18 129.805C150.329 129.805 148.824 128.301 148.824 126.449C148.824 124.598 150.329 123.094 152.18 123.094C154.031 123.094 155.535 124.598 155.535 126.449C155.535 128.301 154.031 129.805 152.18 129.805Z" fill="#E83E36"/>
<path d="M313.184 130.239C311.332 130.239 309.828 128.735 309.828 126.884C309.828 125.032 311.332 123.528 313.184 123.528C315.035 123.528 316.539 125.032 316.539 126.884C316.539 128.735 315.035 130.239 313.184 130.239Z" fill="#E83E36"/>
<path d="M377.184 130.239C375.332 130.239 373.828 128.735 373.828 126.884C373.828 125.032 375.332 123.528 377.184 123.528C379.035 123.528 380.539 125.032 380.539 126.884C380.539 128.735 379.035 130.239 377.184 130.239Z" fill="#E83E36"/>
<path d="M404.184 130.239C402.332 130.239 400.828 128.735 400.828 126.883C400.828 125.032 402.332 123.528 404.184 123.528C406.035 123.528 407.539 125.032 407.539 126.883C407.539 128.735 406.035 130.239 404.184 130.239Z" fill="#E83E36"/>
<path d="M57.6212 34.8062C55.77 34.8062 54.2658 33.3019 54.2658 31.4505C54.2658 29.599 55.77 28.0947 57.6212 28.0947C59.4724 28.0947 60.9766 29.599 60.9766 31.4505C60.9766 33.3019 59.4724 34.8062 57.6212 34.8062Z" fill="#E83E36"/>
<path d="M57.6212 129.805C55.77 129.805 54.2658 128.301 54.2658 126.449C54.2658 124.598 55.77 123.094 57.6212 123.094C59.4724 123.094 60.9766 124.598 60.9766 126.449C60.9766 128.301 59.4724 129.805 57.6212 129.805Z" fill="#E83E36"/>
<path d="M218.621 34.8062C216.77 34.8062 215.266 33.3019 215.266 31.4505C215.266 29.599 216.77 28.0947 218.621 28.0947C220.472 28.0947 221.977 29.599 221.977 31.4505C221.977 33.3019 220.472 34.8062 218.621 34.8062Z" fill="#E83E36"/>
<path d="M218.621 129.805C216.77 129.805 215.266 128.301 215.266 126.449C215.266 124.598 216.77 123.094 218.621 123.094C220.472 123.094 221.977 124.598 221.977 126.449C221.977 128.301 220.472 129.805 218.621 129.805Z" fill="#E83E36"/>
<path d="M138.621 34.8062C136.77 34.8062 135.266 33.3019 135.266 31.4505C135.266 29.599 136.77 28.0947 138.621 28.0947C140.472 28.0947 141.977 29.599 141.977 31.4505C141.977 33.3019 140.472 34.8062 138.621 34.8062Z" fill="#E83E36"/>
<path d="M138.621 129.805C136.77 129.805 135.266 128.301 135.266 126.449C135.266 124.598 136.77 123.094 138.621 123.094C140.472 123.094 141.977 124.598 141.977 126.449C141.977 128.301 140.472 129.805 138.621 129.805Z" fill="#E83E36"/>
<path d="M337.621 129.805C335.77 129.805 334.266 128.301 334.266 126.449C334.266 124.598 335.77 123.094 337.621 123.094C339.472 123.094 340.977 124.598 340.977 126.449C340.977 128.301 339.472 129.805 337.621 129.805Z" fill="#E83E36"/>
<path d="M44.0587 34.8062C42.2074 34.8062 40.7033 33.3019 40.7033 31.4505C40.7033 29.599 42.2074 28.0947 44.0587 28.0947C45.9099 28.0947 47.4141 29.599 47.4141 31.4505C47.4141 33.3019 45.9099 34.8062 44.0587 34.8062Z" fill="#E83E36"/>
<path d="M44.0587 129.805C42.2074 129.805 40.7033 128.301 40.7033 126.449C40.7033 124.598 42.2074 123.094 44.0587 123.094C45.9099 123.094 47.4141 124.598 47.4141 126.449C47.4141 128.301 45.9099 129.805 44.0587 129.805Z" fill="#E83E36"/>
<path d="M205.059 34.8062C203.207 34.8062 201.703 33.3019 201.703 31.4505C201.703 29.599 203.207 28.0947 205.059 28.0947C206.91 28.0947 208.414 29.599 208.414 31.4505C208.414 33.3019 206.91 34.8062 205.059 34.8062Z" fill="#E83E36"/>
<path d="M125.059 34.8062C123.207 34.8062 121.703 33.3019 121.703 31.4505C121.703 29.599 123.207 28.0947 125.059 28.0947C126.91 28.0947 128.414 29.599 128.414 31.4505C128.414 33.3019 126.91 34.8062 125.059 34.8062Z" fill="#E83E36"/>
<path d="M125.059 129.805C123.207 129.805 121.703 128.301 121.703 126.449C121.703 124.598 123.207 123.094 125.059 123.094C126.91 123.094 128.414 124.598 128.414 126.449C128.414 128.301 126.91 129.805 125.059 129.805Z" fill="#E83E36"/>
<path d="M286.059 34.8062C284.207 34.8062 282.703 33.3019 282.703 31.4505C282.703 29.599 284.207 28.0947 286.059 28.0947C287.91 28.0947 289.414 29.599 289.414 31.4505C289.414 33.3019 287.91 34.8062 286.059 34.8062Z" fill="#E83E36"/>
<path d="M286.059 129.805C284.207 129.805 282.703 128.301 282.703 126.449C282.703 124.598 284.207 123.094 286.059 123.094C287.91 123.094 289.414 124.598 289.414 126.449C289.414 128.301 287.91 129.805 286.059 129.805Z" fill="#E83E36"/>
<path d="M30.4805 34.8062C28.6293 34.8062 27.1252 33.3019 27.1252 31.4505C27.1252 29.599 28.6293 28.0947 30.4805 28.0947C32.3318 28.0947 33.8359 29.599 33.8359 31.4505C33.8359 33.3019 32.3318 34.8062 30.4805 34.8062Z" fill="#E83E36"/>
<path d="M191.481 34.8062C189.629 34.8062 188.125 33.3019 188.125 31.4505C188.125 29.599 189.629 28.0947 191.481 28.0947C193.332 28.0947 194.836 29.599 194.836 31.4505C194.836 33.3019 193.332 34.8062 191.481 34.8062Z" fill="#E83E36"/>
<path d="M191.481 129.805C189.629 129.805 188.125 128.301 188.125 126.449C188.125 124.598 189.629 123.094 191.481 123.094C193.332 123.094 194.836 124.598 194.836 126.449C194.836 128.301 193.332 129.805 191.481 129.805Z" fill="#E83E36"/>
<path d="M111.477 34.8062C109.625 34.8062 108.121 33.3019 108.121 31.4505C108.121 29.599 109.625 28.0947 111.477 28.0947C113.328 28.0947 114.832 29.599 114.832 31.4505C114.832 33.3019 113.328 34.8062 111.477 34.8062Z" fill="#E83E36"/>
<path d="M111.477 129.805C109.625 129.805 108.121 128.301 108.121 126.449C108.121 124.598 109.625 123.094 111.477 123.094C113.328 123.094 114.832 124.598 114.832 126.449C114.832 128.301 113.328 129.805 111.477 129.805Z" fill="#E83E36"/>
<path d="M272.481 34.8062C270.629 34.8062 269.125 33.3019 269.125 31.4505C269.125 29.599 270.629 28.0947 272.481 28.0947C274.332 28.0947 275.836 29.599 275.836 31.4505C275.836 33.3019 274.332 34.8062 272.481 34.8062Z" fill="#E83E36"/>
<path d="M272.481 129.805C270.629 129.805 269.125 128.301 269.125 126.449C269.125 124.598 270.629 123.094 272.481 123.094C274.332 123.094 275.836 124.598 275.836 126.449C275.836 128.301 274.332 129.805 272.481 129.805Z" fill="#E83E36"/>
<path d="M16.9181 34.8062C15.0668 34.8062 13.5627 33.3019 13.5627 31.4505C13.5627 29.599 15.0668 28.0947 16.9181 28.0947C18.7693 28.0947 20.2734 29.599 20.2734 31.4505C20.2734 33.3019 18.7693 34.8062 16.9181 34.8062Z" fill="#E83E36"/>
<path d="M16.9181 129.805C15.0668 129.805 13.5627 128.301 13.5627 126.449C13.5627 124.598 15.0668 123.094 16.9181 123.094C18.7693 123.094 20.2734 124.598 20.2734 126.449C20.2734 128.301 18.7693 129.805 16.9181 129.805Z" fill="#E83E36"/>
<path d="M177.918 34.8062C176.067 34.8062 174.563 33.3019 174.563 31.4505C174.563 29.599 176.067 28.0947 177.918 28.0947C179.769 28.0947 181.273 29.599 181.273 31.4505C181.273 33.3019 179.769 34.8062 177.918 34.8062Z" fill="#E83E36"/>
<path d="M177.918 129.805C176.067 129.805 174.563 128.301 174.563 126.449C174.563 124.598 176.067 123.094 177.918 123.094C179.769 123.094 181.273 124.598 181.273 126.449C181.273 128.301 179.769 129.805 177.918 129.805Z" fill="#E83E36"/>
<path d="M97.9181 34.8062C96.0668 34.8062 94.5627 33.3019 94.5627 31.4505C94.5627 29.599 96.0668 28.0947 97.9181 28.0947C99.7693 28.0947 101.273 29.599 101.273 31.4505C101.273 33.3019 99.7693 34.8062 97.9181 34.8062Z" fill="#E83E36"/>
<path d="M3.35554 34.8062C1.5043 34.8062 0.000188828 33.3019 0.000188828 31.4505C0.000188828 29.599 1.5043 28.0947 3.35554 28.0947C5.20678 28.0947 6.71094 29.599 6.71094 31.4505C6.71094 33.3019 5.20678 34.8062 3.35554 34.8062Z" fill="#E83E36"/>
<path d="M3.35554 129.805C1.5043 129.805 0.000188828 128.301 0.000188828 126.449C0.000188828 124.598 1.5043 123.094 3.35554 123.094C5.20678 123.094 6.71094 124.598 6.71094 126.449C6.71094 128.301 5.20678 129.805 3.35554 129.805Z" fill="#E83E36"/>
<path d="M164.356 34.8062C162.504 34.8062 161 33.3019 161 31.4505C161 29.599 162.504 28.0947 164.356 28.0947C166.207 28.0947 167.711 29.599 167.711 31.4505C167.711 33.3019 166.207 34.8062 164.356 34.8062Z" fill="#E83E36"/>
<path d="M164.356 129.805C162.504 129.805 161 128.301 161 126.449C161 124.598 162.504 123.094 164.356 123.094C166.207 123.094 167.711 124.598 167.711 126.449C167.711 128.301 166.207 129.805 164.356 129.805Z" fill="#E83E36"/>
<path d="M84.3555 34.8062C82.5043 34.8062 81.0002 33.3019 81.0002 31.4505C81.0002 29.599 82.5043 28.0947 84.3555 28.0947C86.2068 28.0947 87.7109 29.599 87.7109 31.4505C87.7109 33.3019 86.2068 34.8062 84.3555 34.8062Z" fill="#E83E36"/>
<path d="M84.3555 129.805C82.5043 129.805 81.0002 128.301 81.0002 126.449C81.0002 124.598 82.5043 123.094 84.3555 123.094C86.2068 123.094 87.7109 124.598 87.7109 126.449C87.7109 128.301 86.2068 129.805 84.3555 129.805Z" fill="#E83E36"/>
<path d="M245.356 34.8062C243.504 34.8062 242 33.3019 242 31.4505C242 29.599 243.504 28.0947 245.356 28.0947C247.207 28.0947 248.711 29.599 248.711 31.4505C248.711 33.3019 247.207 34.8062 245.356 34.8062Z" fill="#E83E36"/>
<path d="M245.356 129.805C243.504 129.805 242 128.301 242 126.449C242 124.598 243.504 123.094 245.356 123.094C247.207 123.094 248.711 124.598 248.711 126.449C248.711 128.301 247.207 129.805 245.356 129.805Z" fill="#E83E36"/>
<path d="M71.1798 48.3697C69.3285 48.3697 67.8244 46.8654 67.8244 45.014C67.8244 43.1625 69.3285 41.6582 71.1798 41.6582C73.031 41.6582 74.5352 43.1625 74.5352 45.014C74.5352 46.8654 73.031 48.3697 71.1798 48.3697Z" fill="#E83E36"/>
<path d="M71.1798 143.369C69.3285 143.369 67.8244 141.864 67.8244 140.013C67.8244 138.162 69.3285 136.657 71.1798 136.657C73.031 136.657 74.5352 138.162 74.5352 140.013C74.5352 141.864 73.031 143.369 71.1798 143.369Z" fill="#E83E36"/>
<path d="M232.18 48.3697C230.329 48.3697 228.824 46.8654 228.824 45.014C228.824 43.1625 230.329 41.6582 232.18 41.6582C234.031 41.6582 235.535 43.1625 235.535 45.014C235.535 46.8654 234.031 48.3697 232.18 48.3697Z" fill="#E83E36"/>
<path d="M232.18 143.369C230.329 143.369 228.824 141.864 228.824 140.013C228.824 138.162 230.329 136.657 232.18 136.657C234.031 136.657 235.535 138.162 235.535 140.013C235.535 141.864 234.031 143.369 232.18 143.369Z" fill="#E83E36"/>
<path d="M152.18 48.3697C150.329 48.3697 148.824 46.8654 148.824 45.014C148.824 43.1625 150.329 41.6582 152.18 41.6582C154.031 41.6582 155.535 43.1625 155.535 45.014C155.535 46.8654 154.031 48.3697 152.18 48.3697Z" fill="#E83E36"/>
<path d="M152.18 143.369C150.329 143.369 148.824 141.864 148.824 140.013C148.824 138.162 150.329 136.657 152.18 136.657C154.031 136.657 155.535 138.162 155.535 140.013C155.535 141.864 154.031 143.369 152.18 143.369Z" fill="#E83E36"/>
<path d="M313.184 143.369C311.332 143.369 309.828 141.864 309.828 140.013C309.828 138.162 311.332 136.657 313.184 136.657C315.035 136.657 316.539 138.162 316.539 140.013C316.539 141.864 315.035 143.369 313.184 143.369Z" fill="#E83E36"/>
<path d="M57.6212 48.3697C55.77 48.3697 54.2658 46.8654 54.2658 45.014C54.2658 43.1625 55.77 41.6582 57.6212 41.6582C59.4724 41.6582 60.9766 43.1625 60.9766 45.014C60.9766 46.8654 59.4724 48.3697 57.6212 48.3697Z" fill="#E83E36"/>
<path d="M57.6212 143.369C55.77 143.369 54.2658 141.864 54.2658 140.013C54.2658 138.162 55.77 136.657 57.6212 136.657C59.4724 136.657 60.9766 138.162 60.9766 140.013C60.9766 141.864 59.4724 143.369 57.6212 143.369Z" fill="#E83E36"/>
<path d="M218.621 48.3697C216.77 48.3697 215.266 46.8654 215.266 45.014C215.266 43.1625 216.77 41.6582 218.621 41.6582C220.472 41.6582 221.977 43.1625 221.977 45.014C221.977 46.8654 220.472 48.3697 218.621 48.3697Z" fill="#E83E36"/>
<path d="M218.621 143.369C216.77 143.369 215.266 141.864 215.266 140.013C215.266 138.162 216.77 136.657 218.621 136.657C220.472 136.657 221.977 138.162 221.977 140.013C221.977 141.864 220.472 143.369 218.621 143.369Z" fill="#E83E36"/>
<path d="M138.621 143.369C136.77 143.369 135.266 141.864 135.266 140.013C135.266 138.162 136.77 136.657 138.621 136.657C140.472 136.657 141.977 138.162 141.977 140.013C141.977 141.864 140.472 143.369 138.621 143.369Z" fill="#E83E36"/>
<path d="M299.621 48.3697C297.77 48.3697 296.266 46.8654 296.266 45.014C296.266 43.1625 297.77 41.6582 299.621 41.6582C301.472 41.6582 302.977 43.1625 302.977 45.014C302.977 46.8654 301.472 48.3697 299.621 48.3697Z" fill="#E83E36"/>
<path d="M299.621 143.369C297.77 143.369 296.266 141.864 296.266 140.013C296.266 138.162 297.77 136.657 299.621 136.657C301.472 136.657 302.977 138.162 302.977 140.013C302.977 141.864 301.472 143.369 299.621 143.369Z" fill="#E83E36"/>
<path d="M337.621 143.369C335.77 143.369 334.266 141.864 334.266 140.013C334.266 138.162 335.77 136.657 337.621 136.657C339.472 136.657 340.977 138.162 340.977 140.013C340.977 141.864 339.472 143.369 337.621 143.369Z" fill="#E83E36"/>
<path d="M44.0587 48.3697C42.2074 48.3697 40.7033 46.8654 40.7033 45.014C40.7033 43.1625 42.2074 41.6582 44.0587 41.6582C45.9099 41.6582 47.4141 43.1625 47.4141 45.014C47.4141 46.8654 45.9099 48.3697 44.0587 48.3697Z" fill="#E83E36"/>
<path d="M205.059 48.3697C203.207 48.3697 201.703 46.8654 201.703 45.014C201.703 43.1625 203.207 41.6582 205.059 41.6582C206.91 41.6582 208.414 43.1625 208.414 45.014C208.414 46.8654 206.91 48.3697 205.059 48.3697Z" fill="#E83E36"/>
<path d="M205.059 143.369C203.207 143.369 201.703 141.864 201.703 140.013C201.703 138.162 203.207 136.657 205.059 136.657C206.91 136.657 208.414 138.162 208.414 140.013C208.414 141.864 206.91 143.369 205.059 143.369Z" fill="#E83E36"/>
<path d="M125.059 48.3697C123.207 48.3697 121.703 46.8654 121.703 45.014C121.703 43.1625 123.207 41.6582 125.059 41.6582C126.91 41.6582 128.414 43.1625 128.414 45.014C128.414 46.8654 126.91 48.3697 125.059 48.3697Z" fill="#E83E36"/>
<path d="M125.059 143.369C123.207 143.369 121.703 141.864 121.703 140.013C121.703 138.162 123.207 136.657 125.059 136.657C126.91 136.657 128.414 138.162 128.414 140.013C128.414 141.864 126.91 143.369 125.059 143.369Z" fill="#E83E36"/>
<path d="M30.4805 48.3697C28.6293 48.3697 27.1252 46.8654 27.1252 45.014C27.1252 43.1625 28.6293 41.6582 30.4805 41.6582C32.3318 41.6582 33.8359 43.1625 33.8359 45.014C33.8359 46.8654 32.3318 48.3697 30.4805 48.3697Z" fill="#E83E36"/>
<path d="M30.4805 143.369C28.6293 143.369 27.1252 141.864 27.1252 140.013C27.1252 138.162 28.6293 136.657 30.4805 136.657C32.3318 136.657 33.8359 138.162 33.8359 140.013C33.8359 141.864 32.3318 143.369 30.4805 143.369Z" fill="#E83E36"/>
<path d="M191.481 48.3697C189.629 48.3697 188.125 46.8654 188.125 45.014C188.125 43.1625 189.629 41.6582 191.481 41.6582C193.332 41.6582 194.836 43.1625 194.836 45.014C194.836 46.8654 193.332 48.3697 191.481 48.3697Z" fill="#E83E36"/>
<path d="M111.477 48.3697C109.625 48.3697 108.121 46.8654 108.121 45.014C108.121 43.1625 109.625 41.6582 111.477 41.6582C113.328 41.6582 114.832 43.1625 114.832 45.014C114.832 46.8654 113.328 48.3697 111.477 48.3697Z" fill="#E83E36"/>
<path d="M111.477 143.369C109.625 143.369 108.121 141.864 108.121 140.013C108.121 138.162 109.625 136.657 111.477 136.657C113.328 136.657 114.832 138.162 114.832 140.013C114.832 141.864 113.328 143.369 111.477 143.369Z" fill="#E83E36"/>
<path d="M16.9181 48.3697C15.0668 48.3697 13.5627 46.8654 13.5627 45.014C13.5627 43.1625 15.0668 41.6582 16.9181 41.6582C18.7693 41.6582 20.2734 43.1625 20.2734 45.014C20.2734 46.8654 18.7693 48.3697 16.9181 48.3697Z" fill="#E83E36"/>
<path d="M16.9181 143.369C15.0668 143.369 13.5627 141.864 13.5627 140.013C13.5627 138.162 15.0668 136.657 16.9181 136.657C18.7693 136.657 20.2734 138.162 20.2734 140.013C20.2734 141.864 18.7693 143.369 16.9181 143.369Z" fill="#E83E36"/>
<path d="M97.9181 48.3697C96.0668 48.3697 94.5627 46.8654 94.5627 45.014C94.5627 43.1625 96.0668 41.6582 97.9181 41.6582C99.7693 41.6582 101.273 43.1625 101.273 45.014C101.273 46.8654 99.7693 48.3697 97.9181 48.3697Z" fill="#E83E36"/>
<path d="M258.918 48.3697C257.067 48.3697 255.563 46.8654 255.563 45.014C255.563 43.1625 257.067 41.6582 258.918 41.6582C260.769 41.6582 262.273 43.1625 262.273 45.014C262.273 46.8654 260.769 48.3697 258.918 48.3697Z" fill="#E83E36"/>
<path d="M258.918 143.369C257.067 143.369 255.563 141.864 255.563 140.013C255.563 138.162 257.067 136.657 258.918 136.657C260.769 136.657 262.273 138.162 262.273 140.013C262.273 141.864 260.769 143.369 258.918 143.369Z" fill="#E83E36"/>
<path d="M3.35554 48.3697C1.5043 48.3697 0.000188828 46.8654 0.000188828 45.014C0.000188828 43.1625 1.5043 41.6582 3.35554 41.6582C5.20678 41.6582 6.71094 43.1625 6.71094 45.014C6.71094 46.8654 5.20678 48.3697 3.35554 48.3697Z" fill="#E83E36"/>
<path d="M3.35554 143.369C1.5043 143.369 0.000188828 141.864 0.000188828 140.013C0.000188828 138.162 1.5043 136.657 3.35554 136.657C5.20678 136.657 6.71094 138.162 6.71094 140.013C6.71094 141.864 5.20678 143.369 3.35554 143.369Z" fill="#E83E36"/>
<path d="M164.356 48.3697C162.504 48.3697 161 46.8654 161 45.014C161 43.1625 162.504 41.6582 164.356 41.6582C166.207 41.6582 167.711 43.1625 167.711 45.014C167.711 46.8654 166.207 48.3697 164.356 48.3697Z" fill="#E83E36"/>
<path d="M164.356 143.369C162.504 143.369 161 141.864 161 140.013C161 138.162 162.504 136.657 164.356 136.657C166.207 136.657 167.711 138.162 167.711 140.013C167.711 141.864 166.207 143.369 164.356 143.369Z" fill="#E83E36"/>
<path d="M84.3555 48.3697C82.5043 48.3697 81.0002 46.8654 81.0002 45.014C81.0002 43.1625 82.5043 41.6582 84.3555 41.6582C86.2068 41.6582 87.7109 43.1625 87.7109 45.014C87.7109 46.8654 86.2068 48.3697 84.3555 48.3697Z" fill="#E83E36"/>
<path d="M245.356 48.3697C243.504 48.3697 242 46.8654 242 45.014C242 43.1625 243.504 41.6582 245.356 41.6582C247.207 41.6582 248.711 43.1625 248.711 45.014C248.711 46.8654 247.207 48.3697 245.356 48.3697Z" fill="#E83E36"/>
<path d="M245.356 143.369C243.504 143.369 242 141.864 242 140.013C242 138.162 243.504 136.657 245.356 136.657C247.207 136.657 248.711 138.162 248.711 140.013C248.711 141.864 247.207 143.369 245.356 143.369Z" fill="#E83E36"/>
<path d="M71.1798 61.9488C69.3285 61.9488 67.8244 60.4445 67.8244 58.5931C67.8244 56.7416 69.3285 55.2373 71.1798 55.2373C73.031 55.2373 74.5352 56.7416 74.5352 58.5931C74.5352 60.4445 73.031 61.9488 71.1798 61.9488Z" fill="#E83E36"/>
<path d="M71.1798 156.948C69.3285 156.948 67.8244 155.444 67.8244 153.592C67.8244 151.741 69.3285 150.236 71.1798 150.236C73.031 150.236 74.5352 151.741 74.5352 153.592C74.5352 155.444 73.031 156.948 71.1798 156.948Z" fill="#E83E36"/>
<path d="M232.18 61.9488C230.329 61.9488 228.824 60.4445 228.824 58.5931C228.824 56.7416 230.329 55.2373 232.18 55.2373C234.031 55.2373 235.535 56.7416 235.535 58.5931C235.535 60.4445 234.031 61.9488 232.18 61.9488Z" fill="#E83E36"/>
<path d="M232.18 156.948C230.329 156.948 228.824 155.444 228.824 153.592C228.824 151.741 230.329 150.236 232.18 150.236C234.031 150.236 235.535 151.741 235.535 153.592C235.535 155.444 234.031 156.948 232.18 156.948Z" fill="#E83E36"/>
<path d="M152.18 61.9488C150.329 61.9488 148.824 60.4445 148.824 58.5931C148.824 56.7416 150.329 55.2373 152.18 55.2373C154.031 55.2373 155.535 56.7416 155.535 58.5931C155.535 60.4445 154.031 61.9488 152.18 61.9488Z" fill="#E83E36"/>
<path d="M152.18 156.948C150.329 156.948 148.824 155.444 148.824 153.592C148.824 151.741 150.329 150.236 152.18 150.236C154.031 150.236 155.535 151.741 155.535 153.592C155.535 155.444 154.031 156.948 152.18 156.948Z" fill="#E83E36"/>
<path d="M313.184 156.948C311.332 156.948 309.828 155.444 309.828 153.592C309.828 151.741 311.332 150.236 313.184 150.236C315.035 150.236 316.539 151.741 316.539 153.592C316.539 155.444 315.035 156.948 313.184 156.948Z" fill="#E83E36"/>
<path d="M57.6212 61.9346C55.7681 61.9346 54.2658 60.4322 54.2658 58.5789C54.2658 56.7256 55.7681 55.2231 57.6212 55.2231C59.4743 55.2231 60.9766 56.7256 60.9766 58.5789C60.9766 60.4322 59.4743 61.9346 57.6212 61.9346Z" fill="#E83E36"/>
<path d="M218.621 61.9346C216.768 61.9346 215.266 60.4322 215.266 58.5789C215.266 56.7256 216.768 55.2231 218.621 55.2231C220.474 55.2231 221.977 56.7256 221.977 58.5789C221.977 60.4322 220.474 61.9346 218.621 61.9346Z" fill="#E83E36"/>
<path d="M138.621 61.9346C136.768 61.9346 135.266 60.4322 135.266 58.5789C135.266 56.7256 136.768 55.2231 138.621 55.2231C140.474 55.2231 141.977 56.7256 141.977 58.5789C141.977 60.4322 140.474 61.9346 138.621 61.9346Z" fill="#E83E36"/>
<path d="M138.621 156.934C136.768 156.934 135.266 155.431 135.266 153.578C135.266 151.725 136.768 150.222 138.621 150.222C140.474 150.222 141.977 151.725 141.977 153.578C141.977 155.431 140.474 156.934 138.621 156.934Z" fill="#E83E36"/>
<path d="M299.621 61.9346C297.768 61.9346 296.266 60.4322 296.266 58.5789C296.266 56.7256 297.768 55.2231 299.621 55.2231C301.474 55.2231 302.977 56.7256 302.977 58.5789C302.977 60.4322 301.474 61.9346 299.621 61.9346Z" fill="#E83E36"/>
<path d="M40.7096 153.588C40.7044 151.734 42.2025 150.228 44.0556 150.223C45.9087 150.218 47.4151 151.716 47.4203 153.569C47.4255 155.422 45.9274 156.929 44.0743 156.934C42.2212 156.939 40.7148 155.441 40.7096 153.588Z" fill="#E83E36"/>
<path d="M201.71 58.5893C201.704 56.7359 203.202 55.2293 205.056 55.2242C206.909 55.219 208.415 56.7172 208.42 58.5705C208.425 60.4238 206.927 61.9305 205.074 61.9356C203.221 61.9408 201.715 60.4426 201.71 58.5893Z" fill="#E83E36"/>
<path d="M201.71 153.588C201.704 151.734 203.202 150.228 205.056 150.223C206.909 150.218 208.415 151.716 208.42 153.569C208.425 155.422 206.927 156.929 205.074 156.934C203.221 156.939 201.715 155.441 201.71 153.588Z" fill="#E83E36"/>
<path d="M121.71 58.5893C121.704 56.7359 123.202 55.2293 125.056 55.2242C126.909 55.219 128.415 56.7172 128.42 58.5705C128.425 60.4238 126.927 61.9305 125.074 61.9356C123.221 61.9408 121.715 60.4426 121.71 58.5893Z" fill="#E83E36"/>
<path d="M121.71 153.588C121.704 151.734 123.202 150.228 125.056 150.223C126.909 150.218 128.415 151.716 128.42 153.569C128.425 155.422 126.927 156.929 125.074 156.934C123.221 156.939 121.715 155.441 121.71 153.588Z" fill="#E83E36"/>
<path d="M282.71 153.588C282.704 151.734 284.202 150.228 286.056 150.223C287.909 150.218 289.415 151.716 289.42 153.569C289.425 155.422 287.927 156.929 286.074 156.934C284.221 156.939 282.715 155.441 282.71 153.588Z" fill="#E83E36"/>
<path d="M30.4805 61.9488C28.6293 61.9488 27.1252 60.4445 27.1252 58.5931C27.1252 56.7416 28.6293 55.2373 30.4805 55.2373C32.3318 55.2373 33.8359 56.7416 33.8359 58.5931C33.8359 60.4445 32.3318 61.9488 30.4805 61.9488Z" fill="#E83E36"/>
<path d="M30.4805 156.948C28.6293 156.948 27.1252 155.444 27.1252 153.592C27.1252 151.741 28.6293 150.236 30.4805 150.236C32.3318 150.236 33.8359 151.741 33.8359 153.592C33.8359 155.444 32.3318 156.948 30.4805 156.948Z" fill="#E83E36"/>
<path d="M191.481 61.9488C189.629 61.9488 188.125 60.4445 188.125 58.5931C188.125 56.7416 189.629 55.2373 191.481 55.2373C193.332 55.2373 194.836 56.7416 194.836 58.5931C194.836 60.4445 193.332 61.9488 191.481 61.9488Z" fill="#E83E36"/>
<path d="M191.481 156.948C189.629 156.948 188.125 155.444 188.125 153.592C188.125 151.741 189.629 150.236 191.481 150.236C193.332 150.236 194.836 151.741 194.836 153.592C194.836 155.444 193.332 156.948 191.481 156.948Z" fill="#E83E36"/>
<path d="M111.477 61.9488C109.625 61.9488 108.121 60.4445 108.121 58.5931C108.121 56.7416 109.625 55.2373 111.477 55.2373C113.328 55.2373 114.832 56.7416 114.832 58.5931C114.832 60.4445 113.328 61.9488 111.477 61.9488Z" fill="#E83E36"/>
<path d="M16.9181 61.9346C15.065 61.9346 13.5627 60.4322 13.5627 58.5789C13.5627 56.7256 15.065 55.2231 16.9181 55.2231C18.7712 55.2231 20.2734 56.7256 20.2734 58.5789C20.2734 60.4322 18.7712 61.9346 16.9181 61.9346Z" fill="#E83E36"/>
<path d="M177.918 61.9346C176.065 61.9346 174.563 60.4322 174.563 58.5789C174.563 56.7256 176.065 55.2231 177.918 55.2231C179.771 55.2231 181.273 56.7256 181.273 58.5789C181.273 60.4322 179.771 61.9346 177.918 61.9346Z" fill="#E83E36"/>
<path d="M97.9181 61.9346C96.065 61.9346 94.5627 60.4322 94.5627 58.5789C94.5627 56.7256 96.065 55.2231 97.9181 55.2231C99.7712 55.2231 101.273 56.7256 101.273 58.5789C101.273 60.4322 99.7712 61.9346 97.9181 61.9346Z" fill="#E83E36"/>
<path d="M258.918 61.9346C257.065 61.9346 255.563 60.4322 255.563 58.5789C255.563 56.7256 257.065 55.2231 258.918 55.2231C260.771 55.2231 262.273 56.7256 262.273 58.5789C262.273 60.4322 260.771 61.9346 258.918 61.9346Z" fill="#E83E36"/>
<path d="M3.35554 61.9488C1.5043 61.9488 0.000188828 60.4445 0.000188828 58.5931C0.000188828 56.7416 1.5043 55.2373 3.35554 55.2373C5.20678 55.2373 6.71094 56.7416 6.71094 58.5931C6.71094 60.4445 5.20678 61.9488 3.35554 61.9488Z" fill="#E83E36"/>
<path d="M3.35554 156.948C1.5043 156.948 0.000188828 155.444 0.000188828 153.592C0.000188828 151.741 1.5043 150.236 3.35554 150.236C5.20678 150.236 6.71094 151.741 6.71094 153.592C6.71094 155.444 5.20678 156.948 3.35554 156.948Z" fill="#E83E36"/>
<path d="M164.356 61.9488C162.504 61.9488 161 60.4445 161 58.5931C161 56.7416 162.504 55.2373 164.356 55.2373C166.207 55.2373 167.711 56.7416 167.711 58.5931C167.711 60.4445 166.207 61.9488 164.356 61.9488Z" fill="#E83E36"/>
<path d="M84.3555 61.9488C82.5043 61.9488 81.0002 60.4445 81.0002 58.5931C81.0002 56.7416 82.5043 55.2373 84.3555 55.2373C86.2068 55.2373 87.7109 56.7416 87.7109 58.5931C87.7109 60.4445 86.2068 61.9488 84.3555 61.9488Z" fill="#E83E36"/>
<path d="M71.1798 75.5128C69.3285 75.5128 67.8244 74.0085 67.8244 72.157C67.8244 70.3056 69.3285 68.8013 71.1798 68.8013C73.031 68.8013 74.5352 70.3056 74.5352 72.157C74.5352 74.0085 73.031 75.5128 71.1798 75.5128Z" fill="#E83E36"/>
<path d="M232.18 75.5128C230.329 75.5128 228.824 74.0085 228.824 72.157C228.824 70.3056 230.329 68.8013 232.18 68.8013C234.031 68.8013 235.535 70.3056 235.535 72.157C235.535 74.0085 234.031 75.5128 232.18 75.5128Z" fill="#E83E36"/>
<path d="M152.18 75.5128C150.329 75.5128 148.824 74.0085 148.824 72.157C148.824 70.3056 150.329 68.8013 152.18 68.8013C154.031 68.8013 155.535 70.3056 155.535 72.157C155.535 74.0085 154.031 75.5128 152.18 75.5128Z" fill="#E83E36"/>
<path d="M313.184 75.5128C311.332 75.5128 309.828 74.0085 309.828 72.157C309.828 70.3056 311.332 68.8013 313.184 68.8013C315.035 68.8013 316.539 70.3056 316.539 72.157C316.539 74.0085 315.035 75.5128 313.184 75.5128Z" fill="#E83E36"/>
<path d="M313.184 170.511C311.332 170.511 309.828 169.007 309.828 167.156C309.828 165.304 311.332 163.8 313.184 163.8C315.035 163.8 316.539 165.304 316.539 167.156C316.539 169.007 315.035 170.511 313.184 170.511Z" fill="#E83E36"/>
<path d="M57.6212 75.5128C55.77 75.5128 54.2658 74.0085 54.2658 72.157C54.2658 70.3056 55.77 68.8013 57.6212 68.8013C59.4724 68.8013 60.9766 70.3056 60.9766 72.157C60.9766 74.0085 59.4724 75.5128 57.6212 75.5128Z" fill="#E83E36"/>
<path d="M57.6212 170.511C55.77 170.511 54.2658 169.007 54.2658 167.156C54.2658 165.304 55.77 163.8 57.6212 163.8C59.4724 163.8 60.9766 165.304 60.9766 167.156C60.9766 169.007 59.4724 170.511 57.6212 170.511Z" fill="#E83E36"/>
<path d="M218.621 75.5128C216.77 75.5128 215.266 74.0085 215.266 72.157C215.266 70.3056 216.77 68.8013 218.621 68.8013C220.472 68.8013 221.977 70.3056 221.977 72.157C221.977 74.0085 220.472 75.5128 218.621 75.5128Z" fill="#E83E36"/>
<path d="M138.621 75.5128C136.77 75.5128 135.266 74.0085 135.266 72.157C135.266 70.3056 136.77 68.8013 138.621 68.8013C140.472 68.8013 141.977 70.3056 141.977 72.157C141.977 74.0085 140.472 75.5128 138.621 75.5128Z" fill="#E83E36"/>
<path d="M44.0587 75.5128C42.2074 75.5128 40.7033 74.0085 40.7033 72.157C40.7033 70.3056 42.2074 68.8013 44.0587 68.8013C45.9099 68.8013 47.4141 70.3056 47.4141 72.157C47.4141 74.0085 45.9099 75.5128 44.0587 75.5128Z" fill="#E83E36"/>
<path d="M205.059 170.511C203.207 170.511 201.703 169.007 201.703 167.156C201.703 165.304 203.207 163.8 205.059 163.8C206.91 163.8 208.414 165.304 208.414 167.156C208.414 169.007 206.91 170.511 205.059 170.511Z" fill="#E83E36"/>
<path d="M125.059 75.5128C123.207 75.5128 121.703 74.0085 121.703 72.157C121.703 70.3056 123.207 68.8013 125.059 68.8013C126.91 68.8013 128.414 70.3056 128.414 72.157C128.414 74.0085 126.91 75.5128 125.059 75.5128Z" fill="#E83E36"/>
<path d="M286.059 75.5128C284.207 75.5128 282.703 74.0085 282.703 72.157C282.703 70.3056 284.207 68.8013 286.059 68.8013C287.91 68.8013 289.414 70.3056 289.414 72.157C289.414 74.0085 287.91 75.5128 286.059 75.5128Z" fill="#E83E36"/>
<path d="M286.059 170.511C284.207 170.511 282.703 169.007 282.703 167.156C282.703 165.304 284.207 163.8 286.059 163.8C287.91 163.8 289.414 165.304 289.414 167.156C289.414 169.007 287.91 170.511 286.059 170.511Z" fill="#E83E36"/>
<path d="M30.4805 75.5128C28.6293 75.5128 27.1252 74.0085 27.1252 72.157C27.1252 70.3056 28.6293 68.8013 30.4805 68.8013C32.3318 68.8013 33.8359 70.3056 33.8359 72.157C33.8359 74.0085 32.3318 75.5128 30.4805 75.5128Z" fill="#E83E36"/>
<path d="M191.481 75.5128C189.629 75.5128 188.125 74.0085 188.125 72.157C188.125 70.3056 189.629 68.8013 191.481 68.8013C193.332 68.8013 194.836 70.3056 194.836 72.157C194.836 74.0085 193.332 75.5128 191.481 75.5128Z" fill="#E83E36"/>
<path d="M111.477 75.5128C109.625 75.5128 108.121 74.0085 108.121 72.157C108.121 70.3056 109.625 68.8013 111.477 68.8013C113.328 68.8013 114.832 70.3056 114.832 72.157C114.832 74.0085 113.328 75.5128 111.477 75.5128Z" fill="#E83E36"/>
<path d="M272.481 75.5128C270.629 75.5128 269.125 74.0085 269.125 72.157C269.125 70.3056 270.629 68.8013 272.481 68.8013C274.332 68.8013 275.836 70.3056 275.836 72.157C275.836 74.0085 274.332 75.5128 272.481 75.5128Z" fill="#E83E36"/>
<path d="M272.481 170.511C270.629 170.511 269.125 169.007 269.125 167.156C269.125 165.304 270.629 163.8 272.481 163.8C274.332 163.8 275.836 165.304 275.836 167.156C275.836 169.007 274.332 170.511 272.481 170.511Z" fill="#E83E36"/>
<path d="M16.9181 75.5128C15.0668 75.5128 13.5627 74.0085 13.5627 72.157C13.5627 70.3056 15.0668 68.8013 16.9181 68.8013C18.7693 68.8013 20.2734 70.3056 20.2734 72.157C20.2734 74.0085 18.7693 75.5128 16.9181 75.5128Z" fill="#E83E36"/>
<path d="M97.9181 75.5128C96.0668 75.5128 94.5627 74.0085 94.5627 72.157C94.5627 70.3056 96.0668 68.8013 97.9181 68.8013C99.7693 68.8013 101.273 70.3056 101.273 72.157C101.273 74.0085 99.7693 75.5128 97.9181 75.5128Z" fill="#E83E36"/>
<path d="M258.918 75.5128C257.067 75.5128 255.563 74.0085 255.563 72.157C255.563 70.3056 257.067 68.8013 258.918 68.8013C260.769 68.8013 262.273 70.3056 262.273 72.157C262.273 74.0085 260.769 75.5128 258.918 75.5128Z" fill="#E83E36"/>
<path d="M3.35554 75.5128C1.5043 75.5128 0.000188828 74.0085 0.000188828 72.157C0.000188828 70.3056 1.5043 68.8013 3.35554 68.8013C5.20678 68.8013 6.71094 70.3056 6.71094 72.157C6.71094 74.0085 5.20678 75.5128 3.35554 75.5128Z" fill="#E83E36"/>
<path d="M3.35554 170.511C1.5043 170.511 0.000188828 169.007 0.000188828 167.156C0.000188828 165.304 1.5043 163.8 3.35554 163.8C5.20678 163.8 6.71094 165.304 6.71094 167.156C6.71094 169.007 5.20678 170.511 3.35554 170.511Z" fill="#E83E36"/>
<path d="M164.356 75.5128C162.504 75.5128 161 74.0085 161 72.157C161 70.3056 162.504 68.8013 164.356 68.8013C166.207 68.8013 167.711 70.3056 167.711 72.157C167.711 74.0085 166.207 75.5128 164.356 75.5128Z" fill="#E83E36"/>
<path d="M164.356 170.511C162.504 170.511 161 169.007 161 167.156C161 165.304 162.504 163.8 164.356 163.8C166.207 163.8 167.711 165.304 167.711 167.156C167.711 169.007 166.207 170.511 164.356 170.511Z" fill="#E83E36"/>
<path d="M84.3555 75.5128C82.5043 75.5128 81.0002 74.0085 81.0002 72.157C81.0002 70.3056 82.5043 68.8013 84.3555 68.8013C86.2068 68.8013 87.7109 70.3056 87.7109 72.157C87.7109 74.0085 86.2068 75.5128 84.3555 75.5128Z" fill="#E83E36"/>
<path d="M245.356 75.5128C243.504 75.5128 242 74.0085 242 72.157C242 70.3056 243.504 68.8013 245.356 68.8013C247.207 68.8013 248.711 70.3056 248.711 72.157C248.711 74.0085 247.207 75.5128 245.356 75.5128Z" fill="#E83E36"/>
<path d="M245.356 170.511C243.504 170.511 242 169.007 242 167.156C242 165.304 243.504 163.8 245.356 163.8C247.207 163.8 248.711 165.304 248.711 167.156C248.711 169.007 247.207 170.511 245.356 170.511Z" fill="#E83E36"/>
<path d="M71.1798 89.0762C69.3285 89.0762 67.8244 87.5719 67.8244 85.7205C67.8244 83.869 69.3285 82.3647 71.1798 82.3647C73.031 82.3647 74.5352 83.869 74.5352 85.7205C74.5352 87.5719 73.031 89.0762 71.1798 89.0762Z" fill="#E83E36"/>
<path d="M232.18 184.075C230.329 184.075 228.824 182.571 228.824 180.72C228.824 178.868 230.329 177.364 232.18 177.364C234.031 177.364 235.535 178.868 235.535 180.72C235.535 182.571 234.031 184.075 232.18 184.075Z" fill="#E83E36"/>
<path d="M152.18 89.0762C150.329 89.0762 148.824 87.5719 148.824 85.7205C148.824 83.869 150.329 82.3647 152.18 82.3647C154.031 82.3647 155.535 83.869 155.535 85.7205C155.535 87.5719 154.031 89.0762 152.18 89.0762Z" fill="#E83E36"/>
<path d="M57.6212 89.0762C55.77 89.0762 54.2658 87.5719 54.2658 85.7205C54.2658 83.869 55.77 82.3647 57.6212 82.3647C59.4724 82.3647 60.9766 83.869 60.9766 85.7205C60.9766 87.5719 59.4724 89.0762 57.6212 89.0762Z" fill="#E83E36"/>
<path d="M218.621 89.0762C216.77 89.0762 215.266 87.5719 215.266 85.7205C215.266 83.869 216.77 82.3647 218.621 82.3647C220.472 82.3647 221.977 83.869 221.977 85.7205C221.977 87.5719 220.472 89.0762 218.621 89.0762Z" fill="#E83E36"/>
<path d="M299.621 89.0762C297.77 89.0762 296.266 87.5719 296.266 85.7205C296.266 83.869 297.77 82.3647 299.621 82.3647C301.472 82.3647 302.977 83.869 302.977 85.7205C302.977 87.5719 301.472 89.0762 299.621 89.0762Z" fill="#E83E36"/>
<path d="M44.0587 89.0762C42.2074 89.0762 40.7033 87.5719 40.7033 85.7205C40.7033 83.869 42.2074 82.3647 44.0587 82.3647C45.9099 82.3647 47.4141 83.869 47.4141 85.7205C47.4141 87.5719 45.9099 89.0762 44.0587 89.0762Z" fill="#E83E36"/>
<path d="M205.059 89.0762C203.207 89.0762 201.703 87.5719 201.703 85.7205C201.703 83.869 203.207 82.3647 205.059 82.3647C206.91 82.3647 208.414 83.869 208.414 85.7205C208.414 87.5719 206.91 89.0762 205.059 89.0762Z" fill="#E83E36"/>
<path d="M125.059 89.0762C123.207 89.0762 121.703 87.5719 121.703 85.7205C121.703 83.869 123.207 82.3647 125.059 82.3647C126.91 82.3647 128.414 83.869 128.414 85.7205C128.414 87.5719 126.91 89.0762 125.059 89.0762Z" fill="#E83E36"/>
<path d="M286.059 89.0762C284.207 89.0762 282.703 87.5719 282.703 85.7205C282.703 83.869 284.207 82.3647 286.059 82.3647C287.91 82.3647 289.414 83.869 289.414 85.7205C289.414 87.5719 287.91 89.0762 286.059 89.0762Z" fill="#E83E36"/>
<path d="M30.4805 89.0762C28.6293 89.0762 27.1252 87.5719 27.1252 85.7205C27.1252 83.869 28.6293 82.3647 30.4805 82.3647C32.3318 82.3647 33.8359 83.869 33.8359 85.7205C33.8359 87.5719 32.3318 89.0762 30.4805 89.0762Z" fill="#E83E36"/>
<path d="M30.4805 184.075C28.6293 184.075 27.1252 182.571 27.1252 180.72C27.1252 178.868 28.6293 177.364 30.4805 177.364C32.3318 177.364 33.8359 178.868 33.8359 180.72C33.8359 182.571 32.3318 184.075 30.4805 184.075Z" fill="#E83E36"/>
<path d="M191.481 184.075C189.629 184.075 188.125 182.571 188.125 180.72C188.125 178.868 189.629 177.364 191.481 177.364C193.332 177.364 194.836 178.868 194.836 180.72C194.836 182.571 193.332 184.075 191.481 184.075Z" fill="#E83E36"/>
<path d="M111.477 89.0762C109.625 89.0762 108.121 87.5719 108.121 85.7205C108.121 83.869 109.625 82.3647 111.477 82.3647C113.328 82.3647 114.832 83.869 114.832 85.7205C114.832 87.5719 113.328 89.0762 111.477 89.0762Z" fill="#E83E36"/>
<path d="M272.481 89.0762C270.629 89.0762 269.125 87.5719 269.125 85.7205C269.125 83.869 270.629 82.3647 272.481 82.3647C274.332 82.3647 275.836 83.869 275.836 85.7205C275.836 87.5719 274.332 89.0762 272.481 89.0762Z" fill="#E83E36"/>
<path d="M3.35554 89.0762C1.5043 89.0762 0.000188828 87.5719 0.000188828 85.7205C0.000188828 83.869 1.5043 82.3647 3.35554 82.3647C5.20678 82.3647 6.71094 83.869 6.71094 85.7205C6.71094 87.5719 5.20678 89.0762 3.35554 89.0762Z" fill="#E83E36"/>
<path d="M3.35554 184.075C1.5043 184.075 0.000188828 182.571 0.000188828 180.72C0.000188828 178.868 1.5043 177.364 3.35554 177.364C5.20678 177.364 6.71094 178.868 6.71094 180.72C6.71094 182.571 5.20678 184.075 3.35554 184.075Z" fill="#E83E36"/>
<path d="M164.356 89.0762C162.504 89.0762 161 87.5719 161 85.7205C161 83.869 162.504 82.3647 164.356 82.3647C166.207 82.3647 167.711 83.869 167.711 85.7205C167.711 87.5719 166.207 89.0762 164.356 89.0762Z" fill="#E83E36"/>
<path d="M164.356 184.075C162.504 184.075 161 182.571 161 180.72C161 178.868 162.504 177.364 164.356 177.364C166.207 177.364 167.711 178.868 167.711 180.72C167.711 182.571 166.207 184.075 164.356 184.075Z" fill="#E83E36"/>
<path d="M84.3555 89.0762C82.5043 89.0762 81.0002 87.5719 81.0002 85.7205C81.0002 83.869 82.5043 82.3647 84.3555 82.3647C86.2068 82.3647 87.7109 83.869 87.7109 85.7205C87.7109 87.5719 86.2068 89.0762 84.3555 89.0762Z" fill="#E83E36"/>
<path d="M245.356 89.0762C243.504 89.0762 242 87.5719 242 85.7205C242 83.869 243.504 82.3647 245.356 82.3647C247.207 82.3647 248.711 83.869 248.711 85.7205C248.711 87.5719 247.207 89.0762 245.356 89.0762Z" fill="#E83E36"/>
<path d="M245.356 184.075C243.504 184.075 242 182.571 242 180.72C242 178.868 243.504 177.364 245.356 177.364C247.207 177.364 248.711 178.868 248.711 180.72C248.711 182.571 247.207 184.075 245.356 184.075Z" fill="#E83E36"/>
</svg>
