<svg width="296" height="64" viewBox="0 0 296 64" fill="none" xmlns="http://www.w3.org/2000/svg">
<path d="M112.509 24.8498C111.347 24.8498 110.266 24.675 109.269 24.3341C108.273 23.9889 107.407 23.4988 106.674 22.8596C105.941 22.2204 105.372 21.4746 104.963 20.618C104.554 19.7614 104.352 18.8154 104.352 17.7883C104.352 16.7613 104.558 15.8195 104.963 14.9587C105.372 14.1021 105.945 13.352 106.683 12.7128C107.422 12.0736 108.291 11.5835 109.288 11.2383C110.285 10.8931 111.366 10.7227 112.527 10.7227C113.834 10.7227 115.019 10.9272 116.077 11.3363C117.139 11.7454 118.028 12.3463 118.747 13.1432L116.486 15.0141C115.983 14.4814 115.414 14.0765 114.775 13.8038C114.135 13.531 113.444 13.3947 112.697 13.3947C111.991 13.3947 111.347 13.5012 110.76 13.7185C110.172 13.9316 109.664 14.2342 109.232 14.6263C108.799 15.0183 108.465 15.4786 108.23 16.0113C107.995 16.544 107.873 17.1363 107.873 17.7883C107.873 18.4404 107.99 19.0327 108.23 19.5654C108.465 20.0981 108.799 20.5584 109.232 20.9504C109.664 21.3425 110.172 21.6408 110.76 21.8581C111.347 22.0712 111.991 22.182 112.697 22.182C113.444 22.182 114.135 22.0414 114.775 21.7644C115.414 21.4831 115.983 21.0783 116.486 20.5456L118.747 22.4207C118.028 23.2133 117.139 23.8185 116.077 24.2361C115.014 24.6537 113.825 24.8625 112.504 24.8625L112.509 24.8498Z" fill="white"/>
<path d="M124.515 24.6163H121.008V10.958H124.515V24.6163ZM131.595 19.0166H124.233V16.3446H131.595V19.0166ZM131.337 10.958H134.825V24.6163H131.337V10.958Z" fill="white"/>
<path d="M138.352 24.6163V10.958H141.859V24.6163H138.352Z" fill="white"/>
<path d="M145.38 24.6144V10.9561H148.262L157.152 20.7918H155.751V10.9561H159.197V24.6144H156.311L147.42 14.7787H148.821V24.6144H145.375H145.38Z" fill="white"/>
<path d="M160.742 24.6144L167.437 10.9561H170.883L177.644 24.6144H173.986L168.453 12.5584H169.854L164.32 24.6144H160.747H160.742ZM164.123 21.6867L165.006 19.2874H172.797L173.699 21.6867H164.123Z" fill="white"/>
<path d="M185.211 24.6163V10.958H192.573C194.468 10.958 195.893 11.2819 196.847 11.9339C197.801 12.5859 198.276 13.4425 198.276 14.5079C198.276 15.2238 198.083 15.846 197.693 16.3702C197.308 16.8986 196.772 17.3035 196.09 17.589C195.408 17.8745 194.637 18.0194 193.777 18.0194L194.186 17.2012C195.131 17.2012 195.968 17.3461 196.692 17.6316C197.416 17.9171 197.985 18.3348 198.403 18.8803C198.817 19.4257 199.028 20.0948 199.028 20.8917C199.028 22.0637 198.521 22.9756 197.5 23.6319C196.48 24.2882 194.981 24.6163 193.001 24.6163H185.211ZM188.676 22.2341H192.766C193.655 22.2341 194.336 22.0977 194.811 21.825C195.286 21.5523 195.521 21.1304 195.521 20.5551C195.521 19.9797 195.286 19.5408 194.811 19.2681C194.336 18.9953 193.655 18.859 192.766 18.859H188.417V16.5577H192.141C192.987 16.5577 193.636 16.4256 194.087 16.1571C194.539 15.8929 194.764 15.4838 194.764 14.9383C194.764 14.3928 194.539 13.988 194.087 13.728C193.636 13.4681 192.987 13.336 192.141 13.336H188.676V22.2341Z" fill="white"/>
<path d="M208.342 24.8507C206.203 24.8507 204.534 24.3095 203.326 23.2313C202.122 22.1531 201.516 20.6019 201.516 18.5862V10.958H205.023V18.5095C205.023 19.7965 205.319 20.7298 205.907 21.3094C206.494 21.8889 207.312 22.1787 208.361 22.1787C209.409 22.1787 210.246 21.8889 210.839 21.3094C211.426 20.7298 211.722 19.7965 211.722 18.5095V10.958H215.145V18.5862C215.145 20.6019 214.543 22.1489 213.335 23.2313C212.131 24.3095 210.467 24.8507 208.342 24.8507Z" fill="white"/>
<path d="M223.529 24.8501C222.326 24.8501 221.164 24.7052 220.055 24.4112C218.941 24.1171 218.047 23.7378 217.375 23.2691L218.56 20.8868C219.19 21.3045 219.951 21.6454 220.84 21.9096C221.729 22.1781 222.626 22.3102 223.529 22.3102C224.216 22.3102 224.775 22.2463 225.198 22.1142C225.621 21.9863 225.932 21.8116 226.134 21.5985C226.336 21.3855 226.435 21.134 226.435 20.8485C226.435 20.4863 226.275 20.1965 225.96 19.9791C225.645 19.7618 225.226 19.5871 224.7 19.4507C224.178 19.3143 223.604 19.1865 222.989 19.0586C222.373 18.9351 221.752 18.7859 221.127 18.6112C220.501 18.4364 219.928 18.2021 219.406 17.908C218.884 17.614 218.466 17.2304 218.155 16.7574C217.845 16.2844 217.695 15.6877 217.695 14.9718C217.695 14.1919 217.925 13.4802 218.386 12.8367C218.847 12.1933 219.542 11.6776 220.483 11.2941C221.423 10.9105 222.603 10.7188 224.023 10.7188C224.968 10.7188 225.908 10.8253 226.834 11.0298C227.76 11.2387 228.569 11.537 229.256 11.929L228.16 14.3113C227.483 13.9618 226.787 13.6976 226.073 13.5229C225.353 13.3481 224.667 13.2586 224.004 13.2586C223.341 13.2586 222.763 13.3268 222.344 13.4632C221.926 13.5996 221.625 13.7871 221.428 14.0172C221.235 14.2516 221.136 14.5115 221.136 14.7971C221.136 15.1593 221.296 15.4534 221.611 15.675C221.926 15.8966 222.344 16.067 222.862 16.1906C223.379 16.3142 223.952 16.4378 224.582 16.5614C225.212 16.6849 225.838 16.8384 226.453 17.0216C227.069 17.2049 227.638 17.435 228.155 17.7162C228.673 17.9975 229.091 18.3725 229.415 18.8498C229.74 19.3229 229.9 19.9152 229.9 20.6141C229.9 21.3812 229.665 22.0843 229.199 22.7193C228.734 23.3586 228.024 23.8699 227.079 24.262C226.134 24.6541 224.949 24.8458 223.529 24.8458V24.8501Z" fill="white"/>
<path d="M232.234 24.6163V10.958H235.742V24.6163H232.234Z" fill="white"/>
<path d="M239.239 24.6163V10.958H242.121L251.011 20.7937H249.61V10.958H253.057V24.6163H250.17L241.279 14.7806H242.681V24.6163H239.234H239.239Z" fill="white"/>
<path d="M260.059 22.0787H268.258V24.6144H256.594V10.9561H267.981V13.4917H260.059V22.0787ZM259.8 16.4407H267.054V18.9167H259.8V16.4407Z" fill="white"/>
<path d="M275.967 24.8501C274.763 24.8501 273.602 24.7052 272.492 24.4112C271.378 24.1171 270.485 23.7378 269.812 23.2691L270.997 20.8868C271.627 21.3045 272.389 21.6454 273.277 21.9096C274.166 22.1781 275.064 22.3102 275.967 22.3102C276.653 22.3102 277.213 22.2463 277.636 22.1142C278.059 21.9863 278.369 21.8116 278.571 21.5985C278.773 21.3855 278.872 21.134 278.872 20.8485C278.872 20.4863 278.712 20.1965 278.397 19.9791C278.082 19.7618 277.664 19.5871 277.137 19.4507C276.615 19.3143 276.042 19.1865 275.426 19.0586C274.81 18.9351 274.19 18.7859 273.564 18.6112C272.939 18.4364 272.365 18.2021 271.844 17.908C271.322 17.614 270.903 17.2304 270.593 16.7574C270.283 16.2844 270.132 15.6877 270.132 14.9718C270.132 14.1919 270.363 13.4802 270.823 12.8367C271.284 12.1933 271.98 11.6776 272.92 11.2941C273.86 10.9105 275.04 10.7188 276.46 10.7188C277.405 10.7188 278.346 10.8253 279.272 11.0298C280.198 11.2387 281.007 11.537 281.693 11.929L280.598 14.3113C279.921 13.9618 279.225 13.6976 278.51 13.5229C277.791 13.3481 277.104 13.2586 276.442 13.2586C275.779 13.2586 275.2 13.3268 274.782 13.4632C274.363 13.5996 274.063 13.7871 273.865 14.0172C273.672 14.2516 273.574 14.5115 273.574 14.7971C273.574 15.1593 273.733 15.4534 274.048 15.675C274.363 15.8966 274.782 16.067 275.299 16.1906C275.816 16.3142 276.39 16.4378 277.02 16.5614C277.65 16.6849 278.275 16.8384 278.891 17.0216C279.507 17.2049 280.076 17.435 280.593 17.7162C281.11 17.9975 281.528 18.3725 281.853 18.8498C282.177 19.3229 282.337 19.9152 282.337 20.6141C282.337 21.3812 282.102 22.0843 281.637 22.7193C281.171 23.3586 280.461 23.8699 279.516 24.262C278.571 24.6541 277.387 24.8458 275.967 24.8458V24.8501Z" fill="white"/>
<path d="M289.631 24.8501C288.427 24.8501 287.266 24.7052 286.156 24.4112C285.042 24.1171 284.149 23.7378 283.477 23.2691L284.661 20.8868C285.291 21.3045 286.053 21.6454 286.942 21.9096C287.83 22.1781 288.728 22.3102 289.631 22.3102C290.317 22.3102 290.877 22.2463 291.3 22.1142C291.723 21.9863 292.033 21.8116 292.235 21.5985C292.437 21.3855 292.536 21.134 292.536 20.8485C292.536 20.4863 292.376 20.1965 292.061 19.9791C291.746 19.7618 291.328 19.5871 290.801 19.4507C290.28 19.3143 289.706 19.1865 289.09 19.0586C288.474 18.9351 287.854 18.7859 287.228 18.6112C286.603 18.4364 286.029 18.2021 285.508 17.908C284.986 17.614 284.567 17.2304 284.257 16.7574C283.947 16.2844 283.796 15.6877 283.796 14.9718C283.796 14.1919 284.027 13.4802 284.487 12.8367C284.948 12.1933 285.644 11.6776 286.584 11.2941C287.524 10.9105 288.705 10.7188 290.124 10.7188C291.069 10.7188 292.01 10.8253 292.936 11.0298C293.862 11.2387 294.671 11.537 295.357 11.929L294.262 14.3113C293.585 13.9618 292.889 13.6976 292.174 13.5229C291.455 13.3481 290.768 13.2586 290.106 13.2586C289.443 13.2586 288.864 13.3268 288.446 13.4632C288.028 13.5996 287.727 13.7871 287.529 14.0172C287.336 14.2516 287.238 14.5115 287.238 14.7971C287.238 15.1593 287.398 15.4534 287.713 15.675C288.028 15.8966 288.446 16.067 288.963 16.1906C289.48 16.3142 290.054 16.4378 290.684 16.5614C291.314 16.6849 291.939 16.8384 292.555 17.0216C293.171 17.2049 293.74 17.435 294.257 17.7162C294.774 17.9975 295.193 18.3725 295.517 18.8498C295.841 19.3229 296.001 19.9152 296.001 20.6141C296.001 21.3812 295.766 22.0843 295.301 22.7193C294.835 23.3586 294.125 23.8699 293.18 24.262C292.235 24.6541 291.051 24.8458 289.631 24.8458V24.8501Z" fill="white"/>
<path d="M110.264 44.4624C109.06 44.4624 107.899 44.3175 106.789 44.0235C105.675 43.7294 104.782 43.3501 104.109 42.8814L105.294 40.4992C105.924 40.9168 106.686 41.2577 107.574 41.5219C108.463 41.7904 109.361 41.9225 110.264 41.9225C110.95 41.9225 111.509 41.8586 111.933 41.7265C112.356 41.5986 112.666 41.4239 112.868 41.2108C113.07 40.9978 113.169 40.7463 113.169 40.4608C113.169 40.0986 113.009 39.8088 112.694 39.5914C112.379 39.3741 111.961 39.1994 111.434 39.063C110.912 38.9266 110.339 38.7988 109.723 38.6709C109.107 38.5474 108.486 38.3982 107.861 38.2235C107.236 38.0488 106.662 37.8144 106.14 37.5203C105.619 37.2263 105.2 36.8427 104.89 36.3697C104.58 35.8967 104.429 35.3 104.429 34.5841C104.429 33.8042 104.659 33.0926 105.12 32.4491C105.581 31.8056 106.277 31.2899 107.217 30.9064C108.157 30.5228 109.337 30.3311 110.757 30.3311C111.702 30.3311 112.642 30.4376 113.569 30.6422C114.495 30.851 115.303 31.1493 115.99 31.5413L114.894 33.9236C114.217 33.5741 113.522 33.3099 112.807 33.1352C112.088 32.9604 111.401 32.871 110.738 32.871C110.075 32.871 109.497 32.9391 109.079 33.0755C108.66 33.2119 108.359 33.3994 108.162 33.6295C107.969 33.8639 107.871 34.1238 107.871 34.4094C107.871 34.7716 108.03 35.0657 108.345 35.2873C108.66 35.5089 109.079 35.6793 109.596 35.8029C110.113 35.9265 110.687 36.0501 111.317 36.1737C111.947 36.2973 112.572 36.4507 113.188 36.6339C113.804 36.8172 114.373 37.0473 114.89 37.3285C115.407 37.6098 115.825 37.9848 116.15 38.4621C116.474 38.9352 116.634 39.5275 116.634 40.2264C116.634 40.9935 116.399 41.6967 115.933 42.3316C115.468 42.9709 114.758 43.4823 113.813 43.8743C112.868 44.2664 111.683 44.4581 110.264 44.4581V44.4624Z" fill="white"/>
<path d="M126.281 44.4624C125.091 44.4624 123.991 44.2877 122.99 43.934C121.984 43.5845 121.109 43.0902 120.362 42.451C119.614 41.8117 119.036 41.0659 118.627 40.2051C118.218 39.3485 118.016 38.411 118.016 37.3967C118.016 36.3825 118.222 35.4279 118.627 34.5756C119.036 33.7233 119.614 32.9775 120.362 32.3425C121.109 31.7033 121.979 31.2089 122.976 30.8595C123.972 30.51 125.068 30.3311 126.257 30.3311C127.447 30.3311 128.542 30.5058 129.539 30.8467C130.536 31.1919 131.41 31.682 132.153 32.3212C132.9 32.9604 133.479 33.7062 133.888 34.5671C134.297 35.4236 134.499 36.3697 134.499 37.3967C134.499 38.4238 134.292 39.3528 133.888 40.2179C133.479 41.083 132.9 41.833 132.153 42.4723C131.405 43.1115 130.536 43.6016 129.539 43.9468C128.542 44.2919 127.456 44.4624 126.276 44.4624H126.281ZM126.257 41.7904C126.93 41.7904 127.55 41.6839 128.119 41.4665C128.688 41.2535 129.186 40.9466 129.614 40.5503C130.047 40.154 130.38 39.6937 130.615 39.1653C130.851 38.6368 130.973 38.0488 130.973 37.401C130.973 36.7532 130.855 36.1609 130.615 35.6367C130.38 35.1083 130.047 34.648 129.614 34.2517C129.182 33.8554 128.683 33.5485 128.119 33.3355C127.55 33.1224 126.93 33.0116 126.257 33.0116C125.585 33.0116 124.96 33.1181 124.386 33.3355C123.812 33.5485 123.314 33.8554 122.891 34.2517C122.468 34.648 122.139 35.1083 121.899 35.6367C121.664 36.1651 121.542 36.7532 121.542 37.401C121.542 38.0488 121.659 38.6411 121.899 39.1653C122.134 39.6937 122.468 40.154 122.891 40.5503C123.314 40.9466 123.812 41.2535 124.386 41.4665C124.96 41.6796 125.585 41.7904 126.257 41.7904Z" fill="white"/>
<path d="M137.086 44.2267V30.5684H140.593V41.6484H148.106V44.2224H137.086V44.2267Z" fill="white"/>
<path d="M156.756 44.4611C154.617 44.4611 152.948 43.9198 151.74 42.8417C150.536 41.7635 149.93 40.2123 149.93 38.1966V30.5684H153.437V38.1199C153.437 39.4069 153.733 40.3401 154.321 40.9197C154.908 41.4993 155.727 41.7891 156.775 41.7891C157.823 41.7891 158.66 41.4993 159.253 40.9197C159.84 40.3401 160.136 39.4069 160.136 38.1199V30.5684H163.559V38.1966C163.559 40.2123 162.957 41.7592 161.749 42.8417C160.545 43.9198 158.881 44.4611 156.756 44.4611Z" fill="white"/>
<path d="M170.105 44.2267V33.1423H165.281V30.5684H178.412V33.1423H173.589V44.2267H170.1H170.105Z" fill="white"/>
<path d="M180.25 44.2267V30.5684H183.757V44.2267H180.25Z" fill="white"/>
<path d="M194.57 44.4614C193.38 44.4614 192.28 44.2867 191.279 43.933C190.273 43.5836 189.398 43.0892 188.651 42.45C187.903 41.8107 187.325 41.065 186.916 40.2041C186.507 39.3476 186.305 38.41 186.305 37.3958C186.305 36.3815 186.512 35.4269 186.916 34.5746C187.325 33.7223 187.903 32.9765 188.651 32.3415C189.398 31.7023 190.268 31.208 191.265 30.8585C192.261 30.5091 193.357 30.3301 194.546 30.3301C195.736 30.3301 196.831 30.5048 197.828 30.8457C198.825 31.1909 199.699 31.681 200.442 32.3202C201.189 32.9595 201.768 33.7052 202.177 34.5661C202.586 35.4227 202.788 36.3687 202.788 37.3958C202.788 38.4228 202.581 39.3518 202.177 40.2169C201.768 41.082 201.189 41.832 200.442 42.4713C199.694 43.1105 198.825 43.6006 197.828 43.9458C196.831 44.291 195.745 44.4614 194.565 44.4614H194.57ZM194.546 41.7894C195.219 41.7894 195.839 41.6829 196.408 41.4656C196.977 41.2525 197.475 40.9456 197.903 40.5493C198.336 40.153 198.669 39.6927 198.905 39.1643C199.14 38.6359 199.262 38.0478 199.262 37.4C199.262 36.7523 199.144 36.1599 198.905 35.6357C198.669 35.1073 198.336 34.647 197.903 34.2507C197.471 33.8544 196.972 33.5476 196.408 33.3345C195.839 33.1214 195.219 33.0106 194.546 33.0106C193.874 33.0106 193.249 33.1171 192.675 33.3345C192.102 33.5476 191.603 33.8544 191.18 34.2507C190.757 34.647 190.428 35.1073 190.188 35.6357C189.953 36.1642 189.831 36.7523 189.831 37.4C189.831 38.0478 189.948 38.6401 190.188 39.1643C190.423 39.6927 190.757 40.153 191.18 40.5493C191.603 40.9456 192.102 41.2525 192.675 41.4656C193.249 41.6786 193.874 41.7894 194.546 41.7894Z" fill="white"/>
<path d="M205.38 44.2267V30.5684H208.262L217.152 40.4041H215.751V30.5684H219.197V44.2267H216.311L207.42 34.391H208.821V44.2267H205.375H205.38Z" fill="white"/>
<path d="M227.701 44.4614C226.497 44.4614 225.336 44.3165 224.227 44.0225C223.112 43.7284 222.219 43.3492 221.547 42.8804L222.732 40.4982C223.362 40.9158 224.123 41.2567 225.012 41.521C225.9 41.7894 226.798 41.9215 227.701 41.9215C228.387 41.9215 228.947 41.8576 229.37 41.7255C229.793 41.5977 230.103 41.4229 230.306 41.2099C230.508 40.9968 230.607 40.7453 230.607 40.4598C230.607 40.0976 230.447 39.8078 230.132 39.5905C229.817 39.3731 229.398 39.1984 228.872 39.062C228.35 38.9257 227.776 38.7978 227.16 38.67C226.544 38.5464 225.924 38.3972 225.299 38.2225C224.673 38.0478 224.1 37.8134 223.578 37.5193C223.056 37.2253 222.638 36.8418 222.327 36.3687C222.017 35.8957 221.867 35.2991 221.867 34.5831C221.867 33.8033 222.097 33.0916 222.558 32.4481C223.018 31.8046 223.714 31.2889 224.655 30.9054C225.595 30.5219 226.775 30.3301 228.195 30.3301C229.14 30.3301 230.08 30.4366 231.006 30.6412C231.932 30.85 232.741 31.1483 233.427 31.5404L232.332 33.9226C231.655 33.5731 230.959 33.3089 230.245 33.1342C229.525 32.9595 228.839 32.87 228.176 32.87C227.513 32.87 226.935 32.9382 226.516 33.0745C226.098 33.2109 225.797 33.3984 225.6 33.6285C225.407 33.8629 225.308 34.1229 225.308 34.4084C225.308 34.7706 225.468 35.0647 225.783 35.2863C226.098 35.5079 226.516 35.6783 227.033 35.8019C227.551 35.9255 228.124 36.0491 228.754 36.1727C229.384 36.2963 230.009 36.4497 230.625 36.6329C231.241 36.8162 231.81 37.0463 232.327 37.3276C232.844 37.6088 233.263 37.9839 233.587 38.4611C233.912 38.9342 234.071 39.5265 234.071 40.2254C234.071 40.9925 233.836 41.6957 233.371 42.3307C232.906 42.9699 232.196 43.4813 231.251 43.8733C230.306 44.2654 229.121 44.4572 227.701 44.4572V44.4614Z" fill="white"/>
<path d="M90.4552 22.6758C89.1106 9.9678 77.2677 0 62.9001 0H27.6818C6.17273 0 -9.68518 22.3519 6.89205 42.7733C10.6767 47.4355 16.6804 50.1842 23.065 50.1842H48.7535V50.6999C48.7535 50.8959 48.9322 51.0578 49.1485 51.0578H50.3802C50.4084 50.9215 50.4414 50.7894 50.4837 50.653C52.4207 44.4268 68.382 40.8855 69.059 40.7406L69.4586 42.2492C65.1145 43.1952 53.549 46.6215 52.1386 51.0536C52.1386 51.0536 52.1386 51.045 52.1386 51.0408H50.3849C50.0182 52.8392 50.8128 54.6461 52.7592 56.4104C54.6867 58.1576 55.5189 59.5469 55.0958 60.314C54.1743 61.9973 47.7004 62.0101 43.3939 61.4774L43.1635 63.0158C43.2717 63.0286 45.7775 63.3354 48.5984 63.3354C48.7253 63.3354 48.8476 63.3354 48.9745 63.3354C53.2904 63.2928 55.7963 62.53 56.6284 61.0043C57.4371 59.5298 56.5673 57.6633 53.9674 55.3109C52.3219 53.8193 51.7248 52.4258 52.1339 51.0536H59.0873L62.2513 52.967L66.8916 50.67H68.8474C69.2141 51.1772 69.6702 51.6843 70.2249 52.1871C72.1525 53.9344 72.9847 55.3237 72.5616 56.0907C71.6401 57.7741 65.1662 57.7868 60.8597 57.2542L60.6293 58.7926C60.7375 58.8054 63.2433 59.1122 66.0642 59.1122C66.1911 59.1122 66.3134 59.1122 66.4403 59.1122C70.7562 59.0696 73.2621 58.3068 74.0942 56.7811C74.9029 55.3066 74.0331 53.44 71.4332 51.0877C71.2781 50.947 71.1417 50.8064 71.0054 50.67H74.4844L76.4261 48.8333L79.4633 52.9628L85.97 41.4182C86.3179 40.8002 85.9794 40.0502 85.2554 39.8329L76.2428 37.1182L70.9866 29.3494C70.225 28.2201 68.8662 27.534 67.4088 27.534H34.4048C34.4048 27.534 38.7536 30.9986 43.9205 32.7928H27.6818C22.9521 32.7928 19.1111 29.2727 19.1769 24.9728C19.2427 20.741 23.1449 17.3787 27.8181 17.3787H62.9001C66.934 17.3787 70.319 19.9356 71.1887 23.3576C71.4473 24.3676 72.4252 25.0878 73.5677 25.0878H88.0245C89.4632 25.0878 90.5915 23.9671 90.4552 22.6715V22.6758Z" fill="#E83E36"/>
</svg>
