<svg width="142" height="89" viewBox="0 0 142 89" fill="none" xmlns="http://www.w3.org/2000/svg">
<path d="M111.728 73.6348L107.747 69.6777L103.766 73.6348L107.747 81.895L111.728 73.6348Z" fill="white"/>
<path d="M107.747 46.9414C106.221 46.9414 104.977 48.178 104.977 49.6948C104.977 51.2117 106.221 52.4483 107.747 52.4483C109.273 52.4483 110.517 51.2117 110.517 49.6948C110.517 48.178 109.273 46.9414 107.747 46.9414Z" fill="white"/>
<path d="M111.294 61.0041L107.744 57.4757L104.194 61.0041C104.011 60.5094 101.639 54.1122 101.639 49.9409C101.639 44.3186 107.329 41.153 107.744 40.9222C108.175 41.153 113.848 44.3021 113.848 49.9409C113.848 54.1122 111.476 60.5094 111.294 61.0041ZM107.744 34.6074C106.898 35.0361 95.8828 40.8232 95.8828 50.0728C95.8828 57.9868 102.369 69.9733 102.369 69.9733L107.744 64.6148L113.119 69.9733C113.119 69.9733 119.605 57.9868 119.605 50.0728C119.605 40.8232 108.59 35.0361 107.744 34.6074Z" fill="white"/>
<path d="M119.61 38.6308L115.562 34.6078L119.61 30.5684L123.674 34.6078L119.61 38.6308Z" fill="white"/>
<path d="M81.486 38.6309C81.486 39.4717 81.1044 39.9664 80.4409 39.9664C79.7773 39.9664 79.3958 39.4552 79.3958 38.6309H75.9453C76.0448 41.137 77.5047 42.8352 80.4906 42.8352C83.2444 42.8352 84.8203 41.104 84.9364 38.6309H81.486Z" fill="white"/>
<path d="M74.2031 55.5308V43.7422H78.1844C78.1844 43.7422 78.1844 48.8204 78.1844 49.2326C78.1844 49.6283 78.1015 50.0899 78.1015 50.0899H78.2674L82.597 43.7422H86.4125V55.5308H82.4312V49.991C82.4312 49.5953 82.5141 49.2161 82.5141 49.2161H82.3482L78.0185 55.5308H74.2031Z" fill="white"/>
<path d="M65.9901 52.1672C67.4333 52.1672 68.3954 51.0461 68.3954 49.6611C68.3954 48.2267 67.4333 47.1056 65.9901 47.1056C64.58 47.1056 63.5847 48.2267 63.5847 49.6611C63.5847 51.0626 64.58 52.1672 65.9901 52.1672ZM65.9901 43.4453C69.7723 43.4453 72.5758 46.0998 72.5758 49.6611C72.5758 53.1895 69.7557 55.844 65.9901 55.844C62.2576 55.844 59.4375 53.1895 59.4375 49.6611C59.4375 46.0998 62.2576 43.4453 65.9901 43.4453Z" fill="white"/>
<path d="M54.6587 43.7422C54.6587 43.7422 51.3409 48.029 51.2082 48.1938C51.0423 48.3917 51.0257 48.5071 51.0257 48.5071H50.8598C50.8598 48.5071 50.8267 48.3917 50.6774 48.1938C50.4451 47.9135 46.9947 43.7422 46.9947 43.7422H43.8594V55.5308H47.6914V50.5845C47.6914 50.0569 47.6084 49.7272 47.6084 49.7272H47.7743L50.8598 53.2555H51.0257L53.879 49.7272H54.0449C54.0449 49.7272 53.9619 50.0404 53.9619 50.5845V55.5308H57.794V43.7422H54.6587Z" fill="white"/>
<path d="M17.8348 68.0948C15.1806 68.0948 13.6544 65.6711 13.6544 62.9012C14.2848 61.2854 16.2257 59.9994 17.868 59.9994C20.2733 59.9994 21.7995 61.4833 21.7995 64.0223C21.7995 66.3801 20.0743 68.0948 17.8182 68.0948H17.8348ZM18.4154 58.0209C16.4081 58.0209 14.318 59.1255 13.5383 60.7908H13.4222C13.4719 60.6094 13.5383 60.4445 13.5549 60.2797C13.7374 57.7406 14.7659 55.7126 16.7399 55.0201C17.9841 54.575 19.2117 54.4101 20.1572 54.2122C21.1691 53.9979 22.1976 53.7506 22.7948 53.5692L22.1313 51.5742C21.0364 51.871 20.0079 52.1018 18.2827 52.4481C17.5528 52.5964 16.7565 52.7284 15.8275 53.1076C12.6591 54.4266 11.2656 57.0811 11.2656 62.0603C11.2656 66.5449 13.5217 70.0733 17.8348 70.0733C21.7995 70.0733 24.2049 66.9901 24.2049 63.9069C24.2049 60.3456 21.899 58.0209 18.4154 58.0209Z" fill="white"/>
<path d="M28.2159 66.3459C28.2159 66.3459 28.1662 66.3459 28.0998 66.3459C28.1496 66.1646 28.2159 65.8843 28.2159 65.604V57.9043H25.8438V69.6929H27.9671L34.7353 61.2183H34.8515C34.8017 61.3997 34.7353 61.7129 34.7353 61.9932V69.6929H37.1075V57.9043H34.9842L28.2159 66.3459Z" fill="white"/>
<path d="M46.1202 63.6417V63.5922C47.5137 63.0976 48.2104 62.1743 48.2104 60.8058C48.2104 58.8438 46.6013 57.5742 43.748 57.5742C42.1058 57.5742 40.3805 58.0194 38.9705 59.1076L39.8994 60.7728C40.9611 59.9484 42.3214 59.5362 43.4329 59.5362C44.9922 59.5362 45.8216 60.1793 45.8216 61.2345C45.8216 62.1743 45.0917 62.8502 43.8973 62.8502H42.0228V64.6804H44.0301C45.4733 64.6804 46.2032 65.175 46.2032 66.1478C46.2032 67.3019 45.042 68.0933 43.267 68.0933C42.0228 68.0933 40.563 67.5657 39.6008 66.7908L38.6719 68.489C39.7004 69.4123 41.4754 70.0883 43.549 70.0883C46.4022 70.0883 48.5754 68.6044 48.5754 66.4281C48.5754 64.9936 47.6962 63.8395 46.1037 63.6417H46.1202Z" fill="white"/>
<path d="M58.9601 62.736H52.6066V57.8887H50.2344V69.6773H52.6066V64.5661H58.9601V69.6773H61.3323V57.8887H58.9601V62.736Z" fill="white"/>
<path d="M65.4639 62.8008C65.7625 60.9707 67.1062 59.5527 68.8812 59.5527C71.0212 59.5527 72.0663 60.9872 72.2487 62.8008H65.4639ZM68.7651 57.5742C65.2814 57.5742 62.9922 60.2947 62.9922 63.889C62.9922 67.4338 65.2814 70.0883 69.4452 70.0883C71.4525 70.0883 73.1611 69.4783 74.3887 68.4725L73.4597 66.7743C72.5473 67.4503 71.1539 68.0933 69.5282 68.0933C66.9403 68.0933 65.6796 66.6919 65.4473 64.6309H65.4639H74.5214C74.538 64.3836 74.5546 64.1528 74.5546 63.889C74.5546 60.2947 72.8127 57.5742 68.7651 57.5742Z" fill="white"/>
<path d="M82.6795 68.0447C80.2575 68.0447 78.4825 66.2476 78.4825 63.6755C78.4825 61.4826 79.8926 59.5866 82.5468 59.5866C83.7412 59.5866 84.9522 59.8998 86.3456 60.7902C86.3456 60.7902 86.9428 59.7185 87.3078 59.059C85.8811 58.0532 84.2388 57.5586 82.4804 57.5586C78.665 57.5586 76.0938 60.2296 76.0938 63.8239C76.0938 67.3192 78.6484 70.0892 82.5136 70.0892C84.4047 70.0892 86.0636 69.5451 87.2912 68.5558L86.3622 66.8576C85.4498 67.5336 84.1393 68.0447 82.6795 68.0447Z" fill="white"/>
<path d="M17.4554 34.5921V29.6953H12.8438V34.5921H14.0879V30.8659H16.1947V34.5921H17.4554Z" fill="white"/>
<path d="M20.1279 36.7687V34.4769C20.4099 34.6418 20.7915 34.7242 21.2726 34.7242C22.0522 34.7242 22.6826 34.4769 23.1637 33.9658C23.6448 33.4711 23.8936 32.8281 23.8936 32.0697C23.8936 31.3443 23.6779 30.7342 23.2798 30.2726C22.8817 29.8109 22.3342 29.5801 21.6541 29.5801C21.0403 29.5801 20.4431 29.8274 20.1279 30.1736V29.712H18.8672V36.7852H20.1279V36.7687ZM21.256 30.7507C22.0854 30.7507 22.5499 31.3113 22.5499 32.1027C22.5499 32.9435 22.0191 33.5536 21.173 33.5536C20.7749 33.5536 20.4265 33.4547 20.1279 33.2733V31.2948C20.4431 30.9321 20.8247 30.7672 21.256 30.7672V30.7507Z" fill="white"/>
<path d="M28.5353 31.4925V34.5921H29.7961V29.6953H28.5353L26.2295 32.795V29.6953H24.9688V34.5921H26.2295L28.5353 31.4925Z" fill="white"/>
<path d="M38.1361 34.5921V29.6953H33.5078V34.5921H34.7686V30.8659H36.8753V34.5921H38.1361Z" fill="white"/>
<path d="M39.9643 33.9988C40.4619 34.4769 41.1089 34.7242 41.9218 34.7242C42.718 34.7242 43.365 34.4769 43.8626 33.9988C44.3603 33.5041 44.6091 32.8941 44.6091 32.1521C44.6091 31.3937 44.3603 30.7837 43.8626 30.3055C43.365 29.8109 42.718 29.5801 41.9218 29.5801C41.1255 29.5801 40.4619 29.8274 39.9643 30.3055C39.4666 30.7837 39.2344 31.3937 39.2344 32.1521C39.2344 32.9106 39.4832 33.5206 39.9643 33.9988ZM40.5781 32.1521C40.5781 31.3278 41.1587 30.7507 41.9218 30.7507C42.7014 30.7507 43.2654 31.3278 43.2654 32.1521C43.2654 32.993 42.7014 33.5536 41.9218 33.5536C41.1421 33.5536 40.5781 32.96 40.5781 32.1521Z" fill="white"/>
<path d="M46.1163 35.7463V34.6086H49.6165V35.7463H50.7943V33.438H49.9649V29.6953H46.3319L46.249 30.8659C46.166 32.0695 45.9504 32.9104 45.5522 33.4215H44.9219V35.7298H46.0997L46.1163 35.7463ZM47.5097 30.8824H48.7207V33.438H46.8959C47.2111 33.0093 47.3936 32.3333 47.4931 31.377L47.5263 30.8824H47.5097Z" fill="white"/>
<path d="M52.21 35.7463V34.6086H55.7103V35.7463H56.8881V33.438H56.0586V29.6953H52.4257L52.3427 30.8659C52.2598 32.0695 52.0441 32.9104 51.646 33.4215H51.0156V35.7298H52.1934L52.21 35.7463ZM53.6035 30.8824H54.8145V33.438H52.9897C53.3049 33.0093 53.4874 32.3333 53.5869 31.377L53.6201 30.8824H53.6035Z" fill="white"/>
<path d="M61.5778 33.2238C61.2129 33.5206 60.7484 33.669 60.1844 33.669C59.3881 33.669 58.8075 33.2568 58.708 32.5314H62.2746C62.3243 32.35 62.3575 32.1357 62.3575 31.8554C62.3575 31.1959 62.1253 30.6518 61.6774 30.2231C61.2295 29.7944 60.6655 29.5801 60.0185 29.5801C59.2222 29.5801 58.5919 29.8274 58.1274 30.322C57.6629 30.8166 57.4141 31.4267 57.4141 32.1521C57.4141 32.9271 57.6629 33.5536 58.144 34.0152C58.6416 34.4769 59.272 34.7242 60.0683 34.7242C60.8479 34.7242 61.4783 34.5099 61.9594 34.1142L61.5944 33.2403L61.5778 33.2238ZM59.9521 30.6188C60.6489 30.6188 61.0968 31.0804 61.0802 31.6905H58.6582C58.8075 30.9815 59.2388 30.6188 59.9521 30.6188Z" fill="white"/>
<path d="M64.6279 36.7687V34.4769C64.9099 34.6418 65.2915 34.7242 65.7726 34.7242C66.5522 34.7242 67.1826 34.4769 67.6637 33.9658C68.1448 33.4711 68.3936 32.8281 68.3936 32.0697C68.3936 31.3443 68.1779 30.7342 67.7798 30.2726C67.3817 29.8109 66.8342 29.5801 66.1541 29.5801C65.5403 29.5801 64.9431 29.8274 64.6279 30.1736V29.712H63.3672V36.7852H64.6279V36.7687ZM65.756 30.7507C66.5854 30.7507 67.0499 31.3113 67.0499 32.1027C67.0499 32.9435 66.5191 33.5536 65.673 33.5536C65.2749 33.5536 64.9265 33.4547 64.6279 33.2733V31.2948C64.9431 30.9321 65.3247 30.7672 65.756 30.7672V30.7507Z" fill="white"/>
<path d="M74.5511 29.6953L73.0415 32.0695L74.6838 34.5921H76.1768L74.4183 32.0695L76.044 29.6953H74.5511ZM72.9917 34.5921V29.6953H71.731V34.5921H72.9917ZM68.5791 34.5921H70.0721L71.6646 32.0695L70.1882 29.6953H68.662L70.3043 32.0695L68.5625 34.5921H68.5791Z" fill="white"/>
<path d="M80.023 29.6953L78.248 32.119L80.2055 34.5921H81.8478L79.7244 32.0201L81.6155 29.6953H80.023ZM78.1982 34.5921V29.6953H76.9375V34.5921H78.1982Z" fill="white"/>
<path d="M86.1638 33.2238C85.7988 33.5206 85.3343 33.669 84.7703 33.669C83.9741 33.669 83.3935 33.2568 83.2939 32.5314H86.8605C86.9103 32.35 86.9435 32.1357 86.9435 31.8554C86.9435 31.1959 86.7112 30.6518 86.2633 30.2231C85.8154 29.7944 85.2514 29.5801 84.6044 29.5801C83.8082 29.5801 83.1778 29.8274 82.7133 30.322C82.2488 30.8166 82 31.4267 82 32.1521C82 32.9271 82.2488 33.5536 82.7299 34.0152C83.2276 34.4769 83.8579 34.7242 84.6542 34.7242C85.4339 34.7242 86.0643 34.5099 86.5453 34.1142L86.1804 33.2403L86.1638 33.2238ZM84.5381 30.6188C85.2348 30.6188 85.6827 31.0804 85.6661 31.6905H83.2442C83.3935 30.9815 83.8248 30.6188 84.5381 30.6188Z" fill="white"/>
<path d="M14.2032 26.9421V24.7163C14.4686 24.8812 14.8335 24.9471 15.3146 24.9471C16.0611 24.9471 16.6749 24.6998 17.1394 24.2217C17.6039 23.7435 17.8361 23.1335 17.8361 22.3916C17.8361 21.6826 17.637 21.1055 17.2389 20.6604C16.8408 20.2152 16.3099 19.9844 15.6796 19.9844C15.0824 19.9844 14.5184 20.2317 14.2032 20.545V20.0998H12.9922V26.9421H14.2032ZM15.298 21.122C16.0943 21.122 16.5422 21.6661 16.5422 22.4245C16.5422 23.2324 16.0279 23.826 15.2151 23.826C14.817 23.826 14.5018 23.7271 14.2032 23.5457V21.6331C14.5184 21.2869 14.8833 21.122 15.298 21.122Z" fill="white"/>
<path d="M19.2817 21.3188C19.7628 21.1044 20.1775 20.989 20.5259 20.989C21.206 20.989 21.4548 21.3847 21.4217 22.2091C21.1396 22.0113 20.7747 21.8958 20.3434 21.8958C19.3315 21.8958 18.6016 22.4399 18.6016 23.4292C18.6016 24.3195 19.1988 24.8801 20.0946 24.8801C20.7415 24.8801 21.2226 24.6822 21.5046 24.2701V24.8141H22.5663V21.9288C22.5663 20.6263 22.0189 19.9668 20.6586 19.9668C20.0614 19.9668 19.4974 20.1152 18.9665 20.412L19.2817 21.3023V21.3188ZM20.4927 23.8744C20.0946 23.8744 19.8125 23.66 19.8125 23.3138C19.8125 22.9346 20.1443 22.7202 20.5756 22.7202C20.924 22.7202 21.206 22.7862 21.4051 22.9511V23.4292C21.206 23.7095 20.8908 23.8579 20.4761 23.8579L20.4927 23.8744Z" fill="white"/>
<path d="M25.4798 24.946C26.7904 24.946 27.6364 24.402 27.6364 23.5116C27.6364 22.9511 27.2714 22.5224 26.6245 22.3905V22.374C27.1719 22.1926 27.5037 21.7804 27.5037 21.3188C27.5037 20.4779 26.8401 19.9668 25.596 19.9668C24.7002 19.9668 24.0034 20.2306 23.5555 20.7747L24.0698 21.5001C24.5011 21.1374 24.9324 20.9561 25.3803 20.9561C25.9443 20.9561 26.2098 21.1209 26.2098 21.4672C26.2098 21.7969 25.9609 22.0442 25.5794 22.0442H24.7499V22.8521H25.6457C26.0936 22.8521 26.3591 23.0665 26.3591 23.3962C26.3591 23.7425 26.0107 23.9733 25.3803 23.9733C24.9324 23.9733 24.3186 23.726 24.0366 23.3962L23.4062 24.1546C23.5887 24.369 23.8707 24.5668 24.2689 24.7152C24.667 24.8636 25.0817 24.9296 25.4798 24.9296V24.946Z" fill="white"/>
<path d="M30.0313 26.9421V24.7163C30.2967 24.8812 30.6617 24.9471 31.1427 24.9471C31.8892 24.9471 32.503 24.6998 32.9675 24.2217C33.432 23.7435 33.6642 23.1335 33.6642 22.3916C33.6642 21.6826 33.4652 21.1055 33.067 20.6604C32.6689 20.2152 32.1381 19.9844 31.5077 19.9844C30.9105 19.9844 30.3465 20.2317 30.0313 20.545V20.0998H28.8203V26.9421H30.0313ZM31.1262 21.122C31.9224 21.122 32.3703 21.6661 32.3703 22.4245C32.3703 23.2324 31.8561 23.826 31.0432 23.826C30.6451 23.826 30.3299 23.7271 30.0313 23.5457V21.6331C30.3465 21.2869 30.7114 21.122 31.1262 21.122Z" fill="white"/>
<path d="M35.0864 21.3188C35.5675 21.1044 35.9822 20.989 36.3305 20.989C37.0107 20.989 37.2595 21.3847 37.2263 22.2091C36.9443 22.0113 36.5794 21.8958 36.1481 21.8958C35.1362 21.8958 34.4062 22.4399 34.4062 23.4292C34.4062 24.3195 35.0034 24.8801 35.8992 24.8801C36.5462 24.8801 37.0273 24.6822 37.3093 24.2701V24.8141H38.371V21.9288C38.371 20.6263 37.8235 19.9668 36.4633 19.9668C35.8661 19.9668 35.302 20.1152 34.7712 20.412L35.0864 21.3023V21.3188ZM36.2974 23.8744C35.8992 23.8744 35.6172 23.66 35.6172 23.3138C35.6172 22.9346 35.949 22.7202 36.3803 22.7202C36.7287 22.7202 37.0107 22.7862 37.2098 22.9511V23.4292C37.0107 23.7095 36.6955 23.8579 36.2808 23.8579L36.2974 23.8744Z" fill="white"/>
<path d="M43.1962 17.3457C42.8976 17.6755 42.5658 17.7579 41.952 17.8898C41.6369 17.9393 41.3548 18.0217 41.0894 18.1371C39.895 18.6482 39.2812 19.9178 39.2812 21.9457C39.2812 22.869 39.5135 23.5945 39.9614 24.1386C40.4259 24.6827 41.0563 24.9465 41.8525 24.9465C42.5824 24.9465 43.1796 24.7157 43.6607 24.2375C44.1252 23.7594 44.3574 23.1823 44.3574 22.5063C44.3574 21.7974 44.1584 21.2368 43.7602 20.8081C43.3621 20.3794 42.8313 20.1816 42.1843 20.1816C41.5041 20.1816 40.8074 20.5443 40.5088 21.0719H40.4922C40.5918 20.1651 40.9235 19.5715 41.5207 19.3077C41.753 19.1923 42.035 19.1099 42.3502 19.0439C42.682 18.978 42.9474 18.8955 43.1962 18.8131C43.445 18.7142 43.6441 18.5658 43.8266 18.3514L43.1962 17.3622V17.3457ZM40.5752 22.1931C40.7411 21.6819 41.2387 21.3027 41.8857 21.3027C42.6322 21.3027 43.0635 21.8303 43.0635 22.5558C43.0635 23.2647 42.5824 23.8253 41.8359 23.8253C41.0894 23.8253 40.5918 23.1493 40.5918 22.2095L40.5752 22.1931Z" fill="white"/>
<path d="M45.8383 24.2536C46.3194 24.7152 46.9498 24.946 47.7294 24.946C48.5091 24.946 49.1229 24.7152 49.604 24.2536C50.085 23.7754 50.3173 23.1984 50.3173 22.4564C50.3173 21.731 50.0685 21.1374 49.604 20.6758C49.1229 20.1976 48.5091 19.9668 47.7294 19.9668C46.9498 19.9668 46.3194 20.1976 45.8383 20.6758C45.3572 21.1374 45.125 21.731 45.125 22.4564C45.125 23.1819 45.3572 23.7754 45.8383 24.2536ZM46.4355 22.4564C46.4355 21.6485 46.9995 21.1044 47.7294 21.1044C48.4759 21.1044 49.04 21.665 49.04 22.4564C49.04 23.2643 48.4925 23.8084 47.7294 23.8084C46.9829 23.8084 46.4355 23.2478 46.4355 22.4564Z" fill="white"/>
<path d="M52.239 21.3032V24.8315H53.4666V21.3032H55.0259V20.0996H50.6797V21.3032H52.239Z" fill="white"/>
<path d="M56.2583 21.3188C56.7393 21.1044 57.1541 20.989 57.5024 20.989C58.1826 20.989 58.4314 21.3847 58.3982 22.2091C58.1162 22.0113 57.7513 21.8958 57.3199 21.8958C56.308 21.8958 55.5781 22.4399 55.5781 23.4292C55.5781 24.3195 56.1753 24.8801 57.0711 24.8801C57.7181 24.8801 58.1992 24.6822 58.4812 24.2701V24.8141H59.5428V21.9288C59.5428 20.6263 58.9954 19.9668 57.6351 19.9668C57.0379 19.9668 56.4739 20.1152 55.9431 20.412L56.2583 21.3023V21.3188ZM57.4692 23.8744C57.0711 23.8744 56.7891 23.66 56.7891 23.3138C56.7891 22.9346 57.1209 22.7202 57.5522 22.7202C57.9006 22.7202 58.1826 22.7862 58.3816 22.9511V23.4292C58.1826 23.7095 57.8674 23.8579 57.4527 23.8579L57.4692 23.8744Z" fill="white"/>
<path d="M65.309 24.8315V20.0996H64.098V21.8803H62.0079V20.0996H60.7969V24.8315H62.0079V23.0179H64.098V24.8315H65.309Z" fill="white"/>
<path d="M67.0883 24.2536C67.5694 24.7152 68.1998 24.946 68.9794 24.946C69.7591 24.946 70.3729 24.7152 70.854 24.2536C71.335 23.7754 71.5673 23.1984 71.5673 22.4564C71.5673 21.731 71.3185 21.1374 70.854 20.6758C70.3729 20.1976 69.7591 19.9668 68.9794 19.9668C68.1998 19.9668 67.5694 20.1976 67.0883 20.6758C66.6072 21.1374 66.375 21.731 66.375 22.4564C66.375 23.1819 66.6072 23.7754 67.0883 24.2536ZM67.6855 22.4564C67.6855 21.6485 68.2495 21.1044 68.9794 21.1044C69.7259 21.1044 70.29 21.665 70.29 22.4564C70.29 23.2643 69.7425 23.8084 68.9794 23.8084C68.2329 23.8084 67.6855 23.2478 67.6855 22.4564Z" fill="white"/>
</svg>
